<?xml version="1.0" standalone="no"?>
<!DOCTYPE svg PUBLIC "-//W3C//DTD SVG 1.1//EN" "http://www.w3.org/Graphics/SVG/1.1/DTD/svg11.dtd" >
<svg xmlns="http://www.w3.org/2000/svg" xmlns:xlink="http://www.w3.org/1999/xlink" version="1.1">
<metadata>
Created by FontForge 20190801 at Sun Jan  5 12:13:50 2014
 By Jimmy Wärting
Copyright (c) 2013 by Frank Hemmekam. All rights reserved.
</metadata>
<defs>
<font id="Odin-Bold" horiz-adv-x="547" >
  <font-face 
    font-family="Odin Rounded"
    font-weight="700"
    font-stretch="normal"
    units-per-em="1000"
    panose-1="2 15 0 0 0 0 0 0 0 0"
    ascent="800"
    descent="-200"
    x-height="467"
    cap-height="700"
    bbox="-15 -1044 3336 937"
    underline-thickness="50"
    underline-position="-100"
    unicode-range="U+0020-FB02"
  />
<missing-glyph horiz-adv-x="360" 
 />
    <glyph glyph-name="t_h_e" unicode="thesmall" horiz-adv-x="1334" 
d="M157 583h-59c-32 0 -58 26 -58 59c0 32 26 58 58 58h239c33 0 59 -26 59 -58c0 -33 -26 -59 -59 -59h-64v-350c0 -32 -26 -58 -58 -58s-58 26 -58 58v350zM536 175c-33 0 -59 26 -59 58v409c0 32 26 58 59 58c32 0 58 -26 58 -58v-146h147v146c0 32 26 58 58 58
c33 0 59 -26 59 -58v-409c0 -32 -26 -58 -59 -58c-32 0 -58 26 -58 58v146h-147v-146c0 -32 -26 -58 -58 -58zM1061 292h175c32 0 58 -26 58 -59c0 -32 -26 -58 -58 -58h-234c-32 0 -58 26 -58 58v397c0 33 26 59 58 59h234c32 0 58 -26 58 -59c0 -32 -26 -58 -58 -58h-175
v-76h116c32 0 59 -26 59 -59c0 -32 -27 -58 -59 -58h-116v-87zM127 117h1109c32 0 58 -26 58 -59c0 -32 -26 -58 -58 -58h-1109c-32 0 -58 26 -58 58c0 33 26 59 58 59z" />
    <glyph glyph-name="AE" unicode="AELIGA" horiz-adv-x="867" 
d="M604 117h165c32 0 58 -26 58 -59c0 -32 -26 -58 -58 -58h-204c-24 0 -45 15 -54 37l-44 109h-271l-44 -109c-9 -23 -31 -37 -54 -37c-35 0 -58 30 -58 59c0 7 1 14 4 21l233 583c9 22 31 37 55 37h236c32 0 59 -26 59 -58c0 -33 -27 -59 -59 -59h-150l70 -175h164
c33 0 59 -26 59 -58s-26 -58 -59 -58h-118zM243 262h177l-88 223z" />
    <glyph glyph-name="ampersand1" unicode="andsmall" horiz-adv-x="508" 
d="M418 316l37 -46c9 -11 13 -23 13 -36c0 -32 -27 -59 -59 -59c-17 0 -34 8 -45 22l-26 32l-13 -14c-31 -26 -71 -40 -111 -40c-96 0 -174 78 -174 174c0 65 36 122 89 152c-6 17 -9 34 -9 52c0 81 65 147 146 147s147 -66 147 -147c0 -32 -26 -58 -58 -58s-59 26 -59 58
c0 17 -13 30 -30 30c-16 0 -30 -13 -30 -30c0 -8 4 -15 7 -18l101 -127l22 24c12 13 27 19 43 19c33 0 58 -27 58 -58c0 -14 -5 -29 -15 -40zM248 303l16 18l-66 83c-24 -7 -41 -29 -41 -55c0 -32 25 -57 57 -57c15 0 26 5 34 11zM380 0h-262c-33 0 -59 26 -59 58
c0 33 26 59 59 59h262c32 0 58 -26 58 -59c0 -32 -26 -58 -58 -58z" />
    <glyph glyph-name="b_a_r_o_n" unicode="Baron" horiz-adv-x="2987" 
d="M417 400c58 -38 90 -102 90 -181c0 -135 -111 -219 -205 -219h-204c-32 0 -58 26 -58 58v584c0 32 26 58 58 58h161c5 0 48 -2 91 -23c64 -32 98 -90 98 -167c0 -42 -11 -80 -31 -110zM157 583v-146h87c15 0 88 3 88 73c0 67 -46 73 -65 73h-8h-102zM347 131
c39 22 43 61 43 88c0 37 -23 102 -95 102h-138v-204h138c1 0 28 1 52 14zM937 663l233 -583c3 -7 4 -15 4 -22c0 -30 -23 -58 -58 -58c-23 0 -45 14 -54 37l-44 109h-271l-44 -109c-9 -23 -31 -37 -54 -37c-34 0 -58 29 -58 58c0 8 1 15 4 22l233 583c9 22 31 37 55 37
c23 0 45 -15 54 -37zM794 262h177l-88 223zM1593 272l114 -183c6 -10 9 -21 9 -31c0 -30 -24 -58 -58 -58c-19 0 -39 10 -50 28l-131 209c-30 -4 -51 -4 -52 -4h-59v-175c0 -32 -26 -58 -58 -58s-58 26 -58 58v584c0 32 26 58 58 58h117c2 0 69 0 137 -26
c99 -37 154 -111 154 -207c0 -86 -43 -154 -123 -195zM1366 350h59s50 0 98 19c69 27 77 68 77 98c0 29 -9 71 -79 98c-47 18 -96 18 -96 18h-59v-233zM2063 175c-137 0 -248 118 -248 263c0 144 111 262 248 262s248 -118 248 -262c0 -145 -111 -263 -248 -263zM2063 583
c-73 0 -131 -65 -131 -145c0 -81 58 -146 131 -146c72 0 131 65 131 146c0 80 -59 145 -131 145zM1902 117h321c32 0 59 -26 59 -59c0 -32 -27 -58 -59 -58h-321c-32 0 -58 26 -58 58c0 33 26 59 58 59zM2889 0c-19 0 -37 9 -48 25l-302 432v-399c0 -32 -27 -58 -59 -58
s-58 26 -58 58v584c0 30 24 58 59 58c18 0 36 -9 47 -25l302 -432v399c0 32 26 58 59 58c32 0 58 -26 58 -58v-584c0 -31 -26 -58 -58 -58z" />
    <glyph glyph-name="n_e_w" unicode="newsmall" horiz-adv-x="1684" 
d="M98 117h1487c33 0 59 -26 59 -59c0 -32 -26 -58 -59 -58h-1487c-32 0 -58 26 -58 58c0 33 26 59 58 59zM127 175c-32 0 -58 26 -58 58v409c0 25 17 48 41 55c6 2 12 3 18 3c19 0 36 -9 47 -25l180 -257v224c0 32 26 58 58 58s59 -26 59 -58v-409c0 -25 -17 -48 -41 -55
c-6 -2 -12 -3 -18 -3c-18 0 -36 9 -48 25l-179 257v-224c0 -32 -26 -58 -59 -58zM856 185h-233c-32 0 -58 26 -58 58v397c0 32 26 58 58 58h233c33 0 59 -26 59 -58s-26 -58 -59 -58h-175v-77h117c32 0 58 -26 58 -58s-26 -58 -58 -58h-117v-88h175c33 0 59 -26 59 -58
s-26 -58 -59 -58zM1177 211l-170 408c-3 8 -5 15 -5 23c0 23 14 44 36 53c8 3 15 5 23 5c23 0 44 -14 53 -36l117 -279l28 68l-69 166c-3 7 -4 15 -4 22c0 23 13 45 36 54c7 3 15 5 23 5c22 0 43 -14 53 -36l25 -59l24 59c9 22 31 36 54 36c8 0 15 -2 23 -5
c22 -9 35 -31 35 -54c0 -7 -1 -15 -4 -22l-69 -166l28 -68l117 279c9 22 30 36 53 36c8 0 15 -2 23 -5c22 -9 36 -30 36 -53c0 -8 -2 -15 -5 -23l-170 -408c-9 -22 -30 -36 -54 -36c-23 0 -45 14 -54 36l-37 91l-38 -91c-9 -22 -31 -36 -54 -36c-24 0 -45 14 -54 36z" />
    <glyph glyph-name="n_o_1" unicode="nosmall" horiz-adv-x="1192" 
d="M904 175c-136 0 -248 118 -248 262c0 145 112 263 248 263c137 0 248 -118 248 -263c0 -144 -111 -262 -248 -262zM904 583c-72 0 -131 -65 -131 -146c0 -80 59 -145 131 -145c73 0 132 65 132 145c0 81 -59 146 -132 146zM963 58c0 -32 -26 -58 -59 -58
c-32 0 -58 26 -58 58c0 33 26 59 58 59c33 0 59 -26 59 -59zM507 0c-19 0 -37 9 -48 25l-302 432v-399c0 -32 -27 -58 -59 -58s-58 26 -58 58v584c0 25 16 47 41 55c6 2 11 2 17 2c18 0 37 -8 48 -24l302 -432v399c0 32 26 58 59 58c32 0 58 -26 58 -58v-584
c0 -31 -26 -58 -58 -58z" />
    <glyph glyph-name="l_t_d" unicode="ltdsmall" horiz-adv-x="1241" 
d="M339 175h-241c-32 0 -58 26 -58 58v402c0 32 26 59 58 59s59 -27 59 -59v-343h182c33 0 59 -26 59 -59c0 -32 -26 -58 -59 -58zM477 583h-58c-32 0 -58 26 -58 59c0 32 26 58 58 58h239c32 0 59 -26 59 -58c0 -33 -27 -59 -59 -59h-64v-350c0 -32 -26 -58 -58 -58
c-33 0 -59 26 -59 58v350zM976 175h-120c-32 0 -58 26 -58 58v409c0 32 26 58 58 58h120c6 0 59 -1 113 -34c51 -31 112 -96 112 -228c0 -133 -61 -198 -112 -229c-54 -33 -107 -34 -113 -34zM915 583v-291h60c2 0 31 1 57 19c34 23 52 65 52 127c0 61 -18 103 -52 126
c-26 18 -55 19 -57 19h-60zM98 117h1040c33 0 59 -26 59 -59c0 -32 -26 -58 -59 -58h-1040c-32 0 -58 26 -58 58c0 33 26 59 58 59z" />
    <glyph glyph-name="w_i_t_h" unicode="withsmall" horiz-adv-x="1829" 
d="M269 175c-24 0 -45 14 -54 36l-171 408c-3 7 -4 15 -4 22c0 23 13 45 36 54c8 3 15 5 23 5c23 0 44 -14 53 -36l117 -279l28 68l-69 166c-3 7 -5 15 -5 23c0 23 14 44 36 53c8 3 15 5 23 5c23 0 45 -14 54 -36l24 -59l25 59c9 23 31 36 54 36c7 0 15 -1 22 -4
c23 -10 36 -32 36 -55c0 -7 -1 -15 -4 -22l-70 -166l29 -68l116 279c12 25 31 36 54 36c8 0 15 -2 23 -5c22 -9 35 -31 35 -54c0 -7 -1 -15 -4 -22l-170 -408c-9 -22 -30 -36 -54 -36s-45 14 -54 36l-38 91l-38 -91c-9 -22 -30 -36 -53 -36zM826 175c-32 0 -58 26 -58 58
v409c0 32 26 58 58 58c33 0 59 -26 59 -58v-409c0 -32 -26 -58 -59 -58zM1088 583h-59c-32 0 -58 26 -58 59c0 32 26 58 58 58h239c33 0 59 -26 59 -58c0 -33 -26 -59 -59 -59h-64v-350c0 -32 -26 -58 -58 -58s-58 26 -58 58v350zM1730 700c33 0 59 -26 59 -58v-409
c0 -32 -26 -58 -59 -58c-32 0 -58 26 -58 58v146h-147v-146c0 -32 -26 -58 -58 -58c-33 0 -59 26 -59 58v409c0 32 26 58 59 58c32 0 58 -26 58 -58v-146h147v146c0 32 26 58 58 58zM156 117h1574c33 0 59 -26 59 -59c0 -32 -26 -58 -59 -58h-1574c-33 0 -59 26 -59 58
c0 33 26 59 59 59z" />
    <glyph glyph-name="OE" unicode="OELIGA" horiz-adv-x="652" 
d="M404 117h150c32 0 58 -26 58 -59c0 -32 -26 -58 -58 -58h-208c-169 0 -306 157 -306 350c0 174 122 350 309 350h205c32 0 58 -26 58 -58c0 -33 -26 -59 -58 -59h-150v-175h117c32 0 58 -26 58 -58s-26 -58 -58 -58h-117v-175zM288 128v444c-76 -30 -131 -118 -131 -222
s55 -192 131 -222z" />
    <glyph glyph-name="f_i_v_e" unicode="fivestripe" horiz-adv-x="1101" 
d="M1054 610c5 -8 7 -18 7 -27c0 -21 -12 -41 -32 -51l-114 -59v-415c0 -32 -26 -58 -58 -58c-33 0 -59 26 -59 58v354l-87 -45v-309c0 -32 -26 -58 -59 -58c-32 0 -58 26 -58 58v249l-87 -45v-204c0 -32 -26 -58 -59 -58c-32 0 -58 26 -58 58v144l-88 -46v-98
c0 -32 -26 -58 -58 -58s-58 26 -58 58v38l-61 -31c-9 -4 -18 -7 -27 -7c-21 0 -41 12 -52 32c-4 8 -6 17 -6 26c0 21 11 42 32 53l114 59v414c0 32 26 58 58 58s58 -26 58 -58v-354l88 45v309c0 32 26 58 58 58c33 0 59 -26 59 -58v-249l87 45v204c0 32 26 58 58 58
c33 0 59 -26 59 -58v-143l87 45v98c0 32 26 58 59 58c32 0 58 -26 58 -58v-38l61 31c8 5 18 7 27 7c21 0 41 -12 51 -32z" />
    <glyph glyph-name=".notdef" horiz-adv-x="360" 
 />
    <glyph glyph-name="E.alt4" 
d="M448 288h-112l-124 -171h236c33 0 59 -26 59 -59c0 -32 -26 -58 -59 -58h-350c-22 0 -42 12 -52 32c-4 8 -6 17 -6 26c0 12 4 24 11 34l185 258l-185 258c-7 10 -11 22 -11 34c0 9 2 18 6 26c10 20 30 32 52 32h350c33 0 59 -26 59 -58c0 -33 -26 -59 -59 -59h-236
l129 -178h107c33 0 59 -26 59 -58s-26 -59 -59 -59z" />
    <glyph glyph-name="f.alt3" 
d="M98 700h350c33 0 59 -26 59 -58c0 -33 -27 -59 -59 -59h-291v-525c0 -32 -26 -58 -59 -58c-32 0 -58 26 -58 58v584c0 15 6 30 17 41s26 17 41 17zM302 408c33 0 59 -26 59 -58s-26 -58 -59 -58c-32 0 -58 26 -58 58s26 58 58 58z" />
    <glyph glyph-name="N.001" horiz-adv-x="546" 
d="M448 700c32 0 58 -26 58 -58v-584c0 -26 -17 -49 -42 -56c-5 -1 -11 -2 -16 -2c-21 0 -40 10 -50 28l-242 403v-373c0 -32 -26 -58 -58 -58s-58 26 -58 58v584c0 26 17 49 42 56c5 1 11 2 16 2c21 0 40 -10 50 -28l242 -403v373c0 32 26 58 58 58z" />
    <glyph glyph-name="V" unicode="V" horiz-adv-x="663" 
d="M332 0c-24 0 -46 15 -55 37l-233 583c-3 7 -4 14 -4 21c0 30 24 59 58 59c23 0 45 -14 54 -37l180 -448l179 448c9 23 31 37 54 37c35 0 58 -29 58 -58c0 -7 -1 -15 -4 -22l-233 -583c-9 -22 -31 -37 -54 -37z" />
    <glyph glyph-name="i.alt1" horiz-adv-x="196" 
d="M98 467c32 0 58 -26 58 -59v-350c0 -32 -26 -58 -58 -58s-58 26 -58 58v350c0 33 26 59 58 59z" />
    <glyph glyph-name="m.alt1" horiz-adv-x="664" 
d="M565 350h-175v-292c0 -32 -26 -58 -58 -58s-58 26 -58 58v292h-117v-292c0 -32 -26 -58 -58 -58c-33 0 -59 26 -59 58v350c0 33 26 59 59 59h466c33 0 59 -26 59 -59c0 -32 -26 -58 -59 -58zM565 292c33 0 59 -26 59 -59v-175c0 -32 -26 -58 -59 -58c-32 0 -58 26 -58 58
v175c0 33 26 59 58 59z" />
    <glyph glyph-name="z.alt3" horiz-adv-x="548" 
d="M348 583h-249c-32 0 -58 26 -58 59c0 32 26 58 58 58h350c44 0 73 -49 51 -87c0 -2 -2 -1 -1 -1v0c-19 -33 -38 -64 -57 -99c-10 -19 -30 -30 -51 -30c-47 0 -72 50 -51 86c2 5 5 10 8 14zM274 408c33 0 59 -26 59 -58s-26 -58 -59 -58c-32 0 -58 26 -58 58s26 58 58 58z
M201 117h248c33 0 59 -26 59 -59c0 -32 -26 -58 -59 -58h-350c-14 0 -50 11 -50 30c-11 18 -11 40 0 58c33 55 67 158 137 122c28 -15 38 -51 23 -79c-3 -5 -5 -10 -8 -14z" />
    <glyph glyph-name="Q" unicode="Q" horiz-adv-x="751" 
d="M638 132l30 -36c9 -11 14 -24 14 -37c0 -17 -8 -34 -21 -45c-11 -10 -25 -14 -38 -14c-16 0 -33 7 -45 21l-26 32c-51 -34 -112 -53 -177 -53c-185 0 -335 157 -335 350s150 350 335 350s336 -157 336 -350c0 -82 -28 -158 -73 -218zM375 117c37 0 71 9 102 26l-44 53
c-9 11 -14 25 -14 38c0 17 7 33 21 44c11 9 24 14 37 14c17 0 34 -8 45 -21l38 -46c22 36 34 79 34 125c0 129 -98 233 -219 233c-120 0 -218 -104 -218 -233s98 -233 218 -233z" />
    <glyph glyph-name="S" unicode="S" horiz-adv-x="520" 
d="M270 436c30 -9 204 -65 210 -203v-10c0 -58 -23 -113 -63 -153c-44 -44 -104 -68 -170 -68h-8c-85 3 -159 51 -194 126c-4 8 -5 17 -5 25c0 22 12 43 34 53c8 4 16 5 24 5c22 0 44 -12 54 -34c16 -35 50 -57 91 -58h5c35 0 64 11 85 32c20 20 31 45 31 72v4
c-3 46 -90 87 -128 98l-4 2c-103 37 -155 102 -155 192v8c2 51 25 97 68 129c36 28 85 45 137 45h9c42 -1 85 -18 120 -44c15 -12 23 -29 23 -46c0 -12 -4 -25 -12 -35c-12 -15 -29 -23 -47 -23c-12 0 -24 3 -35 11c-15 12 -35 19 -53 20h-6c-49 0 -87 -25 -88 -61v-4
c0 -49 38 -67 77 -83z" />
    <glyph glyph-name="K.001" horiz-adv-x="605" 
d="M549 681c11 -11 16 -25 16 -39c0 -16 -6 -31 -19 -43l-329 -304h115c17 0 34 -8 45 -21l146 -179c9 -11 13 -23 13 -36c0 -17 -8 -34 -22 -46c-10 -9 -24 -13 -37 -13c-16 0 -33 7 -45 21l-128 157h-147v-120c0 -32 -27 -58 -59 -58s-58 26 -58 58v584c0 32 26 58 58 58
s59 -26 59 -58v-244l310 287c11 10 26 15 40 15c16 0 31 -6 42 -19z" />
    <glyph glyph-name="eight" unicode="8" 
d="M413 420c57 -43 94 -110 94 -187c0 -128 -105 -233 -234 -233c-128 0 -233 105 -233 233c0 77 37 144 93 187c-22 29 -35 66 -35 105c0 96 79 175 175 175c97 0 175 -79 175 -175c0 -39 -13 -76 -35 -105zM215 525c0 -32 26 -58 58 -58s59 26 59 58s-27 58 -59 58
s-58 -26 -58 -58zM273 117c65 0 117 52 117 116c0 65 -52 117 -117 117c-64 0 -116 -52 -116 -117c0 -64 52 -116 116 -116z" />
    <glyph glyph-name="seven.alt1" horiz-adv-x="490" 
d="M441 672c10 -17 11 -38 2 -56l-292 -584c-10 -20 -30 -32 -52 -32c-9 0 -17 2 -26 6c-29 15 -40 50 -26 78l75 149h-23c-32 0 -58 26 -58 59c0 32 26 58 58 58h81l117 233h-139v-58c0 -32 -26 -58 -59 -58c-32 0 -58 26 -58 58v117c0 32 26 58 58 58h292
c20 0 39 -10 50 -28z" />
    <glyph glyph-name="J" unicode="J" horiz-adv-x="343" 
d="M98 0c-32 0 -58 26 -58 58c0 33 26 59 58 59c79 0 88 76 88 87v438c0 32 26 58 58 58c33 0 59 -26 59 -58v-438c0 -5 -1 -51 -25 -99c-34 -68 -98 -105 -180 -105z" />
    <glyph glyph-name="G" unicode="G" horiz-adv-x="694" 
d="M390 0c-90 0 -180 34 -248 102c-66 66 -102 154 -102 248c0 93 36 181 102 247c66 67 154 103 248 103c93 0 181 -36 248 -103c11 -11 16 -25 16 -40s-5 -30 -17 -42s-26 -17 -41 -17s-30 5 -41 17c-44 44 -103 68 -165 68c-63 0 -121 -24 -165 -68s-69 -103 -69 -165
s25 -121 69 -165c45 -46 105 -69 165 -69c53 0 105 18 148 53v123h-146c-32 0 -59 26 -59 58s27 58 59 58h204c32 0 58 -26 58 -58v-206c0 -16 -6 -31 -17 -42c-68 -68 -158 -102 -247 -102z" />
    <glyph glyph-name="C.alt1" horiz-adv-x="488" 
d="M390 0c-193 0 -350 157 -350 350s157 350 350 350c32 0 58 -26 58 -58c0 -33 -26 -59 -58 -59c-129 0 -233 -104 -233 -233s104 -233 233 -233c32 0 58 -26 58 -59c0 -32 -26 -58 -58 -58z" />
    <glyph glyph-name="space" unicode=" " horiz-adv-x="268" 
 />
    <glyph glyph-name="M.alt3" horiz-adv-x="663" 
d="M623 642v-584c0 -32 -26 -58 -58 -58s-58 26 -58 58v417l-130 -161c-11 -14 -28 -22 -45 -22c-18 0 -35 8 -46 22l-129 161v-417c0 -32 -26 -58 -59 -58c-32 0 -58 26 -58 58v584c0 24 16 47 39 55c8 2 15 3 24 3h456c9 0 17 0 25 -3c24 -8 39 -31 39 -55zM332 443
l112 140h-224z" />
    <glyph glyph-name="one.alt1" horiz-adv-x="342" 
d="M186 700h58c32 0 58 -26 58 -58v-584c0 -32 -26 -58 -58 -58s-58 26 -58 58v175h-88c-32 0 -58 26 -58 59c0 32 26 58 58 58h88v58h-59c-32 0 -58 26 -58 59c0 32 26 58 58 58h59v58c-32 0 -59 26 -59 59c0 32 27 58 59 58z" />
    <glyph glyph-name="three.alt1" horiz-adv-x="546" 
d="M413 420c57 -43 93 -110 93 -187c0 -128 -104 -233 -233 -233s-233 105 -233 233c0 129 104 234 233 234h5c30 3 53 28 53 58c0 32 -26 58 -58 58h-117c-32 0 -58 26 -58 59c0 32 26 58 58 58h117c96 0 175 -79 175 -175c0 -38 -12 -75 -35 -105zM273 117
c64 0 117 52 117 116c0 65 -53 117 -117 117s-117 -52 -117 -117c0 -64 53 -116 117 -116z" />
    <glyph glyph-name="nine.alt1" 
d="M273 700c129 0 234 -105 234 -233c0 -129 -105 -234 -234 -234c-2 0 -5 0 -7 1l-113 -204c-11 -19 -31 -30 -52 -30c-9 0 -19 2 -28 7c-19 11 -30 31 -30 51c0 10 3 20 8 29l100 181c-66 41 -111 115 -111 199c0 128 105 233 233 233zM273 350c65 0 117 52 117 117
c0 64 -52 116 -117 116c-64 0 -116 -52 -116 -116c0 -65 52 -117 116 -117z" />
    <glyph glyph-name="six.alt1" 
d="M273 0c-128 0 -233 105 -233 233c0 129 105 234 233 234c3 0 5 0 8 -1l113 204c11 19 31 30 51 30c10 0 19 -2 28 -7c20 -11 31 -30 31 -51c0 -10 -3 -20 -8 -29l-101 -181c67 -41 112 -115 112 -199c0 -128 -105 -233 -234 -233zM273 350c-64 0 -116 -52 -116 -117
c0 -64 52 -116 116 -116c65 0 117 52 117 116c0 65 -52 117 -117 117z" />
    <glyph glyph-name="f_i_v_e.001" horiz-adv-x="1101" 
d="M47 610c10 20 30 32 51 32c9 0 19 -2 27 -7l61 -31v38c0 32 26 58 58 58c33 0 59 -26 59 -58v-98l87 -45v143c0 32 26 58 59 58c32 0 58 -26 58 -58v-204l87 -45v249c0 32 26 58 59 58c32 0 58 -26 58 -58v-309l88 -45v354c0 32 26 58 58 58s58 -26 58 -58v-414l114 -59
c21 -11 32 -32 32 -53c0 -9 -2 -18 -6 -26c-11 -20 -31 -32 -52 -32c-9 0 -18 3 -27 7l-61 31v-38c0 -32 -26 -58 -58 -58s-58 26 -58 58v98l-88 46v-144c0 -32 -26 -58 -58 -58c-33 0 -59 26 -59 58v204l-87 45v-249c0 -32 -26 -58 -58 -58c-33 0 -59 26 -59 58v309l-87 45
v-354c0 -32 -26 -58 -59 -58c-32 0 -58 26 -58 58v415l-114 59c-20 10 -32 30 -32 51c0 9 2 19 7 27z" />
    <glyph glyph-name="four" unicode="4" horiz-adv-x="546" 
d="M360 0c-32 0 -58 26 -58 58v88h-204c-20 0 -39 11 -50 28c-6 9 -8 20 -8 30s2 19 7 28l233 437c10 19 30 31 51 31h29c33 0 59 -26 59 -58v-379h29c32 0 58 -27 58 -59s-26 -58 -58 -58h-29v-88c0 -32 -26 -58 -59 -58zM302 463l-107 -200h107v200z" />
    <glyph glyph-name="two.alt1" horiz-adv-x="494" 
d="M395 118c33 0 59 -26 59 -59s-26 -59 -59 -59h-296c-33 0 -59 26 -59 59c0 7 1 144 112 251c-64 33 -109 100 -112 178v5c0 10 1 21 2 31c15 100 101 177 205 177c114 0 207 -93 207 -207v-10c0 -40 -15 -143 -151 -212c-83 -41 -119 -106 -134 -154h226zM167 532
c-6 -12 -9 -25 -9 -38c0 -49 40 -89 89 -89s89 40 89 89v7c-4 45 -43 81 -89 81c-35 0 -66 -21 -80 -50z" />
    <glyph glyph-name="exclam" unicode="!" horiz-adv-x="197" 
d="M98 700c32 0 59 -26 59 -58v-409c0 -32 -27 -58 -59 -58s-58 26 -58 58v409c0 32 26 58 58 58zM98 117c32 0 59 -26 59 -59c0 -32 -27 -58 -59 -58s-58 26 -58 58c0 33 26 59 58 59z" />
    <glyph glyph-name="period" unicode="." horiz-adv-x="197" 
d="M98 117c32 0 59 -26 59 -59c0 -32 -27 -58 -59 -58s-58 26 -58 58c0 33 26 59 58 59z" />
    <glyph glyph-name="dollar" unicode="$" horiz-adv-x="555" 
d="M386 401c78 -40 129 -82 129 -173c0 -136 -107 -228 -243 -228c-110 0 -232 88 -232 205c0 30 25 57 57 57c29 0 54 -21 59 -50c7 -44 41 -80 86 -91v207c-100 36 -150 100 -150 191c0 100 90 181 209 181c55 0 145 -31 145 -88c0 -35 -29 -57 -58 -57
c-25 0 -48 21 -75 27v-152c22 -7 46 -15 73 -29zM209 519c0 -36 12 -53 33 -65v115c-21 -11 -33 -29 -33 -50zM313 304v-182c59 15 76 62 76 97c0 45 -38 69 -76 85z" />
    <glyph glyph-name="zero.alt1" 
d="M440 616c44 -53 67 -125 67 -208v-116c0 -83 -22 -155 -64 -208c-43 -54 -103 -84 -170 -84c-66 0 -126 30 -169 84c-42 53 -64 125 -64 208v116c0 83 23 155 66 208s104 84 167 84s124 -31 167 -84zM273 583c-47 0 -81 -35 -99 -82l216 -198v105c0 85 -41 175 -117 175z
M273 117c31 0 58 13 78 39c4 5 7 10 10 15l-204 187v-66c0 -56 13 -104 38 -136c21 -26 48 -39 78 -39z" />
    <glyph glyph-name="numbersign" unicode="#" horiz-adv-x="692" 
d="M594 408h-64l-18 -116h53c32 0 58 -27 58 -59s-26 -58 -58 -58h-71l-19 -125c-5 -29 -33 -50 -57 -50c-34 0 -59 28 -59 59c0 3 1 5 17 116h-113l-20 -125c-5 -29 -29 -50 -57 -50c-34 0 -59 28 -59 59c0 3 1 5 18 116h-47c-32 0 -58 26 -58 58s26 59 58 59h64l18 116
h-53c-32 0 -58 26 -58 59c0 32 26 58 58 58h71l19 125c5 29 30 50 58 50c3 0 6 -1 9 -1c28 -5 50 -29 50 -57c0 -3 -1 -6 -18 -117h114l19 125c5 29 29 50 57 50c3 0 6 -1 9 -1c29 -5 50 -29 50 -57c0 -3 -1 -6 -17 -117h46c32 0 58 -26 58 -58c0 -33 -26 -59 -58 -59z
M280 292h114l18 116h-114z" />
    <glyph glyph-name="Oslash" unicode="&#xd8;" horiz-adv-x="751" 
d="M637 568c46 -60 74 -136 74 -218c0 -193 -151 -350 -336 -350c-64 0 -125 19 -176 52l-27 -31c-12 -14 -28 -21 -45 -21c-13 0 -26 5 -37 14c-14 12 -21 28 -21 45c0 13 5 26 14 37l30 36c-46 60 -73 136 -73 218c0 193 150 350 335 350c65 0 125 -19 177 -52l27 31
c12 14 28 21 45 21c13 0 26 -5 37 -14c14 -12 21 -28 21 -45c0 -13 -5 -26 -14 -37zM157 350c0 -46 12 -90 35 -126l283 333c-30 17 -64 26 -100 26c-120 0 -218 -104 -218 -233zM375 117c121 0 219 104 219 233c0 46 -13 90 -35 126l-283 -334c29 -16 63 -25 99 -25z" />
    <glyph glyph-name="Euro" unicode="&#x20ac;" horiz-adv-x="664" 
d="M618 106c4 -9 6 -18 6 -26c0 -61 -110 -80 -176 -80c-141 0 -262 84 -318 204h-32c-32 0 -58 26 -58 58c0 33 26 59 60 59c-1 9 -2 19 -2 29s1 19 1 29c-33 0 -59 26 -59 58c0 33 26 59 58 59h32c55 120 177 204 318 204c66 0 176 -19 176 -80c0 -8 -2 -17 -6 -26
c-10 -22 -31 -35 -53 -35c-8 0 -15 2 -23 5c-30 13 -61 19 -94 19c-73 0 -139 -34 -182 -87h211c33 0 59 -26 59 -59c0 -32 -26 -58 -59 -58h-260c-1 -9 -2 -19 -2 -29s1 -20 2 -29h260c33 0 59 -26 59 -59c0 -32 -26 -58 -59 -58h-211c43 -53 109 -87 182 -87
c33 0 64 6 94 19c7 3 15 5 23 5c22 0 44 -13 53 -35z" />
    <glyph glyph-name="trademark" unicode="&#x2122;" horiz-adv-x="833" 
 />
    <glyph glyph-name="Agrave" unicode="&#xc0;" horiz-adv-x="663" 
d="M390 725c-9 0 -18 2 -26 6l-117 58c-21 10 -32 31 -32 53c0 9 2 18 6 26c9 18 31 31 54 31c8 0 16 -1 24 -5l117 -59c21 -11 32 -31 32 -52c0 -9 -2 -18 -6 -26c-10 -20 -31 -32 -52 -32zM386 663l233 -583c3 -7 4 -15 4 -22c0 -30 -23 -58 -58 -58c-23 0 -45 14 -54 37
l-44 109h-271l-44 -109c-9 -23 -31 -37 -54 -37c-34 0 -58 29 -58 58c0 8 1 15 4 22l233 583c9 22 31 37 55 37c23 0 45 -15 54 -37zM243 262h89h88l-88 223z" />
    <glyph glyph-name="Aacute" unicode="&#xc1;" horiz-adv-x="663" 
d="M273 725c-21 0 -42 12 -52 32c-4 8 -6 17 -6 26c0 21 11 41 32 52l117 59c8 4 16 6 25 6c22 0 43 -12 53 -32c4 -8 6 -17 6 -26c0 -22 -12 -43 -32 -53l-117 -58c-8 -4 -17 -6 -26 -6zM44 80l233 583c9 22 31 37 54 37c24 0 46 -15 55 -37l233 -583c3 -7 4 -14 4 -22
c0 -29 -24 -58 -58 -58c-23 0 -45 14 -54 37l-44 109h-271l-44 -109c-9 -23 -31 -37 -54 -37c-35 0 -58 28 -58 58c0 7 1 15 4 22zM331 485l-88 -223h177z" />
    <glyph glyph-name="Acircumflex" unicode="&#xc2;" horiz-adv-x="663" 
d="M44 80l233 583c9 22 31 37 54 37c24 0 46 -15 55 -37l233 -583c3 -7 4 -14 4 -22c0 -29 -24 -58 -58 -58c-23 0 -45 14 -54 37l-44 109h-271l-44 -109c-9 -23 -31 -37 -54 -37c-35 0 -58 28 -58 58c0 7 1 15 4 22zM331 485l-88 -223h177zM331 900c9 0 18 -2 27 -6
l116 -59c20 -11 32 -30 32 -51c0 -9 -2 -18 -6 -27c-10 -21 -31 -32 -52 -32c-9 0 -18 2 -26 6l-91 45l-90 -45c-9 -4 -17 -6 -26 -6c-21 0 -42 12 -52 32c-4 9 -6 18 -6 27c0 21 12 40 32 51l116 59c9 4 18 6 26 6z" />
    <glyph glyph-name="Adieresis" unicode="&#xc4;" horiz-adv-x="663" 
d="M308 842c0 -33 -26 -59 -58 -59s-59 26 -59 59c0 32 27 58 59 58s58 -26 58 -58zM471 842c0 -33 -26 -59 -58 -59s-58 26 -58 59c0 32 26 58 58 58s58 -26 58 -58zM44 80l233 583c9 22 31 37 54 37c24 0 46 -15 55 -37l233 -583c3 -7 4 -14 4 -22c0 -29 -24 -58 -58 -58
c-23 0 -45 14 -54 37l-44 109h-271l-44 -109c-9 -23 -31 -37 -54 -37c-35 0 -58 28 -58 58c0 7 1 15 4 22zM331 485l-88 -223h177z" />
    <glyph glyph-name="Atilde" unicode="&#xc3;" horiz-adv-x="663" 
d="M375 754c-42 0 -73 29 -95 29c-10 -17 -29 -29 -51 -29c-32 0 -58 26 -58 58c0 31 24 88 117 88c42 0 70 -29 95 -29c10 17 29 29 51 29c32 0 58 -26 58 -58c0 -63 -51 -88 -117 -88zM386 663l233 -583c3 -7 4 -15 4 -22c0 -30 -23 -58 -58 -58c-23 0 -45 14 -54 37
l-44 109h-271l-44 -109c-9 -23 -31 -37 -54 -37c-34 0 -58 29 -58 58c0 8 1 15 4 22l233 583c9 22 31 37 55 37c23 0 45 -15 54 -37zM243 262h89h88l-88 223z" />
    <glyph glyph-name="Ecircumflex" unicode="&#xca;" 
d="M273 900c9 0 18 -2 27 -6l116 -59c20 -11 32 -30 32 -51c0 -9 -2 -18 -6 -27c-10 -21 -31 -32 -52 -32c-9 0 -18 2 -26 6l-91 45l-90 -45c-9 -4 -17 -6 -26 -6c-21 0 -42 12 -52 32c-4 9 -6 18 -6 27c0 21 12 40 32 51l116 59c9 4 18 6 26 6zM157 117h291
c32 0 59 -26 59 -59c0 -32 -27 -58 -59 -58h-350c-32 0 -58 26 -58 58v584c0 32 26 58 58 58h350c32 0 59 -26 59 -58c0 -33 -27 -59 -59 -59h-291v-175h233c32 0 58 -26 58 -58s-26 -58 -58 -58h-233v-175z" />
    <glyph glyph-name="Edieresis" unicode="&#xcb;" 
d="M250 842c0 -33 -26 -59 -58 -59s-59 26 -59 59c0 32 27 58 59 58s58 -26 58 -58zM413 842c0 -33 -26 -59 -58 -59s-58 26 -58 59c0 32 26 58 58 58s58 -26 58 -58zM157 117h291c32 0 59 -26 59 -59c0 -32 -27 -58 -59 -58h-350c-32 0 -58 26 -58 58v584c0 32 26 58 58 58
h350c32 0 59 -26 59 -58c0 -33 -27 -59 -59 -59h-291v-175h233c32 0 58 -26 58 -58s-26 -58 -58 -58h-233v-175z" />
    <glyph glyph-name="Egrave" unicode="&#xc8;" 
d="M332 725c-9 0 -18 2 -26 6l-117 58c-21 10 -32 31 -32 53c0 9 2 18 6 26c9 19 30 32 53 32c8 0 17 -2 25 -6l117 -59c21 -11 32 -31 32 -52c0 -9 -2 -18 -6 -26c-10 -20 -31 -32 -52 -32zM157 117h291c32 0 59 -26 59 -59c0 -32 -27 -58 -59 -58h-350
c-32 0 -58 26 -58 58v584c0 32 26 58 58 58h350c32 0 59 -26 59 -58c0 -33 -27 -59 -59 -59h-291v-175h233c32 0 58 -26 58 -58s-26 -58 -58 -58h-233v-175z" />
    <glyph glyph-name="Eacute" unicode="&#xc9;" 
d="M215 725c-21 0 -42 12 -52 32c-4 8 -6 17 -6 26c0 21 11 41 32 52l117 59c8 4 16 6 25 6c22 0 43 -12 53 -32c4 -8 6 -17 6 -26c0 -22 -12 -43 -32 -53l-117 -58c-8 -4 -17 -6 -26 -6zM157 117h291c32 0 59 -26 59 -59c0 -32 -27 -58 -59 -58h-350c-32 0 -58 26 -58 58
v584c0 32 26 58 58 58h350c32 0 59 -26 59 -58c0 -33 -27 -59 -59 -59h-291v-175h233c32 0 58 -26 58 -58s-26 -58 -58 -58h-233v-175z" />
    <glyph glyph-name="w.alt4" horiz-adv-x="896" 
d="M815 698c25 -8 41 -31 41 -56c0 -6 0 -11 -2 -17l-175 -583c-7 -25 -30 -42 -56 -42c-25 0 -48 17 -56 42l-119 397l-119 -397c-7 -25 -30 -42 -56 -42c-25 0 -48 17 -56 42l-175 583c-2 5 -2 11 -2 16c0 25 16 49 42 57c5 2 11 2 16 2c25 0 48 -16 56 -42l119 -397
l119 397c8 25 31 42 56 42c26 0 49 -17 56 -42l119 -397l119 397c8 26 32 42 57 42c5 0 11 0 16 -2z" />
    <glyph glyph-name="Ntilde" unicode="&#xd1;" horiz-adv-x="605" 
d="M346 754c-42 0 -73 29 -95 29c-10 -17 -29 -29 -51 -29c-32 0 -58 26 -58 58c0 31 24 88 117 88c42 0 70 -29 95 -29c10 17 29 29 51 29c32 0 58 -26 58 -58c0 -63 -51 -88 -117 -88zM507 0c-19 0 -37 9 -48 25l-302 432v-399c0 -32 -27 -58 -59 -58s-58 26 -58 58v584
c0 30 24 58 59 58c18 0 36 -9 47 -25l302 -432v399c0 32 26 58 59 58c32 0 58 -26 58 -58v-584c0 -31 -26 -58 -58 -58z" />
    <glyph glyph-name="Ucircumflex" unicode="&#xdb;" horiz-adv-x="575" 
d="M287 900c9 0 18 -2 27 -6l116 -59c29 -15 41 -48 26 -78c-14 -29 -49 -40 -78 -26l-91 45l-90 -45c-29 -15 -64 -3 -78 26c-15 30 -3 63 26 78l116 59c9 4 18 6 26 6zM288 0c-100 0 -178 48 -219 136c-28 61 -29 120 -29 127v379c0 32 26 58 58 58s58 -26 58 -58v-379
c0 -15 12 -146 132 -146c114 0 131 123 131 146v379c0 32 26 58 58 58s58 -26 58 -58v-379c0 -8 -1 -66 -29 -127c-41 -88 -118 -136 -218 -136z" />
    <glyph glyph-name="Ugrave" unicode="&#xd9;" horiz-adv-x="575" 
d="M346 725c-9 0 -17 2 -26 6l-116 58c-29 14 -41 50 -27 79s51 40 79 26l116 -59c29 -15 41 -48 26 -78c-10 -20 -30 -32 -52 -32zM288 0c-100 0 -178 48 -219 136c-28 61 -29 120 -29 127v379c0 32 26 58 58 58s58 -26 58 -58v-379c0 -15 12 -146 132 -146
c114 0 131 123 131 146v379c0 32 26 58 58 58s58 -26 58 -58v-379c0 -8 -1 -66 -29 -127c-41 -88 -118 -136 -218 -136z" />
    <glyph glyph-name="Uacute" unicode="&#xda;" horiz-adv-x="575" 
d="M229 725c-22 0 -43 12 -53 32c-15 29 -1 64 27 78l116 59c29 15 64 2 78 -26c14 -29 3 -65 -26 -79l-116 -58c-9 -4 -18 -6 -26 -6zM287 0c-104 0 -178 48 -218 136c-29 61 -29 116 -29 127v379c0 32 26 58 58 58s58 -26 58 -58v-379c0 -23 17 -146 131 -146
c120 0 132 131 132 146v379c0 32 26 58 58 58s58 -26 58 -58v-379c0 -7 -1 -66 -29 -127c-41 -88 -119 -136 -219 -136z" />
    <glyph glyph-name="Udieresis" unicode="&#xdc;" horiz-adv-x="575" 
d="M265 842c0 -33 -26 -59 -59 -59c-32 0 -58 26 -58 59c0 32 26 58 58 58c33 0 59 -26 59 -58zM428 842c0 -33 -26 -59 -58 -59c-33 0 -59 26 -59 59c0 32 26 58 59 58c32 0 58 -26 58 -58zM287 0c-100 0 -177 48 -218 136c-28 61 -29 120 -29 127v379c0 32 26 58 58 58
s58 -26 58 -58v-379c0 -23 16 -146 132 -146c118 0 131 131 131 146v379c0 32 26 58 58 58s58 -26 58 -58v-379c0 -7 -1 -66 -29 -127c-41 -88 -118 -136 -219 -136z" />
    <glyph glyph-name="oslash" unicode="&#xf8;" horiz-adv-x="518" 
d="M447 114l15 -16c11 -11 16 -26 16 -40c0 -16 -6 -32 -19 -43c-11 -10 -26 -15 -40 -15c-15 0 -31 6 -43 19l-10 11c-32 -19 -68 -30 -107 -30c-121 0 -219 105 -219 233c0 44 11 84 31 119l-15 17c-11 11 -16 26 -16 40c0 16 6 31 19 42c11 10 26 15 40 15
c16 0 31 -6 43 -18l10 -11c31 19 68 30 107 30c121 0 219 -105 219 -234c0 -43 -12 -84 -31 -119zM259 350c-9 0 -17 -1 -25 -3l125 -137c1 8 2 15 2 23c0 65 -46 117 -102 117zM259 117c8 0 17 1 25 3l-125 136c-1 -7 -2 -15 -2 -23c0 -64 46 -116 102 -116z" />
    <glyph glyph-name="Oacute" unicode="&#xd3;" horiz-adv-x="751" 
d="M375 0c-185 0 -335 157 -335 350s150 350 335 350s336 -157 336 -350s-151 -350 -336 -350zM375 583c-120 0 -218 -104 -218 -233s98 -233 218 -233c121 0 219 104 219 233s-98 233 -219 233zM318 725c-21 0 -42 12 -52 32c-4 9 -6 17 -6 26c0 21 12 41 32 52l116 59
c8 4 17 6 26 6c22 0 43 -11 53 -32c4 -8 6 -16 6 -25c0 -22 -12 -44 -32 -54l-117 -58c-8 -4 -17 -6 -26 -6z" />
    <glyph glyph-name="Ograve" unicode="&#xd2;" horiz-adv-x="751" 
d="M376 0c-185 0 -336 157 -336 350s151 350 336 350s335 -157 335 -350s-150 -350 -335 -350zM157 350c0 -129 98 -233 219 -233c120 0 218 104 218 233s-98 233 -218 233c-121 0 -219 -104 -219 -233zM408 731l-117 58c-20 10 -32 32 -32 54c0 9 2 17 6 25
c10 21 31 32 53 32c9 0 18 -2 26 -6l116 -59c20 -11 32 -31 32 -52c0 -9 -2 -17 -6 -26c-10 -20 -31 -32 -52 -32c-9 0 -18 2 -26 6z" />
    <glyph glyph-name="Ocircumflex" unicode="&#xd4;" horiz-adv-x="751" 
d="M376 0c-185 0 -336 157 -336 350s151 350 336 350s335 -157 335 -350s-150 -350 -335 -350zM157 350c0 -129 98 -233 219 -233c120 0 218 104 218 233s-98 233 -218 233c-121 0 -219 -104 -219 -233zM375 900c9 0 18 -2 27 -6l116 -59c20 -11 32 -30 32 -51
c0 -9 -2 -18 -6 -27c-10 -21 -31 -32 -52 -32c-9 0 -18 2 -26 6l-91 45l-90 -45c-9 -4 -17 -6 -26 -6c-21 0 -42 12 -52 32c-4 9 -6 18 -6 27c0 21 12 40 32 51l116 59c9 4 18 6 26 6z" />
    <glyph glyph-name="Odieresis" unicode="&#xd6;" horiz-adv-x="751" 
d="M375 0c-185 0 -335 157 -335 350s150 350 335 350s336 -157 336 -350s-151 -350 -336 -350zM375 583c-120 0 -218 -104 -218 -233s98 -233 218 -233c121 0 219 104 219 233s-98 233 -219 233zM353 842c0 -33 -26 -59 -58 -59c-33 0 -59 26 -59 59c0 32 26 58 59 58
c32 0 58 -26 58 -58zM516 842c0 -33 -26 -59 -58 -59s-58 26 -58 59c0 32 26 58 58 58s58 -26 58 -58z" />
    <glyph glyph-name="Otilde" unicode="&#xd5;" horiz-adv-x="751" 
d="M376 0c-185 0 -336 157 -336 350s151 350 336 350s335 -157 335 -350s-150 -350 -335 -350zM157 350c0 -129 98 -233 219 -233c120 0 218 104 218 233s-98 233 -218 233c-121 0 -219 -104 -219 -233zM419 754c-42 0 -73 29 -95 29c-10 -17 -29 -29 -51 -29
c-32 0 -58 26 -58 58c0 31 24 88 117 88c42 0 70 -29 95 -29c10 17 29 29 51 29c32 0 58 -26 58 -58c0 -63 -51 -88 -117 -88z" />
    <glyph glyph-name="Icircumflex" unicode="&#xce;" horiz-adv-x="320" 
d="M160 900c9 0 18 -2 26 -6l117 -59c20 -10 32 -31 32 -53c0 -9 -2 -17 -6 -25c-11 -21 -31 -32 -52 -32c-9 0 -18 2 -26 6l-91 45l-91 -45c-8 -4 -17 -6 -26 -6c-21 0 -42 11 -52 32c-4 9 -6 17 -6 26c0 21 10 39 32 52l117 59c8 4 17 6 26 6zM160 0c-32 0 -58 26 -58 58
v584c0 32 26 58 58 58s58 -26 58 -58v-584c0 -32 -26 -58 -58 -58z" />
    <glyph glyph-name="Idieresis" unicode="&#xcf;" horiz-adv-x="250" 
d="M102 842c0 -33 -26 -59 -59 -59c-32 0 -58 26 -58 59c0 32 26 58 58 58c33 0 59 -26 59 -58zM265 842c0 -33 -26 -59 -58 -59c-33 0 -59 26 -59 59c0 32 26 58 59 58c32 0 58 -26 58 -58zM125 0c-32 0 -58 26 -58 58v584c0 32 26 58 58 58s58 -26 58 -58v-584
c0 -32 -26 -58 -58 -58z" />
    <glyph glyph-name="Iacute" unicode="&#xcd;" horiz-adv-x="203" 
d="M43 725c-21 0 -42 12 -52 32c-4 8 -6 17 -6 26c0 21 11 41 32 52l117 59c8 4 16 6 25 6c22 0 43 -12 53 -32c4 -9 6 -18 6 -27c0 -21 -11 -41 -32 -52l-117 -58c-8 -4 -17 -6 -26 -6zM102 0c-33 0 -59 26 -59 58v584c0 32 26 58 59 58c32 0 58 -26 58 -58v-584
c0 -32 -26 -58 -58 -58z" />
    <glyph glyph-name="Igrave" unicode="&#xcc;" horiz-adv-x="203" 
d="M160 725c-9 0 -18 2 -26 6l-117 58c-21 10 -32 31 -32 53c0 9 2 18 6 26c10 21 31 32 52 32c9 0 18 -2 26 -6l117 -59c20 -10 32 -30 32 -51c0 -9 -2 -18 -6 -27c-10 -20 -31 -32 -52 -32zM102 0c-33 0 -59 26 -59 58v584c0 32 26 58 59 58c32 0 58 -26 58 -58v-584
c0 -32 -26 -58 -58 -58z" />
    <glyph glyph-name="H.alt1.001" horiz-adv-x="573" 
d="M475 700c32 0 58 -26 58 -58v-584c0 -32 -26 -58 -58 -58s-58 26 -58 58v241l-92 -81c-11 -9 -25 -14 -39 -14c-8 0 -16 2 -24 5c-21 10 -34 31 -34 53v25l-58 -64l-13 -11v-154c0 -32 -26 -58 -59 -58c-32 0 -58 26 -58 58v584c0 32 26 58 58 58c33 0 59 -26 59 -58
v-260l86 95c11 12 27 19 43 19c7 0 14 -1 21 -4c23 -9 38 -30 38 -55v-46l64 55c2 3 5 5 8 6v190c0 32 26 58 58 58z" />
    <glyph glyph-name="A.alt1.001" horiz-adv-x="664" 
d="M536 289l84 -209c14 -36 -10 -80 -54 -80c-23 0 -45 14 -54 37l-56 138l-76 -108c-11 -16 -28 -25 -47 -25s-37 9 -48 25l-76 108l-56 -138c-12 -30 -45 -45 -75 -33s-45 46 -33 76l84 209l-19 28c-30 43 10 105 65 89l103 257c9 22 31 37 55 37c23 0 45 -15 54 -37
l103 -257c57 16 93 -47 65 -89zM261 305l72 -103l72 103l-72 180z" />
    <glyph glyph-name="G.alt1.001" horiz-adv-x="751" 
d="M581 292l122 -204c5 -9 8 -19 8 -29c0 -29 -23 -59 -58 -59c-20 0 -41 10 -51 28l-18 31c-58 -39 -126 -59 -194 -59c-182 0 -350 151 -350 350s166 350 350 350c90 0 180 -34 247 -102c11 -11 17 -28 17 -42c0 -32 -27 -58 -58 -58c-16 0 -29 5 -41 17
c-45 45 -106 68 -165 68c-128 0 -233 -108 -233 -233c0 -127 106 -233 233 -233c47 0 94 14 134 42l-97 161c-5 9 -8 20 -8 30c0 32 26 58 58 58h175c33 0 59 -26 59 -58s-26 -58 -59 -58h-71z" />
    <glyph glyph-name="Q.alt1" horiz-adv-x="692" 
d="M652 350c0 -170 -107 -313 -248 -344v-61c0 -32 -26 -58 -58 -58c-33 0 -59 26 -59 58v62c-141 31 -247 173 -247 343c0 193 137 350 306 350s306 -157 306 -350zM404 179v-51c76 30 132 118 132 222c0 129 -85 233 -190 233c-104 0 -189 -104 -189 -233
c0 -103 54 -191 130 -222v51c0 32 26 58 59 58c32 0 58 -26 58 -58z" />
    <glyph glyph-name="R.alt1" horiz-adv-x="518" 
d="M315 239l145 -144c12 -12 17 -27 17 -42s-5 -30 -16 -41c-12 -11 -27 -17 -42 -17c-14 0 -29 6 -41 17l-221 216v-175c0 -32 -26 -58 -58 -58c-33 0 -59 26 -59 58v584c0 32 26 58 59 58h145c6 0 59 -1 114 -28c77 -39 120 -112 120 -205c0 -94 -43 -167 -120 -206
c-15 -7 -30 -13 -43 -17zM157 578v-233h87c2 0 34 1 64 17c36 19 53 51 53 100s-17 80 -53 99c-30 16 -62 17 -64 17h-87z" />
    <glyph glyph-name="V.alt1" horiz-adv-x="663" 
d="M332 0c-24 0 -46 15 -55 37l-233 583c-3 7 -4 14 -4 21c0 23 14 46 37 55c7 3 14 4 21 4c23 0 45 -14 54 -37l180 -448l147 368h-31c-32 0 -58 26 -58 58c0 33 26 59 58 59h117c19 0 37 -10 48 -26c7 -10 10 -21 10 -32c0 -7 -1 -15 -4 -22l-233 -583
c-9 -22 -31 -37 -54 -37z" />
    <glyph glyph-name="x.alt7" 
d="M98 0c-10 0 -20 2 -29 8c-19 11 -29 30 -29 50c0 10 3 20 8 29l116 204c11 19 30 30 51 30h117c21 0 40 -10 50 -30l117 -204c5 -9 8 -19 8 -29c0 -20 -11 -39 -30 -50c-9 -5 -19 -8 -29 -8c-20 0 -39 10 -50 29l-100 175h-49l-100 -175c-11 -19 -31 -29 -51 -29z
M312 408h-107c-20 0 -39 11 -50 28l-106 175c-6 10 -9 20 -9 31c0 20 10 39 28 49c10 6 20 9 31 9c19 0 38 -10 49 -28l90 -147h41l90 147c11 18 30 28 50 28c11 0 21 -3 31 -9c18 -10 28 -29 28 -49c0 -10 -3 -21 -9 -31l-107 -175c-11 -17 -30 -28 -50 -28z" />
    <glyph glyph-name="oe" unicode="&#x153;" horiz-adv-x="848" 
d="M808 244c0 -32 -26 -59 -58 -59h-227c10 -32 32 -66 83 -68h6c15 0 43 0 68 18c10 6 21 9 32 9c19 0 38 -9 49 -26c7 -9 10 -20 10 -31c0 -19 -10 -39 -27 -50c-48 -32 -98 -37 -126 -37c-8 0 -14 0 -18 1c-61 3 -114 29 -150 74l-3 3c-42 -48 -105 -78 -174 -78
c-128 0 -233 105 -233 233c0 129 105 234 233 234c70 0 134 -31 177 -81c37 50 93 81 154 81c56 0 108 -23 146 -66c38 -41 58 -97 58 -157zM273 117c65 0 117 52 117 116c0 65 -52 117 -117 117c-64 0 -116 -52 -116 -117c0 -64 52 -116 116 -116zM534 302h145
c-15 30 -42 49 -75 49c-28 0 -54 -20 -70 -49z" />
    <glyph glyph-name="summation" unicode="&#x2211;" 
d="M448 0h-350c-22 0 -42 12 -52 32c-4 8 -6 17 -6 26c0 12 4 24 11 34l185 258l-185 258c-7 10 -11 22 -11 34c0 9 2 18 6 26c10 20 30 32 52 32h350c33 0 59 -26 59 -58c0 -33 -26 -59 -59 -59h-236l144 -199c7 -10 10 -22 10 -34s-3 -25 -10 -34l-144 -199h236
c33 0 59 -26 59 -59c0 -32 -26 -58 -59 -58z" />
    <glyph glyph-name="Ydieresis" unicode="&#x178;" horiz-adv-x="605" 
d="M540 689c16 -11 25 -29 25 -47c0 -12 -4 -24 -11 -34l-193 -276v-274c0 -32 -26 -58 -59 -58c-32 0 -58 26 -58 58v274l-193 276c-7 9 -11 19 -11 31c0 30 22 61 58 61c19 0 37 -9 48 -25l156 -223l157 223c11 16 29 25 48 25c11 0 23 -4 33 -11zM279 842
c0 -33 -26 -59 -58 -59c-33 0 -59 26 -59 59c0 32 26 58 59 58c32 0 58 -26 58 -58zM442 842c0 -33 -26 -59 -58 -59s-58 26 -58 59c0 32 26 58 58 58s58 -26 58 -58z" />
    <glyph glyph-name="ydieresis" unicode="&#xff;" horiz-adv-x="529" 
d="M242 599c0 -33 -26 -59 -58 -59c-33 0 -59 26 -59 59c0 32 26 58 59 58c32 0 58 -26 58 -58zM405 599c0 -33 -26 -59 -58 -59s-58 26 -58 59c0 32 26 58 58 58s58 -26 58 -58zM483 383l-166 -350l-7 -11l-100 -221c-10 -22 -31 -34 -53 -34c-8 0 -17 1 -25 5
c-21 9 -33 31 -33 53c0 8 1 16 5 24l95 211l-153 323c-4 8 -6 16 -6 25c0 22 12 43 33 53c8 4 17 6 25 6c22 0 43 -13 53 -34l114 -239l113 239c10 21 31 34 53 34c8 0 17 -2 25 -6c21 -10 33 -31 33 -53c0 -9 -2 -17 -6 -25z" />
    <glyph glyph-name="Eth" unicode="&#xd0;" horiz-adv-x="722" 
d="M535 655c67 -41 147 -127 147 -305s-80 -264 -147 -305c-72 -44 -142 -45 -150 -45h-170c-32 0 -58 26 -58 58v234h-59c-32 0 -58 26 -58 58s26 58 58 58h59v234c0 32 26 58 58 58h170c8 0 78 -1 150 -45zM477 147c58 37 88 106 88 203c0 99 -31 168 -91 205
c-44 27 -88 28 -89 28h-112v-175h59c32 0 58 -26 58 -58s-26 -58 -58 -58h-59v-175h112c2 0 48 1 92 30z" />
    <glyph glyph-name="Delta" unicode="&#x2206;" horiz-adv-x="576" 
d="M477 0h-379c-33 0 -58 27 -58 58c0 6 1 12 3 18l189 584c8 24 31 40 56 40s47 -16 55 -40l190 -584c2 -6 3 -12 3 -18c0 -31 -25 -58 -59 -58zM288 453l-109 -336h218z" />
    <glyph glyph-name="yen" unicode="&#xa5;" horiz-adv-x="605" 
d="M540 689c16 -11 25 -29 25 -47c0 -12 -4 -24 -11 -34l-160 -229h54c33 0 59 -26 59 -58c0 -33 -26 -59 -59 -59h-87v-29h87c33 0 59 -26 59 -58s-26 -58 -59 -58h-87v-59c0 -32 -26 -58 -59 -58c-32 0 -58 26 -58 58v59h-87c-33 0 -59 26 -59 58s26 58 59 58h87v29h-87
c-33 0 -59 26 -59 59c0 32 26 58 59 58h54l-160 229c-7 11 -11 22 -11 34c0 18 9 35 25 47c10 7 21 10 33 10c18 0 37 -8 48 -24l156 -223l157 223c11 16 30 25 48 25c12 0 23 -4 33 -11z" />
    <glyph glyph-name="t.alt1" horiz-adv-x="310" 
d="M212 467c32 0 58 -26 58 -59c0 -32 -26 -58 -58 -58h-55v-292c0 -32 -27 -58 -59 -58s-58 26 -58 58v584c0 32 26 58 58 58s59 -26 59 -58v-175h55z" />
    <glyph glyph-name="ampersand.alt1" horiz-adv-x="654" 
d="M608 84c4 -8 6 -17 6 -25c0 -21 -12 -42 -33 -53c-8 -4 -17 -6 -26 -6c-21 0 -42 12 -52 32l-36 72c-41 -63 -113 -104 -194 -104c-128 0 -233 105 -233 233c0 129 105 234 233 234c5 0 9 0 13 -1l-74 150c-4 8 -6 17 -6 26c0 10 3 21 8 30c11 18 30 28 50 28h204
c32 0 58 -26 58 -58c0 -33 -26 -59 -58 -59h-110l113 -226c8 -13 15 -26 20 -40zM390 233c0 13 -2 26 -6 38l-14 28c-21 31 -57 51 -97 51c-64 0 -116 -52 -116 -117c0 -64 52 -116 116 -116c65 0 117 52 117 116z" />
    <glyph glyph-name="w.alt7.001" horiz-adv-x="945" 
d="M76 695c7 3 15 5 23 5c23 0 44 -14 53 -36l189 -454l68 162s0 1 -103 247c-3 7 -4 15 -4 22c0 23 13 45 36 55c7 3 15 4 22 4c23 0 45 -13 54 -36l189 -454l190 454c9 22 30 36 53 36c8 0 15 -2 23 -5c23 -9 36 -31 36 -54c0 -7 -1 -15 -4 -22l-244 -583
c-9 -22 -30 -36 -54 -36c-23 0 -44 14 -53 36l-78 185l-77 -185c-9 -22 -30 -36 -54 -36c-23 0 -44 14 -53 36l-244 583c-3 7 -4 15 -4 22c0 23 13 45 36 54z" />
    <glyph glyph-name="product" unicode="&#x220f;" horiz-adv-x="635" 
d="M536 0c-32 0 -58 26 -58 58v525h-321v-525c0 -32 -26 -58 -59 -58c-32 0 -58 26 -58 58v584c0 32 26 58 59 58h437c32 0 59 -26 59 -58v-584c0 -32 -26 -58 -59 -58z" />
    <glyph glyph-name="e.alt7" 
d="M181 117h267c33 0 59 -26 59 -59c0 -32 -26 -58 -59 -58h-350c-32 0 -58 26 -58 58v584c0 15 6 30 17 41s26 17 41 17h350c33 0 59 -26 59 -58c0 -33 -27 -59 -59 -59h-267l192 -192c11 -12 17 -26 17 -41s-6 -30 -17 -41zM157 257l92 93l-92 92v-185z" />
    <glyph glyph-name="T" unicode="T" 
d="M98 700h350c32 0 59 -26 59 -58c0 -33 -27 -59 -59 -59h-116v-525c0 -32 -27 -58 -59 -58s-58 26 -58 58v525h-117c-32 0 -58 26 -58 59c0 32 26 58 58 58z" />
    <glyph glyph-name="X" unicode="X" horiz-adv-x="605" 
d="M374 350l180 -258c7 -11 11 -22 11 -34c0 -30 -27 -58 -58 -58c-19 0 -37 9 -48 25l-157 223l-156 -223c-11 -16 -29 -25 -48 -25c-32 0 -58 28 -58 58c0 11 3 23 11 34l180 258l-180 258c-7 9 -11 19 -11 31c0 30 22 61 58 61c19 0 37 -9 48 -25l156 -223l157 223
c11 16 29 25 48 25c32 0 58 -28 58 -58c0 -12 -4 -24 -11 -34z" />
    <glyph glyph-name="I" unicode="I" horiz-adv-x="196" 
d="M98 0c-32 0 -58 26 -58 58v584c0 32 26 58 58 58s58 -26 58 -58v-584c0 -32 -26 -58 -58 -58z" />
    <glyph glyph-name="L" unicode="L" horiz-adv-x="460" 
d="M361 0h-262c-33 0 -59 26 -59 58v584c0 32 26 58 59 58c32 0 58 -26 58 -58v-525h204c32 0 59 -26 59 -59c0 -32 -27 -58 -59 -58z" />
    <glyph glyph-name="m.alt4" horiz-adv-x="722" 
d="M642 697c24 -8 40 -30 40 -55v-584c0 -32 -27 -58 -59 -58s-58 26 -58 58v409l-146 -195v-214c0 -32 -26 -58 -58 -58s-59 26 -59 58v214l-145 195v-409c0 -32 -26 -58 -59 -58c-32 0 -58 26 -58 58v584c0 25 16 47 40 55c6 2 13 3 19 3c18 0 35 -8 46 -23l216 -288
l216 288c11 15 28 23 46 23c6 0 13 -1 19 -3z" />
    <glyph glyph-name="five" unicode="5" 
d="M273 467c129 0 234 -105 234 -234c0 -128 -105 -233 -234 -233c-128 0 -233 105 -233 233c0 33 26 59 58 59c33 0 59 -26 59 -59c0 -64 52 -116 116 -116c65 0 117 52 117 116c0 63 -49 113 -110 117l-109 -27c-5 -1 -10 -2 -15 -2c-37 0 -57 30 -57 65l29 262
c3 30 28 52 58 52h175c32 0 58 -26 58 -58c0 -33 -26 -59 -58 -59h-123l-14 -127l35 9c5 1 10 2 14 2z" />
    <glyph glyph-name="apple" unicode="&#xf8ff;" horiz-adv-x="854" 
d="M731 614l2 -3c61 -90 81 -176 81 -248c0 -38 -6 -73 -13 -102c-26 -102 -110 -261 -238 -261c-58 0 -105 32 -136 62c-32 -30 -79 -62 -137 -62c-123 0 -210 150 -237 261c-7 29 -13 64 -13 103c0 72 19 158 81 247c0 1 1 2 2 3c6 8 65 80 160 86c35 0 62 -5 89 -16
c0 6 -1 14 -1 21c0 44 10 107 60 146c10 8 23 12 35 12c17 0 35 -7 46 -22c8 -10 12 -23 12 -35c0 -17 -7 -34 -22 -46c-11 -9 -16 -36 -16 -59c0 -5 1 -10 1 -15c23 9 46 13 84 13c94 -5 154 -77 160 -85zM563 116c71 0 135 130 135 246c0 54 -15 116 -59 181
c-19 28 -45 39 -72 39c-33 0 -68 -17 -94 -44c-12 -12 -28 -18 -46 -18h-4c-16 0 -31 6 -42 18c-27 27 -59 44 -91 44c-27 0 -53 -12 -76 -39c-44 -65 -59 -127 -59 -181c0 -124 68 -246 135 -246c33 0 71 41 84 60c11 16 29 26 48 26h10c18 0 37 -9 48 -26
c13 -19 51 -60 83 -60z" />
    <glyph glyph-name="one" unicode="1" horiz-adv-x="254" 
d="M156 0c-32 0 -58 26 -58 58v525c-32 0 -58 26 -58 59c0 32 26 58 58 58h59c32 0 57 -26 57 -58v-584c0 -32 -26 -58 -58 -58z" />
    <glyph glyph-name="seven.001" horiz-adv-x="488" 
d="M440 672c5 -9 8 -20 8 -30c0 -9 -2 -18 -6 -26l-292 -584c-10 -20 -30 -32 -52 -32c-35 0 -58 29 -58 59c0 8 2 17 6 26l250 498h-139v-58c0 -32 -27 -58 -59 -58s-58 26 -58 58v117c0 32 26 58 58 58h292c20 0 39 -10 50 -28z" />
    <glyph glyph-name="M" unicode="M" horiz-adv-x="722" 
d="M623 0c-32 0 -58 26 -58 58v409l-157 -210c-11 -15 -29 -24 -47 -24s-36 9 -47 24l-157 210v-409c0 -32 -26 -58 -59 -58c-32 0 -58 26 -58 58v584c0 31 25 58 59 58c18 0 35 -8 46 -23l216 -288l216 288c11 15 28 23 46 23c34 0 59 -27 59 -58v-584
c0 -32 -26 -58 -59 -58z" />
    <glyph glyph-name="e.alt3" 
d="M448 0h-350c-32 0 -58 26 -58 58v584c0 15 6 30 17 41s26 17 41 17h350c33 0 59 -26 59 -58c0 -33 -27 -59 -59 -59h-291v-466h291c33 0 59 -26 59 -59c0 -32 -26 -58 -59 -58zM361 350c0 -32 -26 -58 -59 -58c-32 0 -58 26 -58 58s26 58 58 58c33 0 59 -26 59 -58z" />
    <glyph glyph-name="E" unicode="E" horiz-adv-x="518" 
d="M419 117c33 0 59 -26 59 -59c0 -32 -26 -58 -59 -58h-320c-33 0 -59 26 -59 58v584c0 32 26 58 59 58h320c33 0 59 -26 59 -58c0 -33 -26 -59 -59 -59h-262v-175h204c32 0 58 -26 58 -58s-26 -58 -58 -58h-204v-175h262z" />
    <glyph glyph-name="F" unicode="F" 
d="M98 700h350c32 0 59 -26 59 -58c0 -33 -27 -59 -59 -59h-291v-175h233c32 0 58 -26 58 -58s-26 -58 -58 -58h-233v-234c0 -32 -27 -58 -59 -58s-58 26 -58 58v584c0 32 26 58 58 58z" />
    <glyph glyph-name="O.002" horiz-adv-x="751" 
d="M376 700c32 0 58 -26 58 -58c0 -33 -26 -59 -58 -59c-121 0 -219 -104 -219 -233s98 -233 219 -233c120 0 218 104 218 233c0 32 27 58 59 58s58 -26 58 -58c0 -193 -150 -350 -335 -350s-336 157 -336 350s151 350 336 350z" />
    <glyph glyph-name="zero.001" horiz-adv-x="725" 
d="M618 616c44 -53 67 -125 67 -208v-116c0 -83 -22 -155 -64 -208c-43 -54 -103 -84 -169 -84c-32 0 -62 7 -90 20c-27 -13 -57 -20 -89 -20c-66 0 -126 30 -169 84c-42 53 -64 125 -64 208v116c0 83 23 155 66 208s104 84 167 84c31 0 61 -7 89 -21c28 14 59 21 90 21
c63 0 123 -31 166 -84zM335 408v-116c0 -47 10 -88 27 -119c18 31 28 72 28 119v116c0 41 -9 83 -28 115c-18 -32 -27 -74 -27 -115zM195 156c18 -22 40 -35 65 -38c-28 48 -42 107 -42 174v116c0 66 15 126 43 175c-68 -9 -104 -94 -104 -175v-116c0 -56 13 -104 38 -136z
M568 292v116c0 81 -36 166 -105 175c29 -49 44 -109 44 -175v-116c0 -67 -15 -126 -42 -174c25 3 47 16 64 38c25 32 39 80 39 136z" />
    <glyph glyph-name="H" unicode="H" horiz-adv-x="576" 
d="M477 700c33 0 59 -26 59 -58v-584c0 -32 -26 -58 -59 -58c-32 0 -58 26 -58 58v234h-262v-234c0 -32 -27 -58 -59 -58s-58 26 -58 58v584c0 32 26 58 58 58s59 -26 59 -58v-234h262v234c0 32 26 58 58 58z" />
    <glyph glyph-name="Z.002" horiz-adv-x="486" 
d="M388 0l-291 3c-20 0 -38 11 -49 28c-5 9 -8 20 -8 30c0 9 2 18 6 26l248 497h-138v-58c0 -32 -26 -58 -58 -58s-58 26 -58 58v116c0 32 26 58 58 58h290c20 0 39 -10 50 -28c5 -9 8 -20 8 -30c0 -9 -2 -18 -6 -26l-249 -498h139v56c0 32 26 58 58 58s58 -26 58 -58v-116
c0 -15 -6 -30 -17 -41s-26 -17 -41 -17z" />
    <glyph glyph-name="A.alt3.002" horiz-adv-x="604" 
d="M98 700c32 0 58 -26 58 -58v-399l302 432c12 16 30 25 48 25c11 0 23 -4 33 -11c17 -11 25 -29 25 -47c0 -11 -3 -24 -10 -34l-409 -583c-11 -16 -28 -25 -47 -25c-6 0 -12 1 -18 3c-24 7 -40 30 -40 55v584c0 32 26 58 58 58z" />
    <glyph glyph-name="U.001" horiz-adv-x="575" 
d="M288 0c-100 0 -178 48 -219 136c-28 61 -29 120 -29 127v379c0 32 26 58 58 58s58 -26 58 -58v-379c0 -15 12 -146 132 -146c114 0 131 123 131 146v379c0 32 26 58 58 58s58 -26 58 -58v-379c0 -7 0 -66 -28 -127c-41 -88 -119 -136 -219 -136z" />
    <glyph glyph-name="D" unicode="D" horiz-adv-x="605" 
d="M268 0h-170c-32 0 -58 26 -58 58v584c0 32 26 58 58 58h170c4 0 297 1 297 -350s-293 -350 -297 -350zM157 583v-466h111c3 0 48 1 93 30c58 37 87 106 87 203c0 99 -30 168 -91 205c-44 27 -88 28 -89 28h-111z" />
    <glyph glyph-name="D.alt1.001" horiz-adv-x="605" 
d="M268 0h-170c-32 0 -58 26 -58 58v292c0 32 26 58 58 58h346c-10 69 -39 118 -87 147c-44 27 -88 28 -89 28h-170c-32 0 -58 26 -58 59c0 32 26 58 58 58h170c8 0 78 -1 150 -45c67 -41 147 -127 147 -305s-80 -264 -147 -305c-72 -44 -142 -45 -150 -45zM157 292v-175
h111c3 0 49 1 93 30c45 29 73 78 83 145h-287z" />
    <glyph glyph-name="parenright" unicode=")" horiz-adv-x="284" 
d="M98 0c-11 0 -23 3 -33 11c-16 11 -25 29 -25 47c0 12 4 24 11 34c0 18 77 122 77 258c0 145 -77 257 -78 258c-7 10 -10 23 -10 34c0 18 8 36 25 47c10 7 21 11 33 11c18 0 37 -9 48 -25c4 -6 98 -142 98 -325s-94 -319 -98 -325c-11 -16 -29 -25 -48 -25z" />
    <glyph glyph-name="parenleft" unicode="(" horiz-adv-x="284" 
d="M186 700c11 0 23 -3 33 -11c17 -11 25 -29 25 -47c0 -11 -3 -24 -10 -34c-1 -1 -77 -113 -77 -258s76 -257 77 -258c7 -10 10 -23 10 -34c0 -18 -8 -36 -25 -47c-10 -7 -21 -11 -33 -11c-18 0 -37 9 -48 25c-4 6 -98 142 -98 325s94 319 98 325c11 16 29 25 48 25z" />
    <glyph glyph-name="bar" unicode="|" horiz-adv-x="196" 
d="M98 -59c-32 0 -58 26 -58 58v751c0 32 26 58 58 58s58 -26 58 -58v-751c0 -32 -26 -58 -58 -58z" />
    <glyph glyph-name="plusminus" unicode="&#xb1;" horiz-adv-x="488" 
d="M390 117c32 0 58 -26 58 -59c0 -32 -26 -58 -58 -58h-292c-32 0 -58 26 -58 58c0 33 26 59 58 59h292zM98 292c-32 0 -58 26 -58 58s26 58 58 58h88v88c0 32 26 58 58 58s58 -26 58 -58v-88h88c32 0 58 -26 58 -58s-26 -58 -58 -58h-88v-88c0 -32 -26 -58 -58 -58
s-58 26 -58 58v88h-88z" />
    <glyph glyph-name="notequal.001" horiz-adv-x="488" 
d="M276 163l-146 146c-12 11 -17 26 -17 41s5 30 17 41l146 146c11 11 26 17 41 17s29 -6 41 -17c11 -11 17 -26 17 -41s-6 -29 -17 -41l-104 -105l104 -104c11 -12 17 -27 17 -42s-6 -30 -17 -41s-26 -17 -41 -17s-30 6 -41 17zM390 117c32 0 58 -26 58 -59
c0 -32 -26 -58 -58 -58h-292c-32 0 -58 26 -58 58c0 33 26 59 58 59h292z" />
    <glyph glyph-name="lozenge" unicode="&#x25ca;" horiz-adv-x="664" 
d="M377 678l234 -292c8 -11 13 -23 13 -36s-5 -26 -13 -36l-234 -292c-11 -14 -28 -22 -45 -22c-18 0 -35 8 -46 22l-233 292c-9 10 -13 23 -13 36s4 25 13 36l233 292c11 14 28 22 46 22c17 0 34 -8 45 -22zM332 152l158 198l-158 198l-159 -198z" />
    <glyph glyph-name="bracketright" unicode="]" horiz-adv-x="314" 
d="M215 0h-117c-32 0 -58 26 -58 58c0 33 26 59 58 59h59v466h-59c-32 0 -58 26 -58 58c0 33 26 59 58 59h117c32 0 59 -26 59 -58v-584c0 -32 -27 -58 -59 -58z" />
    <glyph glyph-name="bracketleft" unicode="[" horiz-adv-x="314" 
d="M99 700h117c32 0 58 -26 58 -59c0 -32 -26 -58 -58 -58h-59v-466h59c32 0 58 -26 58 -59c0 -32 -26 -58 -58 -58h-117c-32 0 -59 26 -59 58v584c0 32 27 58 59 58z" />
    <glyph glyph-name="braceleft" unicode="{" horiz-adv-x="401" 
d="M273 117h29c33 0 59 -26 59 -59c0 -32 -26 -58 -59 -58h-58c-15 0 -30 6 -41 17c-4 4 -22 23 -40 59c-23 46 -36 101 -36 157c0 12 -28 46 -61 69l-16 16c-7 10 -10 21 -10 32c0 19 9 38 26 49c0 0 19 12 36 30c21 21 25 35 25 38c0 56 13 111 36 157c18 36 36 55 40 59
c11 11 26 17 41 17h58c33 0 59 -26 59 -58c0 -33 -26 -59 -59 -59h-29c-12 -20 -29 -59 -29 -116c0 -46 -27 -87 -56 -117c29 -30 56 -71 56 -117c0 -57 17 -96 29 -116z" />
    <glyph glyph-name="braceright" unicode="}" horiz-adv-x="401" 
d="M127 583h-29c-32 0 -58 26 -58 59c0 32 26 58 58 58h59c15 0 30 -6 41 -17c3 -4 22 -23 40 -59c23 -46 35 -101 35 -157c0 -12 29 -46 62 -69l16 -16c7 -10 10 -21 10 -32c0 -19 -9 -38 -26 -49c-1 0 -19 -12 -36 -30c-21 -21 -26 -35 -26 -38c0 -56 -12 -111 -35 -157
c-18 -36 -37 -55 -40 -59c-11 -11 -26 -17 -41 -17h-59c-32 0 -58 26 -58 58c0 33 26 59 58 59h29c13 20 30 59 30 116c0 46 27 87 56 117c-29 30 -56 71 -56 117c0 57 -17 96 -30 116z" />
    <glyph glyph-name="asciitilde" unicode="~" horiz-adv-x="401" 
d="M244 554c-42 0 -73 29 -95 29c-10 -17 -29 -29 -51 -29c-32 0 -58 26 -58 58c0 31 24 88 117 88c42 0 70 -29 95 -29c10 17 29 29 51 29c32 0 58 -26 58 -58c0 -63 -51 -88 -117 -88z" />
    <glyph glyph-name="circumflex" unicode="&#x2c6;" horiz-adv-x="429" 
d="M214 900c9 0 18 -2 27 -6l116 -59c20 -11 32 -30 32 -51c0 -9 -2 -18 -6 -27c-10 -21 -31 -32 -52 -32c-9 0 -18 2 -26 6l-91 45l-90 -45c-9 -4 -17 -6 -26 -6c-21 0 -42 12 -52 32c-4 9 -6 18 -6 27c0 21 12 40 32 51l116 59c9 4 18 6 26 6z" />
    <glyph glyph-name="tilde" unicode="&#x2dc;" horiz-adv-x="401" 
d="M244 754c-42 0 -73 29 -95 29c-10 -17 -29 -29 -51 -29c-32 0 -58 26 -58 58c0 31 24 88 117 88c42 0 70 -29 95 -29c10 17 29 29 51 29c32 0 58 -26 58 -58c0 -63 -51 -88 -117 -88z" />
    <glyph glyph-name="equal" unicode="=" horiz-adv-x="576" 
d="M98 292h379c33 0 59 -26 59 -59c0 -32 -26 -58 -59 -58h-379c-32 0 -58 26 -58 58c0 33 26 59 58 59zM477 408h-379c-32 0 -58 26 -58 59c0 32 26 58 58 58h379c33 0 59 -26 59 -58c0 -33 -26 -59 -59 -59z" />
    <glyph glyph-name="plus" unicode="+" 
d="M332 408h116c32 0 59 -26 59 -58s-27 -58 -59 -58h-116v-117c0 -32 -27 -58 -59 -58s-58 26 -58 58v117h-117c-32 0 -58 26 -58 58s26 58 58 58h117v117c0 32 26 58 58 58s59 -26 59 -58v-117z" />
    <glyph glyph-name="hyphen" unicode="-" horiz-adv-x="576" 
d="M98 408h379c33 0 59 -26 59 -58s-26 -58 -59 -58h-379c-32 0 -58 26 -58 58s26 58 58 58z" />
    <glyph glyph-name="six" unicode="6" 
d="M273 0c-128 0 -233 105 -233 233c0 37 7 72 23 102l178 334c11 20 31 31 52 31c34 0 58 -29 58 -58c0 -10 -2 -19 -7 -28l-79 -148c3 1 6 1 8 1c129 0 234 -105 234 -234c0 -128 -105 -233 -234 -233zM273 350c-64 0 -116 -52 -116 -117c0 -64 52 -116 116 -116
c65 0 117 52 117 116c0 65 -52 117 -117 117z" />
    <glyph glyph-name="nine" unicode="9" 
d="M273 700c129 0 234 -105 234 -233c0 -37 -9 -71 -23 -102l-179 -334c-11 -20 -30 -31 -51 -31c-35 0 -59 28 -59 58c0 10 2 19 7 28l79 148c-2 -1 -5 -1 -8 -1c-128 0 -233 105 -233 234c0 128 105 233 233 233zM273 350c65 0 117 52 117 117c0 64 -52 116 -117 116
c-64 0 -116 -52 -116 -116c0 -65 52 -117 116 -117z" />
    <glyph glyph-name="germandbls" unicode="&#xdf;" 
d="M417 400c58 -38 90 -102 90 -181c0 -150 -108 -211 -200 -218c-1 -1 -3 -1 -4 -1h-59c-32 0 -58 26 -58 58s26 59 58 59h56c9 1 33 5 54 19c9 6 36 24 36 83c0 27 -4 65 -43 87c-24 14 -50 15 -52 15h-51c-32 0 -58 26 -58 58s26 59 58 59h14c1 0 23 0 43 11
c14 8 31 22 31 61c0 40 -17 54 -31 62c-20 11 -43 11 -42 12c-3 0 -6 -1 -8 -1h-94v-525c0 -32 -27 -58 -59 -58s-58 26 -58 58v584c0 32 26 58 58 58h161c4 0 48 -1 91 -23c63 -31 98 -90 98 -167c0 -42 -11 -80 -31 -110z" />
    <glyph glyph-name="w.alt1" horiz-adv-x="693" 
d="M619 461c21 -10 34 -31 34 -53c0 -8 -2 -17 -6 -25l-165 -350c-10 -20 -31 -33 -53 -33c-23 0 -43 13 -53 33l-30 64l-30 -64c-9 -20 -30 -33 -52 -33c-23 0 -44 13 -53 33l-165 350c-4 8 -6 17 -6 26c0 22 12 42 33 52c8 4 17 6 25 6c22 0 43 -13 53 -34l113 -238l18 38
l-71 150c-4 8 -6 17 -6 25c0 22 13 43 34 53c8 4 17 6 25 6c22 0 42 -13 52 -34l30 -63l30 63c10 21 31 34 53 34c8 0 17 -2 25 -6c21 -10 34 -31 34 -53c0 -8 -2 -17 -6 -25l-71 -150l18 -38l112 238c10 21 31 34 53 34c8 0 17 -2 25 -6z" />
    <glyph glyph-name="W" unicode="W" horiz-adv-x="945" 
d="M869 695c23 -9 36 -31 36 -54c0 -7 -1 -15 -4 -22l-244 -583c-9 -22 -30 -36 -53 -36c-24 0 -45 14 -54 36l-77 185l-78 -185c-9 -22 -30 -36 -53 -36c-24 0 -45 14 -54 36l-244 583c-3 7 -4 15 -4 22c0 30 24 59 59 59c23 0 44 -14 53 -36l190 -454l67 163l-102 246
c-3 7 -5 15 -5 23c0 30 24 58 59 58c28 0 44 -14 53 -36l59 -140l58 140c9 22 30 36 53 36c35 0 59 -29 59 -59c0 -7 -1 -15 -4 -22l-103 -246l68 -163l189 454c9 22 30 36 53 36c8 0 16 -2 23 -5z" />
    <glyph glyph-name="Aring" unicode="&#xc5;" horiz-adv-x="663" 
d="M409 605l210 -525c3 -7 4 -15 4 -22c0 -30 -23 -58 -58 -58c-23 0 -45 14 -54 37l-44 109h-271l-44 -109c-9 -23 -31 -37 -54 -37c-34 0 -58 29 -58 58c0 8 1 15 4 22l210 525c-58 29 -98 88 -98 157c0 96 79 175 175 175c97 0 175 -79 175 -175c0 -69 -39 -128 -97 -157
zM331 820c-32 0 -58 -26 -58 -58s26 -59 58 -59c33 0 59 27 59 59s-26 58 -59 58zM243 262h89h88l-88 223z" />
    <glyph glyph-name="d" unicode="d" 
d="M40 233c0 129 105 234 233 234c43 0 83 -12 117 -32v207c0 32 26 58 58 58c33 0 59 -26 59 -58v-584c0 -32 -26 -58 -59 -58c-23 0 -44 14 -53 34c-35 -21 -77 -34 -122 -34c-128 0 -233 105 -233 233zM157 233c0 -64 52 -116 116 -116c65 0 117 52 117 116
c0 65 -52 117 -117 117c-64 0 -116 -52 -116 -117z" />
    <glyph glyph-name="e.001" 
d="M448 117c33 0 59 -26 59 -59c0 -32 -26 -58 -59 -58h-350c-32 0 -58 26 -58 58v584c0 32 26 58 58 58h146c32 0 58 -26 58 -58c0 -33 -26 -59 -58 -59h-87v-116h175c32 0 58 -27 58 -59s-26 -58 -58 -58h-175v-58h233c32 0 58 -27 58 -59s-26 -58 -58 -58h-233v-58h291z
" />
    <glyph glyph-name="f" unicode="f" horiz-adv-x="401" 
d="M302 467c33 0 59 -27 59 -59s-26 -58 -59 -58h-58v-292c0 -32 -26 -58 -58 -58s-59 26 -59 58v292h-29c-32 0 -58 26 -58 58s26 59 58 59h29v58c0 7 1 45 21 84c29 59 84 91 154 91c33 0 59 -26 59 -58c0 -33 -26 -59 -59 -59c-31 0 -42 -12 -48 -24
c-8 -13 -10 -29 -10 -34v-58h58z" />
    <glyph glyph-name="g.001" horiz-adv-x="692" 
d="M594 408c32 0 58 -26 58 -58v-292c0 -32 -26 -58 -58 -58s-58 26 -58 58v234h-372c26 -101 117 -175 226 -175c32 0 58 -26 58 -59c0 -32 -26 -58 -58 -58c-193 0 -350 157 -350 350v-350v350c0 193 157 350 350 350h204c32 0 58 -26 58 -58c0 -33 -26 -59 -58 -59h-204
c-109 0 -200 -74 -226 -175h430z" />
    <glyph glyph-name="h" unicode="h" horiz-adv-x="488" 
d="M420 364c27 -48 28 -96 28 -102v-204c0 -32 -26 -58 -59 -58c-32 0 -58 26 -58 58v204c0 2 -1 26 -14 48c-17 27 -46 40 -91 40h-70v-292c0 -32 -26 -58 -58 -58s-58 26 -58 58v584c0 32 26 58 58 58s58 -26 58 -58v-175h70c88 0 157 -37 194 -103z" />
    <glyph glyph-name="i" unicode="i" horiz-adv-x="197" 
d="M98 0c-32 0 -58 26 -58 58v350c0 32 26 59 58 59s59 -27 59 -59v-350c0 -32 -27 -58 -59 -58zM157 612c0 -33 -27 -59 -59 -59s-58 26 -58 59c0 32 26 58 58 58s59 -26 59 -58z" />
    <glyph glyph-name="J.alt1" horiz-adv-x="430" 
d="M98 0c-32 0 -58 26 -58 58c0 33 26 59 58 59c38 0 62 12 76 40c11 23 12 47 12 47v438c0 32 26 58 58 58h88c32 0 58 -26 58 -59c0 -32 -26 -58 -58 -58h-29v-379c0 -5 -1 -51 -25 -99c-34 -68 -98 -105 -180 -105z" />
    <glyph glyph-name="K.alt1.001" horiz-adv-x="605" 
d="M395 292l157 -197c20 -25 16 -62 -9 -82c-11 -9 -24 -13 -36 -13c-18 0 -34 8 -46 22l-216 270h-88v-234c0 -32 -27 -58 -59 -58s-58 26 -58 58v584c0 32 26 58 58 58s59 -26 59 -58v-234h88l216 270c20 25 57 29 82 9s29 -57 9 -82l-157 -197h112c32 0 58 -26 58 -58
s-26 -58 -58 -58h-112z" />
    <glyph glyph-name="l" unicode="l" horiz-adv-x="197" 
d="M98 700c33 0 59 -26 59 -58v-584c0 -32 -26 -58 -59 -58c-32 0 -58 26 -58 58v584c0 32 26 58 58 58z" />
    <glyph glyph-name="m.001" horiz-adv-x="722" 
d="M654 691c17 -10 28 -29 28 -49v-584c0 -32 -26 -58 -59 -58c-32 0 -58 26 -58 58v285l-204 102l-204 -102v-285c0 -32 -26 -58 -59 -58c-32 0 -58 26 -58 58v584c0 20 10 39 28 49c9 6 20 9 31 9c9 0 17 -2 25 -6l237 -118l236 118c8 4 17 6 26 6c11 0 22 -3 31 -9z
M157 474l73 36l-73 37v-73zM491 510l74 -36v73z" />
    <glyph glyph-name="N.alt1" horiz-adv-x="634" 
d="M536 700c32 0 58 -26 58 -58v-584c0 -26 -17 -49 -43 -56c-5 -1 -10 -2 -15 -2c-20 0 -40 10 -50 28l-242 403v-373c0 -32 -26 -58 -58 -58s-59 26 -59 58v525h-29c-32 0 -58 26 -58 59c0 32 26 58 58 58h85c21 1 42 -10 53 -28l241 -403v373c0 32 27 58 59 58z" />
    <glyph glyph-name="o.001" horiz-adv-x="780" 
d="M390 0c-94 0 -181 36 -248 102c-66 67 -102 154 -102 248c0 93 36 181 102 247c67 67 154 103 248 103c93 0 181 -36 247 -103c67 -66 103 -154 103 -247c0 -94 -36 -181 -103 -248c-66 -66 -154 -102 -247 -102zM390 583c-62 0 -121 -24 -165 -68s-68 -103 -68 -165
s24 -121 68 -165s103 -68 165 -68s121 24 165 68s68 103 68 165s-24 121 -68 165s-103 68 -165 68zM369 189c-15 0 -30 5 -41 17l-82 82c-23 23 -23 60 0 83c22 22 59 22 82 0l83 -83c22 -23 22 -60 0 -82c-12 -12 -27 -17 -42 -17zM493 312c-15 0 -30 6 -41 17l-83 83
c-22 23 -22 60 0 82c23 23 60 23 83 0l82 -82c23 -23 23 -60 0 -83c-11 -11 -26 -17 -41 -17z" />
    <glyph glyph-name="P.alt1" horiz-adv-x="517" 
d="M98 0c-32 0 -58 26 -58 58v234c0 32 26 58 58 58h145c49 0 81 17 101 53c16 30 17 62 17 64c0 50 -18 82 -56 101c-31 15 -62 15 -62 15h-86v-58c0 -32 -26 -58 -59 -58c-32 0 -58 26 -58 58v117c0 32 26 58 58 58h145c6 0 59 -1 114 -28c78 -39 120 -111 120 -205
c0 -6 0 -60 -28 -114c-39 -77 -112 -120 -206 -120h-86v-175c0 -32 -26 -58 -59 -58z" />
    <glyph glyph-name="q" unicode="q" 
d="M507 -175c0 -32 -26 -58 -59 -58c-32 0 -58 26 -58 58v207c-34 -20 -74 -32 -117 -32c-128 0 -233 105 -233 234c0 128 105 233 233 233c45 0 87 -13 122 -34c9 20 30 34 53 34c33 0 59 -26 59 -58v-584zM390 234c0 64 -52 116 -117 116c-64 0 -116 -52 -116 -116
c0 -65 52 -117 116 -117c65 0 117 52 117 117z" />
    <glyph glyph-name="r.001" horiz-adv-x="488" 
d="M299 428l145 -347c3 -7 4 -15 4 -22c0 -23 -13 -45 -36 -54c-7 -3 -15 -5 -22 -5c-23 0 -45 14 -54 36l-119 285l-60 -78v-185c0 -32 -26 -58 -59 -58c-32 0 -58 26 -58 58v584c0 32 26 58 58 58h292c22 0 42 -13 52 -33c4 -8 6 -17 6 -26c0 -12 -4 -25 -12 -35zM157 583
v-149l114 149h-114z" />
    <glyph glyph-name="S.alt1.001" horiz-adv-x="518" 
d="M244 0c-85 0 -161 46 -198 120c-4 8 -6 17 -6 26c0 11 3 22 9 31l110 177c-62 38 -94 93 -94 165c0 51 22 98 63 132c38 31 90 49 145 49c42 0 86 -15 122 -40c16 -11 24 -29 24 -47c0 -12 -3 -24 -11 -34c-12 -16 -30 -24 -48 -24c-12 0 -23 3 -33 10
c-16 11 -36 18 -54 18c-52 0 -92 -27 -92 -64c0 -52 39 -70 80 -84c30 -8 206 -60 216 -197c0 -6 1 -11 1 -17c0 -55 -22 -108 -59 -149c-43 -46 -106 -72 -175 -72zM269 309l-101 -162c19 -19 46 -30 76 -30c37 0 68 12 90 35c17 19 27 44 27 70v7c-3 34 -51 63 -92 80z
" />
    <glyph glyph-name="t.001" horiz-adv-x="605" 
d="M535 576c19 -11 30 -31 30 -51c0 -10 -3 -20 -8 -29c-11 -19 -30 -29 -51 -29c-9 0 -19 2 -28 7l-117 67v-483c0 -32 -26 -58 -59 -58c-32 0 -58 26 -58 58v483l-117 -67c-9 -5 -19 -8 -29 -8c-20 0 -39 11 -50 30c-5 9 -8 20 -8 30c0 20 10 39 29 50l204 116
c9 5 19 8 29 8s20 -3 29 -8z" />
    <glyph glyph-name="v" unicode="v" horiz-adv-x="529" 
d="M456 461c21 -10 33 -31 33 -53c0 -9 -2 -17 -6 -25l-166 -350c-9 -20 -30 -33 -52 -33c-23 0 -43 13 -53 33l-166 350c-4 8 -6 16 -6 25c0 22 12 43 33 53c8 4 17 6 25 6c22 0 43 -13 53 -34l114 -239l113 239c10 21 31 34 53 34c8 0 17 -2 25 -6z" />
    <glyph glyph-name="w" unicode="w" horiz-adv-x="688" 
d="M609 463c24 -8 39 -31 39 -55c0 -6 -1 -13 -3 -19l-123 -350c-8 -23 -30 -39 -55 -39s-47 16 -55 39l-68 194l-68 -194c-8 -23 -30 -39 -55 -39s-47 16 -55 39l-123 350c-2 6 -3 13 -3 19c0 25 15 47 39 55c6 2 13 3 20 3c24 0 46 -14 54 -38l68 -193l67 193
c8 25 30 38 54 39h4c24 -1 45 -16 53 -39l68 -193l68 193c8 24 30 38 54 38c7 0 13 -1 20 -3z" />
    <glyph glyph-name="x.001" horiz-adv-x="663" 
d="M511 350l108 -270c3 -7 4 -15 4 -22c0 -23 -13 -45 -36 -54c-7 -3 -15 -4 -22 -4c-23 0 -45 14 -54 37l-63 156l-62 -156c-9 -22 -31 -37 -54 -37c-24 0 -46 15 -55 37l-62 156l-63 -156c-9 -23 -31 -37 -54 -37c-7 0 -14 1 -21 4c-23 9 -37 32 -37 55c0 7 1 14 4 21
l108 270l-108 270c-3 7 -4 14 -4 21c0 23 14 46 37 55c7 3 14 4 21 4c23 0 45 -14 54 -37l63 -156l62 156c9 22 31 37 55 37c23 0 45 -15 54 -37l62 -156l63 156c9 23 32 37 55 37c7 0 14 -1 21 -4c23 -9 36 -31 36 -54c0 -7 -1 -15 -4 -22zM332 215l53 135l-53 135
l-54 -135z" />
    <glyph glyph-name="Z.alt1.001" 
d="M448 117c33 0 59 -26 59 -59c0 -32 -26 -58 -59 -58h-350c-21 0 -40 11 -50 30c-6 9 -8 19 -8 29s2 20 8 29l122 204h-72c-32 0 -58 26 -58 58s26 58 58 58h142l105 175h-247c-32 0 -58 26 -58 59c0 32 26 58 58 58h350c21 0 41 -11 51 -30c5 -9 7 -18 7 -28
s-2 -21 -8 -30l-122 -204h72c33 0 59 -26 59 -58s-26 -58 -59 -58h-142l-105 -175h247z" />
    <glyph glyph-name="k.001" horiz-adv-x="576" 
d="M334 386l192 -296c7 -10 10 -21 10 -32c0 -19 -10 -38 -27 -49c-10 -6 -20 -9 -31 -9c-19 0 -39 10 -50 27l-179 275l-92 -93v-151c0 -32 -27 -58 -59 -58s-58 26 -58 58v584c0 25 17 48 42 56c5 1 11 2 16 2c19 0 38 -10 49 -27l122 -187l167 168c11 11 26 17 41 17
s30 -6 42 -17c11 -12 16 -27 16 -42s-5 -30 -16 -41zM157 374l27 28l-27 43v-71z" />
    <glyph glyph-name="a.alt1" horiz-adv-x="488" 
d="M390 467c32 0 58 -26 58 -59v-350c0 -32 -26 -58 -58 -58c-23 0 -43 13 -52 32c-32 -20 -70 -32 -112 -32c-103 0 -186 72 -186 161c0 88 83 160 186 160c39 0 75 -11 105 -29v58h-175c-32 0 -58 26 -58 58c0 33 26 59 58 59h234zM226 117c32 0 69 18 69 44
c0 25 -37 43 -69 43c-33 0 -70 -18 -70 -43c0 -26 37 -44 70 -44z" />
    <glyph glyph-name="M.alt1" horiz-adv-x="780" 
d="M710 692c19 -10 30 -29 30 -50v-584c0 -32 -26 -58 -58 -58c-33 0 -59 26 -59 58v481l-109 -66c32 -32 51 -75 51 -123c0 -97 -79 -175 -175 -175c-97 0 -175 78 -175 175c0 48 19 91 51 123l-109 66v-481c0 -32 -26 -58 -59 -58c-32 0 -58 26 -58 58v584
c0 21 11 40 30 50c9 5 18 8 28 8s21 -3 30 -8l262 -157l262 157c9 5 20 8 30 8s19 -3 28 -8zM390 292c32 0 58 26 58 58s-26 58 -58 58s-58 -26 -58 -58s26 -58 58 -58z" />
    <glyph glyph-name="E.alt1.001" 
d="M181 117h267c33 0 59 -26 59 -59c0 -32 -26 -58 -59 -58h-350c-32 0 -58 26 -58 58v584c0 15 6 30 17 41s26 17 41 17h350c33 0 59 -26 59 -58c0 -33 -27 -59 -59 -59h-267l192 -192c11 -12 17 -26 17 -41s-6 -30 -17 -41zM157 257l92 93l-92 92v-185z" />
    <glyph glyph-name="F.alt1.001" 
d="M98 700h350c33 0 59 -26 59 -58c0 -33 -26 -59 -59 -59h-291v-68c18 6 37 10 58 10c96 0 175 -79 175 -175c0 -97 -79 -175 -175 -175c-21 0 -40 4 -58 10v-127c0 -32 -26 -58 -59 -58c-32 0 -58 26 -58 58v584c0 32 26 58 58 58zM215 408c-32 0 -58 -26 -58 -58
s26 -58 58 -58s58 26 58 58s-26 58 -58 58z" />
    <glyph glyph-name="g.alt1" horiz-adv-x="517" 
d="M259 0c-37 0 -72 10 -102 27v-56h145c33 0 59 -26 59 -58v-88c0 -32 -26 -58 -59 -58c-32 0 -58 26 -58 58v29h-146c-32 0 -58 27 -58 59v291c0 4 0 7 1 10c-1 6 -1 13 -1 20c0 128 98 233 219 233c120 0 218 -105 218 -233c0 -129 -98 -234 -218 -234zM259 350
c-57 0 -102 -52 -102 -116c0 -65 45 -117 102 -117c56 0 102 52 102 117c0 64 -46 116 -102 116z" />
    <glyph glyph-name="k.alt1" horiz-adv-x="459" 
d="M406 96c9 -11 13 -24 13 -37c0 -17 -7 -34 -21 -45c-11 -10 -24 -14 -37 -14c-17 0 -33 7 -45 21l-118 142l-41 -41v-64c0 -32 -27 -58 -59 -58s-58 26 -58 58v584c0 32 26 58 58 58s59 -26 59 -58v-355l163 163c11 11 26 16 41 16s29 -5 41 -16c11 -12 17 -27 17 -42
s-6 -30 -17 -41l-121 -121z" />
    <glyph glyph-name="T.alt1.001" 
d="M98 700h350c33 0 59 -26 59 -58c0 -33 -26 -59 -59 -59h-116v-68c68 -24 116 -89 116 -165s-48 -141 -116 -165v-127c0 -32 -26 -58 -59 -58c-32 0 -58 26 -58 58v127c-68 24 -117 89 -117 165s49 141 117 165v68h-117c-32 0 -58 26 -58 59c0 32 26 58 58 58zM273 292
c32 0 59 26 59 58s-27 58 -59 58s-58 -26 -58 -58s26 -58 58 -58z" />
    <glyph glyph-name="I.alt3" horiz-adv-x="430" 
d="M332 525c32 0 58 -26 58 -58c0 -33 -26 -59 -58 -59h-59v-350c0 -32 -26 -58 -58 -58h-117c-32 0 -58 26 -58 58c0 33 26 59 58 59h59v87h-59c-32 0 -58 26 -58 58c0 33 26 59 58 59h59v321c0 32 26 58 58 58h117c32 0 58 -26 58 -58c0 -33 -26 -59 -58 -59h-59v-58h59z
" />
    <glyph glyph-name="I.alt1.001" horiz-adv-x="430" 
d="M390 350c0 -76 -49 -141 -117 -165v-127c0 -32 -26 -58 -58 -58s-58 26 -58 58v127c-68 24 -117 89 -117 165s49 141 117 165v127c0 32 26 58 58 58s58 -26 58 -58v-127c68 -24 117 -89 117 -165zM215 292c32 0 58 26 58 58s-26 58 -58 58s-58 -26 -58 -58s26 -58 58 -58
z" />
    <glyph glyph-name="r.alt1" horiz-adv-x="320" 
d="M222 467c32 0 58 -26 58 -59c0 -32 -26 -58 -58 -58h-65v-292c0 -32 -26 -58 -59 -58c-32 0 -58 26 -58 58v350c0 33 26 59 58 59h124z" />
    <glyph glyph-name="q.alt1.001" horiz-adv-x="692" 
d="M652 350c0 -170 -107 -313 -248 -344v-61c0 -32 -26 -58 -58 -58c-33 0 -59 26 -59 58v62c-141 31 -247 173 -247 343c0 193 137 350 306 350s306 -157 306 -350zM404 179v-51c76 30 132 118 132 222c0 129 -85 233 -190 233c-104 0 -189 -104 -189 -233
c0 -103 54 -191 130 -222v51c0 32 26 58 59 58c32 0 58 -26 58 -58z" />
    <glyph glyph-name="W.alt1.001" horiz-adv-x="780" 
d="M682 700c32 0 58 -26 58 -58v-584c0 -21 -11 -40 -30 -50c-9 -5 -18 -8 -28 -8c-11 0 -21 3 -30 8l-262 157l-262 -157c-18 -11 -40 -11 -58 0c-19 10 -30 29 -30 50v584c0 32 26 58 58 58s59 -26 59 -58v-481l109 66c-32 31 -51 75 -51 123c0 96 78 175 175 175
c96 0 175 -79 175 -175c0 -48 -19 -92 -51 -123l109 -66v481c0 32 26 58 59 58zM390 408c-32 0 -58 -26 -58 -58s26 -58 58 -58s58 26 58 58s-26 58 -58 58z" />
    <glyph glyph-name="L.alt1.001" 
d="M157 117h291c33 0 59 -26 59 -59c0 -32 -26 -58 -59 -58h-350c-32 0 -58 26 -58 58v584c0 32 26 58 58 58c33 0 59 -26 59 -58v-127c18 6 37 10 58 10c96 0 175 -79 175 -175c0 -97 -79 -175 -175 -175c-21 0 -40 4 -58 10v-68zM215 408c-32 0 -58 -26 -58 -58
s26 -58 58 -58s58 26 58 58s-26 58 -58 58z" />
    <glyph glyph-name="X.alt1.001" horiz-adv-x="644" 
d="M468 253l124 -159c8 -10 12 -23 12 -35c0 -17 -8 -35 -23 -47c-10 -8 -23 -12 -35 -12c-18 0 -35 8 -47 23l-124 160c-17 -5 -35 -8 -53 -8s-36 3 -53 8l-125 -160c-11 -15 -28 -23 -46 -23c-12 0 -25 4 -36 12c-15 12 -22 30 -22 47c0 13 4 25 12 35l124 159
c-18 28 -29 61 -29 97s11 69 29 97l-124 159c-8 10 -12 22 -12 35c0 17 7 35 22 47c11 8 23 12 35 12c18 0 35 -8 47 -23l125 -160c17 5 35 8 53 8s36 -3 53 -8l124 160c12 15 30 23 47 23c12 0 25 -4 35 -12c15 -12 23 -30 23 -47c0 -12 -4 -25 -12 -35l-124 -159
c18 -28 29 -61 29 -97s-11 -69 -29 -97zM264 350c0 -32 26 -58 58 -58s58 26 58 58s-26 58 -58 58s-58 -26 -58 -58z" />
    <glyph glyph-name="dagger" unicode="&#x2020;" 
d="M328 525h120c33 0 59 -26 59 -59c0 -32 -26 -58 -59 -58h-120v-350c0 -32 -26 -58 -59 -58c-32 0 -58 26 -58 58v350h-113c-32 0 -58 26 -58 58c0 33 26 59 58 59h113v117c0 32 26 58 58 58c33 0 59 -26 59 -58v-117z" />
    <glyph glyph-name="daggerdbl" unicode="&#x2021;" 
d="M328 292h120c33 0 59 -26 59 -59c0 -32 -26 -58 -59 -58h-120v-117c0 -32 -26 -58 -59 -58c-32 0 -58 26 -58 58v117h-113c-32 0 -58 26 -58 58c0 33 26 59 58 59h113v116h-113c-32 0 -58 26 -58 58c0 33 26 59 58 59h113v117c0 32 26 58 58 58c33 0 59 -26 59 -58v-117
h120c33 0 59 -26 59 -59c0 -32 -26 -58 -59 -58h-120v-116z" />
    <glyph glyph-name="questiondown" unicode="&#xbf;" horiz-adv-x="500" 
d="M250 0c-116 0 -210 94 -210 210c0 96 64 176 151 202v26c0 32 27 58 59 58s58 -26 58 -58v-76c0 -33 -26 -59 -58 -59c-52 0 -93 -42 -93 -93s42 -93 93 -93c120 0 62 151 152 151c32 0 58 -26 58 -58c0 -116 -94 -210 -210 -210zM253 583c-32 0 -58 26 -58 59
c0 32 26 58 58 58s58 -26 58 -58c0 -33 -26 -59 -58 -59z" />
    <glyph glyph-name="exclamdown" unicode="&#xa1;" horiz-adv-x="197" 
d="M99 0c-32 0 -59 26 -59 58v409c0 32 27 58 59 58s58 -26 58 -58v-409c0 -32 -26 -58 -58 -58zM99 583c-32 0 -59 26 -59 59c0 32 27 58 59 58s58 -26 58 -58c0 -33 -26 -59 -58 -59z" />
    <glyph glyph-name="b.001" 
d="M448 700c33 0 59 -26 59 -58v-584c0 -32 -26 -58 -59 -58c-32 0 -58 26 -58 58v234h-233v-234c0 -32 -26 -58 -59 -58c-32 0 -58 26 -58 58v584c0 32 26 58 58 58h350zM157 408h233v175h-233v-175z" />
    <glyph glyph-name="c.001" horiz-adv-x="984" 
d="M886 0h-788c-32 0 -58 26 -58 58c0 33 26 59 58 59h788c32 0 58 -26 58 -59c0 -32 -26 -58 -58 -58zM296 187c-141 0 -256 115 -256 257c0 141 115 256 256 256c36 0 70 -7 103 -21c29 -13 43 -48 30 -77c-13 -30 -47 -43 -77 -30c-18 7 -36 11 -56 11
c-77 0 -139 -62 -139 -139s62 -140 139 -140c20 0 38 4 56 12c30 13 64 -1 77 -30c13 -30 -1 -64 -30 -77c-33 -14 -67 -22 -103 -22zM709 177c-128 0 -232 117 -232 261c0 145 104 262 232 262c127 0 231 -117 231 -262c0 -144 -104 -261 -231 -261zM709 583
c-64 0 -115 -65 -115 -145s51 -145 115 -145c63 0 114 65 114 145s-51 145 -114 145z" />
    <glyph glyph-name="Y" unicode="Y" horiz-adv-x="605" 
d="M540 689c16 -11 25 -29 25 -47c0 -12 -4 -24 -11 -34l-193 -276v-274c0 -32 -26 -58 -59 -58c-32 0 -58 26 -58 58v274l-193 276c-7 9 -11 19 -11 31c0 30 22 61 58 61c19 0 37 -9 48 -25l156 -223l157 223c11 16 29 25 48 25c11 0 23 -4 33 -11z" />
    <glyph glyph-name="y" unicode="y" horiz-adv-x="529" 
d="M483 383l-166 -350l-7 -11l-100 -221c-10 -22 -31 -34 -53 -34c-8 0 -17 1 -25 5c-21 9 -33 31 -33 53c0 8 1 16 5 24l95 211l-153 323c-4 8 -6 16 -6 25c0 22 12 43 33 53c8 4 17 6 25 6c22 0 43 -13 53 -34l114 -239l113 239c10 21 31 34 53 34c8 0 17 -2 25 -6
c21 -10 33 -31 33 -53c0 -9 -2 -17 -6 -25z" />
    <glyph glyph-name="u.alt3" horiz-adv-x="575" 
d="M287 292c-32 0 -58 26 -58 58s26 58 58 58c33 0 59 -26 59 -58s-26 -58 -59 -58zM288 0c-100 0 -178 48 -219 136c-28 61 -29 120 -29 127v379c0 32 26 58 58 58s58 -26 58 -58v-379c0 -15 12 -146 132 -146c114 0 131 123 131 146v379c0 32 26 58 58 58s58 -26 58 -58
v-379c0 -7 0 -66 -28 -127c-41 -88 -119 -136 -219 -136z" />
    <glyph glyph-name="n.alt1.001" horiz-adv-x="488" 
d="M390 467c32 0 58 -26 58 -59v-350c0 -32 -26 -58 -58 -58s-58 26 -58 58v125l-175 116v-241c0 -32 -27 -58 -59 -58s-58 26 -58 58v350c0 22 12 42 31 52c9 5 19 7 28 7c11 0 22 -3 32 -10l201 -134v85c0 33 26 59 58 59z" />
    <glyph glyph-name="comma" unicode="," horiz-adv-x="226" 
d="M98 -87c-6 0 -12 1 -18 3c-25 8 -40 30 -40 55c0 6 1 13 3 19l29 87c8 25 31 40 55 40c6 0 13 -1 19 -3c24 -8 40 -31 40 -55c0 -6 -1 -12 -32 -106c-8 -24 -31 -40 -56 -40z" />
    <glyph glyph-name="colon" unicode=":" horiz-adv-x="197" 
d="M98 292c-32 0 -58 26 -58 58s26 58 58 58c33 0 59 -26 59 -58s-26 -58 -59 -58zM98 0c-32 0 -58 26 -58 59c0 32 26 58 58 58c33 0 59 -26 59 -58c0 -33 -26 -59 -59 -59z" />
    <glyph glyph-name="semicolon" unicode=";" horiz-adv-x="226" 
d="M98 292c-32 0 -58 26 -58 58s26 58 58 58c33 0 59 -26 59 -58s-26 -58 -59 -58zM98 -87c-6 0 -12 1 -18 3c-25 8 -40 30 -40 55c0 6 1 13 3 19l29 87c8 25 31 40 55 40c6 0 13 -1 19 -3c24 -8 40 -31 40 -55c0 -6 -1 -12 -3 -18l-29 -88c-8 -24 -31 -40 -56 -40z" />
    <glyph glyph-name="m.alt3" horiz-adv-x="663" 
d="M623 642v-584c0 -32 -26 -58 -58 -58s-58 26 -58 58v417l-130 -161c-11 -14 -28 -22 -45 -22c-18 0 -35 8 -46 22l-129 161v-417c0 -32 -26 -58 -59 -58c-32 0 -58 26 -58 58v584c0 24 16 47 39 55c8 2 15 3 24 3h456c9 0 17 0 25 -3c24 -8 39 -31 39 -55zM332 443
l112 140h-224z" />
    <glyph glyph-name="a" unicode="a" horiz-adv-x="488" 
d="M447 122l1 -64c0 -31 -26 -58 -58 -58c-23 0 -43 13 -52 32c-21 -11 -44 -19 -69 -24c-8 -1 -32 -7 -63 -7c-85 0 -144 43 -162 119c-3 11 -4 22 -4 33c0 28 9 55 26 77c23 30 71 66 179 70c15 0 29 1 44 1c11 0 24 0 38 -2c-3 16 -10 33 -20 39c-15 8 -33 12 -50 12
c-38 0 -76 -17 -97 -34c-11 -9 -24 -13 -37 -13c-17 0 -33 7 -45 21c-9 11 -13 24 -13 37c0 17 7 34 21 45c40 33 89 54 143 59c9 1 17 1 26 1c40 0 78 -9 109 -26c80 -45 83 -150 83 -161v-157zM318 170l5 12c-7 1 -18 2 -34 2c-13 0 -27 0 -51 -1c-46 -2 -72 -14 -79 -23
c-1 -2 -3 -4 -3 -8c0 -1 1 -3 1 -5c3 -12 7 -29 49 -29c18 0 33 3 38 4c2 1 3 1 4 1c37 7 60 29 70 47z" />
    <glyph glyph-name="A" unicode="A" horiz-adv-x="663" 
d="M386 663l233 -583c3 -7 4 -15 4 -22c0 -30 -23 -58 -58 -58c-23 0 -45 14 -54 37l-44 109h-271l-44 -109c-9 -23 -31 -37 -54 -37c-34 0 -58 29 -58 58c0 8 1 15 4 22l233 583c9 22 31 37 55 37c23 0 45 -15 54 -37zM243 262h177l-88 223z" />
    <glyph glyph-name="U.alt3" horiz-adv-x="575" 
d="M287 292c-32 0 -58 26 -58 58s26 58 58 58c33 0 59 -26 59 -58s-26 -58 -59 -58zM288 0c-100 0 -178 48 -219 136c-28 61 -29 120 -29 127v379c0 32 26 58 58 58s58 -26 58 -58v-379c0 -15 12 -146 132 -146c114 0 131 123 131 146v379c0 32 26 58 58 58s58 -26 58 -58
v-379c0 -7 0 -66 -28 -127c-41 -88 -119 -136 -219 -136z" />
    <glyph glyph-name="W.alt4" horiz-adv-x="896" 
d="M815 698c25 -8 41 -31 41 -56c0 -6 0 -11 -2 -17l-175 -583c-7 -25 -30 -42 -56 -42c-25 0 -48 17 -56 42l-119 397l-119 -397c-7 -25 -30 -42 -56 -42c-25 0 -48 17 -56 42l-175 583c-2 5 -2 11 -2 16c0 25 16 49 42 57c5 2 11 2 16 2c25 0 48 -16 56 -42l119 -397
l119 397c8 25 31 42 56 42c26 0 49 -17 56 -42l119 -397l119 397c8 26 32 42 57 42c5 0 11 0 16 -2z" />
    <glyph glyph-name="Z.alt3" horiz-adv-x="548" 
d="M348 583h-249c-32 0 -58 26 -58 59c0 32 26 58 58 58h350c44 0 73 -49 51 -87c0 -2 -2 -1 -1 -1v0c-19 -33 -38 -64 -57 -99c-10 -19 -30 -30 -51 -30c-47 0 -72 50 -51 86c2 5 5 10 8 14zM274 408c33 0 59 -26 59 -58s-26 -58 -59 -58c-32 0 -58 26 -58 58s26 58 58 58z
M201 117h248c33 0 59 -26 59 -59c0 -32 -26 -58 -59 -58h-350c-14 0 -50 11 -50 30c-11 18 -11 40 0 58c33 55 67 158 137 122c28 -15 38 -51 23 -79c-3 -5 -5 -10 -8 -14z" />
    <glyph glyph-name="E.alt3" 
d="M448 0h-350c-32 0 -58 26 -58 58v584c0 15 6 30 17 41s26 17 41 17h350c33 0 59 -26 59 -58c0 -33 -27 -59 -59 -59h-291v-466h291c33 0 59 -26 59 -59c0 -32 -26 -58 -59 -58zM361 350c0 -32 -26 -58 -59 -58c-32 0 -58 26 -58 58s26 58 58 58c33 0 59 -26 59 -58z" />
    <glyph glyph-name="M.alt4" horiz-adv-x="722" 
d="M642 697c24 -8 40 -30 40 -55v-584c0 -32 -27 -58 -59 -58s-58 26 -58 58v409l-146 -195v-214c0 -32 -26 -58 -58 -58s-59 26 -59 58v214l-145 195v-409c0 -32 -26 -58 -59 -58c-32 0 -58 26 -58 58v584c0 25 16 47 40 55c6 2 13 3 19 3c18 0 35 -8 46 -23l216 -288
l216 288c11 15 28 23 46 23c6 0 13 -1 19 -3z" />
    <glyph glyph-name="i.alt3.001" horiz-adv-x="430" 
d="M98 525h59v58h-59c-32 0 -58 26 -58 59c0 32 26 58 58 58h117c32 0 58 -26 58 -58v-321h59c32 0 58 -26 58 -59c0 -32 -26 -58 -58 -58h-59v-87h59c32 0 58 -26 58 -59c0 -32 -26 -58 -58 -58h-117c-32 0 -58 26 -58 58v350h-59c-32 0 -58 26 -58 59c0 32 26 58 58 58z
" />
    <glyph glyph-name="H.alt3" horiz-adv-x="576" 
d="M98 0c-32 0 -58 26 -58 58v584c0 32 26 58 58 58s59 -26 59 -58v-584c0 -32 -27 -58 -59 -58zM477 0c-32 0 -58 26 -58 58v584c0 32 26 58 58 58c33 0 59 -26 59 -58v-584c0 -32 -26 -58 -59 -58zM346 350c0 -32 -26 -58 -58 -58s-58 26 -58 58s26 58 58 58
s58 -26 58 -58z" />
    <glyph glyph-name="F.alt3" 
d="M98 700h350c33 0 59 -26 59 -58c0 -33 -27 -59 -59 -59h-291v-525c0 -32 -26 -58 -59 -58c-32 0 -58 26 -58 58v584c0 15 6 30 17 41s26 17 41 17zM302 408c33 0 59 -26 59 -58s-26 -58 -59 -58c-32 0 -58 26 -58 58s26 58 58 58z" />
    <glyph glyph-name="slash" unicode="/" horiz-adv-x="313" 
d="M226 699c28 -5 47 -30 47 -58c0 -4 0 -7 -1 -11l-117 -583c-5 -28 -29 -47 -57 -47c-3 0 -7 0 -11 1c-28 5 -47 30 -47 58c0 4 0 7 1 11l117 583c5 28 30 47 57 47c4 0 7 0 11 -1z" />
    <glyph glyph-name="backslash" unicode="\" horiz-adv-x="313" 
d="M87 699c4 1 7 1 11 1c27 0 52 -19 57 -47l117 -583c1 -4 1 -7 1 -11c0 -28 -19 -53 -47 -58c-4 -1 -8 -1 -11 -1c-28 0 -52 19 -57 47l-117 583c-1 4 -1 7 -1 11c0 28 19 53 47 58z" />
    <glyph glyph-name="quotesingle" unicode="'" horiz-adv-x="226" 
d="M98 497c-6 0 -12 1 -18 3c-25 8 -40 30 -40 55c0 6 1 13 3 19l29 87c8 25 31 40 55 40c6 0 13 -1 19 -3c24 -8 40 -31 40 -55c0 -6 -1 -12 -32 -106c-8 -24 -31 -40 -56 -40z" />
    <glyph glyph-name="less.alt1" horiz-adv-x="694" 
d="M57 391l177 177c11 11 26 16 41 16s30 -5 41 -16c12 -12 17 -27 17 -42s-5 -30 -17 -41l-75 -74h69l157 157c12 11 27 16 42 16s30 -5 41 -16c11 -12 17 -27 17 -42s-6 -30 -17 -41l-75 -74h121c32 0 58 -27 58 -59s-26 -58 -58 -58h-126l80 -79c11 -11 17 -26 17 -41
s-6 -30 -17 -42c-12 -11 -27 -17 -42 -17s-30 6 -41 17l-161 162h-69l79 -79c12 -12 17 -27 17 -42s-5 -30 -17 -41c-11 -11 -26 -17 -41 -17s-30 6 -41 17l-177 177c-11 11 -17 26 -17 41s6 29 17 41z" />
    <glyph glyph-name="underscore" unicode="_" horiz-adv-x="576" 
d="M98 0h379c33 0 59 -26 59 -58s-26 -58 -59 -58h-379c-32 0 -58 26 -58 58s26 58 58 58z" />
    <glyph glyph-name="T.alt3" 
d="M474 519c21 -10 33 -30 33 -52c0 -5 -1 -9 -2 -14c-6 -26 -30 -45 -57 -45h-116v-350c0 -32 -26 -58 -59 -58c-32 0 -58 26 -58 58v350h-117c-32 0 -58 26 -58 59c0 32 26 58 58 58h103l-129 64c-20 12 -32 31 -32 52c0 5 1 9 2 14c6 26 29 45 56 45h350
c33 0 59 -26 59 -58c0 -33 -26 -59 -59 -59h-103z" />
    <glyph glyph-name="percent" unicode="%" horiz-adv-x="864" 
d="M214 0c-12 0 -24 4 -35 12c-15 11 -23 28 -23 46c0 12 4 24 12 35l435 581c11 15 28 23 46 23c12 0 25 -4 35 -12c15 -11 23 -28 23 -46c0 -12 -3 -24 -11 -35l-435 -581c-12 -15 -29 -23 -47 -23zM214 352c-96 0 -174 78 -174 174s78 174 174 174s174 -78 174 -174
s-78 -174 -174 -174zM214 584c-32 0 -58 -26 -58 -58s26 -58 58 -58s58 26 58 58s-26 58 -58 58zM650 3c-96 0 -175 78 -175 174s79 175 175 175s174 -79 174 -175s-78 -174 -174 -174zM650 235c-32 0 -58 -26 -58 -58s26 -58 58 -58s58 26 58 58s-26 58 -58 58z" />
    <glyph glyph-name="quotedbl" unicode="&#x22;" horiz-adv-x="384" 
d="M98 496c-6 0 -12 1 -18 3c-25 8 -40 30 -40 55c0 6 1 13 3 19l29 87c8 25 31 40 55 40c6 0 13 -1 19 -3c24 -8 40 -31 40 -55c0 -6 -1 -12 -32 -106c-8 -24 -31 -40 -56 -40zM256 497c-6 0 -12 1 -18 3c-25 8 -40 30 -40 55c0 6 1 13 3 19l29 87c8 25 31 40 55 40
c6 0 13 -1 19 -3c24 -8 40 -31 40 -55c0 -6 -1 -12 -32 -106c-8 -24 -31 -40 -56 -40z" />
    <glyph glyph-name="asciicircum" unicode="^" horiz-adv-x="451" 
d="M60 452c-13 12 -20 28 -20 44c0 13 5 27 14 38l128 146c11 13 27 20 44 20s33 -7 44 -20l127 -146c10 -11 14 -25 14 -39c0 -16 -6 -32 -19 -43c-11 -10 -25 -14 -39 -14c-16 0 -32 6 -44 20l-83 95l-84 -95c-11 -14 -28 -20 -44 -20c-14 0 -27 4 -38 14z" />
    <glyph glyph-name="asterisk" unicode="*" horiz-adv-x="320" 
d="M242 580l21 -21c11 -12 17 -26 17 -41s-6 -30 -17 -41c-11 -12 -26 -17 -41 -17s-30 5 -41 17l-21 20l-21 -20c-11 -12 -26 -17 -41 -17s-30 5 -41 17c-12 11 -17 26 -17 41s5 29 17 41l21 21l-21 20c-12 11 -17 26 -17 41s5 30 17 42c11 11 26 17 41 17s30 -6 41 -17
l21 -21l21 21c11 11 26 17 41 17s29 -6 41 -17c11 -12 17 -27 17 -42s-6 -30 -17 -41z" />
    <glyph glyph-name="B" unicode="B" 
d="M417 400c58 -38 90 -102 90 -181c0 -135 -111 -219 -205 -219h-204c-32 0 -58 26 -58 58v584c0 32 26 58 58 58h161c5 0 48 -2 91 -23c64 -32 98 -90 98 -167c0 -42 -11 -80 -31 -110zM157 583v-146h87c15 0 88 3 88 73c0 67 -46 73 -65 73h-8h-102zM347 131
c39 22 43 61 43 88c0 37 -23 102 -95 102h-138v-204h138c1 0 28 1 52 14z" />
    <glyph glyph-name="B.alt1" 
d="M307 0h-209c-15 0 -30 6 -41 17s-17 26 -17 41v584c0 32 26 58 58 58h153c4 0 7 0 11 -1c4 1 7 1 11 1h175c23 0 43 -13 53 -33c4 -8 5 -16 5 -25c0 -13 -4 -26 -12 -36l-138 -178c13 -4 28 -10 43 -17c69 -37 108 -105 108 -192c0 -150 -108 -211 -200 -219zM251 583
h-94v-466h143c9 1 34 5 54 19c24 16 36 43 36 83c0 58 -26 78 -45 88c-24 13 -50 14 -50 14h-51c-22 0 -42 13 -52 33c-4 8 -6 17 -6 26c0 12 4 24 12 35l131 168h-56c-4 0 -7 1 -11 1s-8 -1 -11 -1z" />
    <glyph glyph-name="h.alt3" horiz-adv-x="576" 
d="M98 0c-32 0 -58 26 -58 58v584c0 32 26 58 58 58s59 -26 59 -58v-584c0 -32 -27 -58 -59 -58zM477 0c-32 0 -58 26 -58 58v584c0 32 26 58 58 58c33 0 59 -26 59 -58v-584c0 -32 -26 -58 -59 -58zM346 350c0 -32 -26 -58 -58 -58s-58 26 -58 58s26 58 58 58
s58 -26 58 -58z" />
    <glyph glyph-name="j.001" horiz-adv-x="430" 
d="M186 0c-32 0 -59 26 -59 58c0 33 27 59 59 59c38 0 61 12 75 40c12 23 12 47 12 47v126l-220 275c-8 11 -13 24 -13 37c0 9 2 17 6 25c9 20 30 33 52 33h234c32 0 58 -26 58 -58v-438c0 -5 -1 -51 -24 -99c-34 -68 -98 -105 -180 -105zM220 583h53v-67z" />
    <glyph glyph-name="O.alt7" horiz-adv-x="576" 
d="M288 175c-137 0 -248 118 -248 263c0 144 111 262 248 262s248 -118 248 -262c0 -145 -111 -263 -248 -263zM288 583c-73 0 -131 -65 -131 -145c0 -81 58 -146 131 -146c72 0 131 65 131 146c0 80 -59 145 -131 145zM127 117h321c32 0 59 -26 59 -59
c0 -32 -27 -58 -59 -58h-321c-32 0 -58 26 -58 58c0 33 26 59 58 59z" />
    <glyph glyph-name="p" unicode="p" 
d="M98 -233c-32 0 -58 26 -58 58v584c0 32 26 58 58 58c24 0 44 -14 53 -34c36 21 78 34 122 34c129 0 234 -105 234 -233c0 -129 -105 -234 -234 -234c-42 0 -82 12 -116 32v-207c0 -32 -27 -58 -59 -58zM273 350c-64 0 -116 -52 -116 -116c0 -65 52 -117 116 -117
c65 0 117 52 117 117c0 64 -52 116 -117 116z" />
    <glyph glyph-name="p.alt1" horiz-adv-x="488" 
d="M343 234l95 -143c7 -10 10 -21 10 -33c0 -9 -2 -19 -7 -27c-10 -19 -30 -31 -51 -31h-233v-175c0 -32 -27 -58 -59 -58s-58 26 -58 58v584c0 32 26 58 58 58h292c21 0 41 -12 51 -31c5 -8 7 -18 7 -27c0 -12 -3 -23 -10 -33zM225 201c-7 10 -10 21 -10 32s3 23 10 33
l56 84h-124v-233h124z" />
    <glyph glyph-name="s.001" 
d="M302 0c-7 0 -15 1 -22 4c-22 10 -36 31 -36 54c0 8 2 15 5 23l112 269h-263c-19 0 -37 9 -48 25c-7 10 -10 21 -10 32c0 7 1 15 4 22l87 233c9 23 30 38 54 38c7 0 14 -1 21 -4c23 -9 38 -30 38 -54c0 -7 -1 -14 -4 -21l-58 -154h266c20 0 38 -10 49 -26
c7 -10 10 -21 10 -32c0 -8 -2 -16 -5 -23l-146 -350c-9 -23 -31 -36 -54 -36z" />
    <glyph glyph-name="u" unicode="u" horiz-adv-x="453" 
d="M355 467c32 0 58 -26 58 -59v-227c0 -8 -1 -47 -22 -88c-32 -60 -90 -93 -164 -93c-75 0 -133 33 -164 93c-22 41 -23 80 -23 88v227c0 33 26 59 58 59s59 -26 59 -59v-227c0 -2 1 -20 10 -37c8 -13 21 -27 60 -27c38 0 52 14 59 27c10 17 11 35 11 37v227
c0 33 26 59 58 59z" />
    <glyph glyph-name="U.alt1.001" horiz-adv-x="576" 
d="M288 0c-101 0 -178 48 -219 136c-28 61 -29 120 -29 126v380c0 32 26 58 58 58h117c20 0 38 -10 49 -27l155 -243v212c0 32 26 58 58 58c33 0 59 -26 59 -58v-380c0 -6 -1 -65 -29 -126c-41 -88 -119 -136 -219 -136zM183 583h-26v-321s0 -41 19 -80
c22 -44 57 -65 112 -65s91 21 113 68c6 12 10 25 12 36z" />
    <glyph glyph-name="z" unicode="z" horiz-adv-x="488" 
d="M390 117c32 0 58 -26 58 -59c0 -32 -26 -58 -58 -58h-292c-22 0 -43 13 -53 34c-4 8 -5 16 -5 25c0 13 4 26 13 37l212 254h-167c-32 0 -58 26 -58 58c0 33 26 59 58 59h292c23 0 43 -13 53 -34c3 -8 5 -16 5 -24c0 -14 -4 -27 -13 -38l-212 -254h167z" />
    <glyph glyph-name="degree" unicode="&#xb0;" horiz-adv-x="428" 
d="M214 352c-96 0 -174 78 -174 174s78 174 174 174s174 -78 174 -174s-78 -174 -174 -174zM214 584c-32 0 -58 -26 -58 -58s26 -58 58 -58s58 26 58 58s-26 58 -58 58z" />
    <glyph glyph-name="g.002" horiz-adv-x="722" 
d="M363 379h260c33 0 59 -26 59 -58v-263c0 -23 -14 -45 -36 -54c-7 -3 -15 -4 -23 -4c-15 0 -30 6 -41 17l-25 25c-52 -28 -109 -42 -167 -42c-90 0 -179 34 -248 103c-66 66 -102 154 -102 247c0 94 36 181 102 248c68 68 158 102 248 102s179 -34 247 -102
c12 -12 17 -27 17 -42s-5 -30 -16 -41c-12 -12 -27 -17 -42 -17s-30 5 -41 17c-46 45 -105 68 -165 68s-120 -23 -165 -68c-46 -46 -68 -105 -68 -165s22 -120 68 -165c46 -46 105 -68 165 -68c27 0 53 4 79 13l-150 150c-12 11 -17 26 -17 41s5 29 17 41c11 11 26 17 44 17
zM565 262h-64l64 -63v63z" />
    <glyph glyph-name="zero" unicode="0" horiz-adv-x="546" 
d="M440 616c43 -53 66 -125 66 -208v-116c0 -170 -99 -292 -233 -292c-136 0 -233 124 -233 292v116c0 168 103 292 233 292c63 0 124 -31 167 -84zM390 292v116c0 85 -41 175 -117 175s-117 -90 -117 -175v-116c0 -100 45 -175 117 -175c70 0 117 73 117 175z" />
    <glyph glyph-name="s" unicode="s" horiz-adv-x="430" 
d="M291 294c77 -37 96 -85 99 -119v-11c0 -38 -14 -76 -41 -105c-35 -38 -86 -59 -145 -59c-66 0 -126 33 -156 85c-5 9 -8 20 -8 30c0 20 10 39 29 50c9 5 19 8 29 8c20 0 40 -11 51 -30s36 -26 55 -26c26 0 47 7 59 21c8 8 11 17 11 27c-5 12 -48 33 -82 41
c-1 0 -3 0 -4 1c-59 17 -130 56 -130 145c0 78 72 136 168 136c32 0 67 -10 94 -27c18 -11 28 -30 28 -50c0 -11 -3 -21 -9 -31c-11 -17 -29 -27 -49 -27c-11 0 -22 3 -32 9c-9 6 -22 9 -32 9c-36 0 -51 -15 -51 -19c0 -7 0 -20 44 -33c9 -2 40 -10 72 -25z" />
    <glyph glyph-name="t.002" horiz-adv-x="488" 
d="M448 379c0 -32 -26 -58 -58 -58h-66l118 -237c4 -8 6 -17 6 -26c0 -21 -12 -41 -32 -52c-8 -4 -17 -6 -26 -6c-21 0 -42 12 -52 32l-145 289h-95c-32 0 -58 26 -58 58s26 58 58 58h37l-89 179c-4 8 -6 16 -6 25c0 11 3 22 9 31c10 18 29 28 49 28h292c32 0 58 -26 58 -58
c0 -33 -26 -59 -58 -59h-197l73 -146h124c32 0 58 -26 58 -58z" />
    <glyph glyph-name="g.003" horiz-adv-x="517" 
d="M259 467c122 0 218 -107 218 -233v-409c0 -32 -26 -58 -58 -58h-262c-33 0 -59 26 -59 58c0 33 26 59 59 59h204v143c-31 -17 -65 -27 -102 -27c-121 0 -219 105 -219 234c0 128 98 233 219 233zM259 117c56 0 102 52 102 117c0 64 -46 116 -102 116
c-57 0 -102 -52 -102 -116c0 -65 45 -117 102 -117z" />
    <glyph glyph-name="j.002" horiz-adv-x="342" 
d="M244 467c32 0 58 -27 58 -59v-583c0 -32 -26 -58 -58 -58h-146c-32 0 -58 26 -58 58s26 59 58 59h87v524c0 32 26 59 59 59z" />
    <glyph glyph-name="k.002" horiz-adv-x="605" 
d="M373 275l175 -175c11 -12 17 -27 17 -42s-6 -30 -17 -41c-12 -11 -26 -17 -41 -17s-30 6 -42 17l-158 158h-150v-117c0 -32 -26 -58 -59 -58c-32 0 -58 26 -58 58v584c0 32 26 58 58 58c33 0 59 -26 59 -58v-117h150l158 158c11 11 26 17 41 17s30 -6 42 -17
c11 -12 17 -27 17 -42s-6 -30 -17 -41l-175 -175c-11 -11 -26 -17 -41 -17h-175v-116h175c15 0 30 -6 41 -17z" />
    <glyph glyph-name="m.002" horiz-adv-x="692" 
d="M610 698c25 -7 42 -30 42 -56v-584c0 -32 -26 -58 -58 -58s-58 26 -58 58v373l-122 -203l84 -140c6 -9 9 -20 9 -30c0 -20 -11 -39 -29 -50c-9 -5 -19 -8 -29 -8c-20 0 -40 10 -51 28l-52 87l-52 -87c-11 -18 -30 -28 -50 -28c-10 0 -21 3 -30 8c-18 11 -29 30 -29 50
c0 10 3 21 9 30l84 140l-121 203v-373c0 -32 -27 -58 -59 -58s-58 26 -58 58v584c0 26 17 49 43 56c5 1 10 2 15 2c20 0 40 -10 50 -28l198 -330l198 330c10 18 29 28 50 28c5 0 11 -1 16 -2z" />
    <glyph glyph-name="x" unicode="x" horiz-adv-x="459" 
d="M304 235l103 -138c8 -11 12 -24 12 -36c0 -18 -8 -35 -23 -46c-11 -8 -23 -12 -35 -12c-18 0 -35 8 -47 24l-83 111l-86 -115c-12 -15 -29 -23 -47 -23c-12 0 -24 4 -35 12c-15 11 -23 28 -23 46c0 12 4 24 12 35l106 142l-106 142c-8 10 -12 22 -12 34c0 18 8 36 23 47
c11 8 23 12 35 12c18 0 36 -8 47 -23l86 -115l83 111c11 15 29 23 47 23c12 0 24 -3 35 -11c15 -11 23 -28 23 -46c0 -12 -4 -25 -12 -36z" />
    <glyph glyph-name="e" unicode="e" horiz-adv-x="488" 
d="M258 0c-8 0 -14 0 -18 1c-61 3 -114 29 -150 74c-33 42 -50 97 -50 159c0 129 92 233 204 233c56 0 108 -23 146 -66c38 -41 58 -97 58 -157c0 -32 -26 -59 -58 -59h-227c10 -32 32 -66 83 -68h6c15 0 43 0 68 18c10 6 21 9 32 9c19 0 38 -9 49 -26c7 -9 10 -20 10 -31
c0 -19 -10 -39 -27 -50c-48 -32 -98 -37 -126 -37zM174 302h145c-15 30 -42 49 -75 49c-28 0 -54 -20 -70 -49z" />
    <glyph glyph-name="o" unicode="o" 
d="M273 467c129 0 234 -105 234 -234c0 -128 -105 -233 -234 -233c-128 0 -233 105 -233 233c0 129 105 234 233 234zM273 117c65 0 117 52 117 116c0 65 -52 117 -117 117c-64 0 -116 -52 -116 -117c0 -64 52 -116 116 -116z" />
    <glyph glyph-name="t" unicode="t" horiz-adv-x="430" 
d="M332 467c32 0 58 -26 58 -59c0 -32 -26 -58 -58 -58h-59v-292c0 -32 -26 -58 -58 -58s-58 26 -58 58v292h-59c-32 0 -58 26 -58 58c0 33 26 59 58 59h59v175c0 32 26 58 58 58s58 -26 58 -58v-175h59z" />
    <glyph glyph-name="k" unicode="k" horiz-adv-x="459" 
d="M268 233l134 -133c13 -13 17 -27 17 -42s-6 -30 -17 -41s-26 -17 -41 -17s-30 6 -41 17l-163 163v-122c0 -32 -27 -58 -59 -58s-58 26 -58 58v584c0 32 26 58 58 58s59 -26 59 -58v-355l163 163c11 11 26 16 41 16s29 -5 41 -16c11 -12 17 -27 17 -42s-6 -30 -17 -41z
" />
    <glyph glyph-name="c" unicode="c" horiz-adv-x="422" 
d="M259 0c-121 0 -219 105 -219 233c0 129 98 234 219 234c31 0 61 -7 90 -21c21 -9 33 -30 33 -52c0 -9 -2 -17 -6 -25c-10 -21 -30 -34 -52 -34c-8 0 -17 2 -25 6c-13 6 -26 9 -40 9c-56 0 -102 -52 -102 -117c0 -64 46 -116 102 -116c14 0 27 3 40 9c8 4 16 5 24 5
c22 0 43 -12 53 -33c4 -8 6 -16 6 -25c0 -22 -12 -43 -33 -53c-29 -13 -59 -20 -90 -20z" />
    <glyph glyph-name="fl" unicode="&#xfb02;" horiz-adv-x="546" 
d="M458 497c-4 -1 -9 -1 -13 -1c-27 0 -51 17 -58 44c-9 38 -32 43 -56 43h-29c-32 0 -43 -13 -50 -26c-7 -15 -8 -32 -8 -32v-58h58c32 0 59 -26 59 -59c0 -32 -27 -58 -59 -58h-58v-292c0 -32 -26 -58 -58 -58c-33 0 -59 26 -59 58v292h-29c-32 0 -58 26 -58 58
c0 33 26 59 58 59h29v58c0 7 1 45 21 84c29 59 84 91 154 91h29c86 0 150 -49 170 -132c1 -4 1 -9 1 -13c0 -26 -17 -51 -44 -58zM448 467c32 0 58 -27 58 -59v-350c0 -32 -26 -58 -58 -58s-58 26 -58 58v350c0 32 26 59 58 59z" />
    <glyph glyph-name="m.003" horiz-adv-x="663" 
d="M623 58c0 -32 -26 -58 -58 -58s-59 26 -59 58v292h-116v-292c0 -32 -26 -58 -58 -58c-33 0 -59 26 -59 58v292h-116v-292c0 -32 -27 -58 -59 -58s-58 26 -58 58v350c0 32 26 59 58 59h467c32 0 58 -27 58 -59v-350z" />
    <glyph glyph-name="P" unicode="P" horiz-adv-x="532" 
d="M98 0c-32 0 -58 26 -58 58v584c0 32 26 58 58 58h159c6 0 59 -1 114 -28c78 -39 121 -111 121 -205c0 -6 -1 -60 -28 -114c-39 -77 -113 -120 -207 -120h-100v-175c0 -32 -26 -58 -59 -58zM157 583v-233h100c50 0 82 17 101 53c16 30 17 62 17 64c0 50 -18 82 -56 101
c-30 15 -62 15 -62 15h-100z" />
    <glyph glyph-name="r" unicode="r" horiz-adv-x="313" 
d="M215 467c32 0 58 -26 58 -59c0 -32 -26 -58 -58 -58c-19 0 -44 -3 -54 -18c-3 -5 -4 -11 -4 -11v-263c0 -32 -26 -58 -59 -58c-32 0 -58 26 -58 58v350c0 33 26 59 58 59c15 0 28 -5 38 -14c22 9 48 14 79 14z" />
    <glyph glyph-name="zcaron" unicode="&#x17e;" horiz-adv-x="488" 
d="M244 540c-9 0 -18 2 -27 6l-116 59c-20 11 -32 30 -32 51c0 9 2 18 6 27c10 21 31 32 52 32c9 0 18 -2 26 -6l91 -45l90 45c9 4 17 6 26 6c21 0 42 -12 52 -32c4 -9 6 -18 6 -27c0 -21 -12 -40 -32 -51l-116 -59c-9 -4 -18 -6 -26 -6zM390 117c32 0 58 -26 58 -59
c0 -32 -26 -58 -58 -58h-292c-22 0 -43 13 -53 34c-4 8 -5 16 -5 25c0 13 4 26 13 37l212 254h-167c-32 0 -58 26 -58 58c0 33 26 59 58 59h292c23 0 43 -13 53 -34c3 -8 5 -16 5 -24c0 -14 -4 -27 -13 -38l-212 -254h167z" />
    <glyph glyph-name="yacute" unicode="&#xfd;" horiz-adv-x="529" 
d="M206 540c-21 0 -42 12 -52 32c-4 8 -6 17 -6 26c0 21 11 41 32 52l117 59c8 4 16 6 25 6c22 0 43 -12 53 -32c4 -8 6 -17 6 -26c0 -22 -12 -43 -32 -53l-117 -58c-8 -4 -17 -6 -26 -6zM483 383l-166 -350l-7 -11l-100 -221c-10 -22 -31 -34 -53 -34c-8 0 -17 1 -25 5
c-21 9 -33 31 -33 53c0 8 1 16 5 24l95 211l-153 323c-4 8 -6 16 -6 25c0 22 12 43 33 53c8 4 17 6 25 6c22 0 43 -13 53 -34l114 -239l113 239c10 21 31 34 53 34c8 0 17 -2 25 -6c21 -10 33 -31 33 -53c0 -9 -2 -17 -6 -25z" />
    <glyph glyph-name="aacute" unicode="&#xe1;" horiz-adv-x="488" 
d="M447 122l1 -64c0 -31 -27 -58 -58 -58c-23 0 -43 13 -52 32c-21 -11 -44 -19 -69 -24c-19 -3 -59 -7 -63 -7c-85 0 -144 43 -162 119c-3 11 -4 22 -4 33c0 28 9 55 26 77c23 30 71 66 179 70c14 0 29 1 44 1c10 0 24 0 38 -2c-3 16 -10 33 -20 39c-15 8 -33 12 -50 12
c-38 0 -76 -17 -97 -34c-11 -9 -24 -13 -37 -13c-17 0 -33 7 -45 21c-9 11 -13 24 -13 37c0 17 7 34 21 45c40 33 89 54 142 59c9 1 18 1 27 1c40 0 78 -9 109 -26c80 -45 83 -150 83 -161v-157zM318 170c2 4 4 9 4 12c-7 1 -17 2 -33 2c-13 0 -27 0 -40 -1
c-58 -2 -83 -14 -90 -23c-1 -1 -3 -3 -3 -7c0 -2 0 -4 1 -6c3 -12 7 -29 49 -29c18 0 33 3 38 4c2 1 3 1 4 1c37 7 60 29 70 47zM185 525c-21 0 -42 12 -52 32c-4 8 -6 17 -6 26c0 21 11 41 32 52l117 59c8 4 16 6 25 6c22 0 43 -12 53 -32c4 -9 6 -18 6 -27
c0 -21 -11 -41 -32 -52l-117 -58c-8 -4 -17 -6 -26 -6z" />
    <glyph glyph-name="agrave" unicode="&#xe0;" horiz-adv-x="488" 
d="M447 122l1 -64c0 -31 -27 -58 -58 -58c-23 0 -43 13 -52 32c-21 -11 -44 -19 -69 -24c-19 -3 -59 -7 -63 -7c-85 0 -144 43 -162 119c-3 11 -4 22 -4 33c0 28 9 55 26 77c23 30 71 66 179 70c14 0 29 1 44 1c10 0 24 0 38 -2c-3 16 -10 33 -20 39c-15 8 -33 12 -50 12
c-38 0 -76 -17 -97 -34c-11 -9 -24 -13 -37 -13c-17 0 -33 7 -45 21c-9 11 -13 24 -13 37c0 17 7 34 21 45c40 33 89 54 142 59c9 1 18 1 27 1c40 0 78 -9 109 -26c80 -45 83 -150 83 -161v-157zM318 170c2 4 4 9 4 12c-7 1 -17 2 -33 2c-13 0 -27 0 -40 -1
c-58 -2 -83 -14 -90 -23c-1 -1 -3 -3 -3 -7c0 -2 0 -4 1 -6c3 -12 7 -29 49 -29c18 0 33 3 38 4c2 1 3 1 4 1c37 7 60 29 70 47zM277 531l-117 58c-21 11 -32 31 -32 52c0 9 2 18 6 27c10 20 31 32 53 32c9 0 17 -2 25 -6l117 -59c21 -11 32 -31 32 -52c0 -9 -2 -18 -6 -26
c-10 -20 -31 -32 -52 -32c-9 0 -18 2 -26 6z" />
    <glyph glyph-name="talt.103" horiz-adv-x="546" 
d="M448 700c32 0 58 -26 58 -58v-88c0 -32 -26 -58 -58 -58s-58 26 -58 58v29h-59v-525c0 -32 -26 -58 -58 -58s-58 26 -58 58v525h-59v-29c0 -32 -26 -58 -58 -58s-58 26 -58 58v88c0 32 26 58 58 58h350z" />
    <glyph glyph-name="atilde" unicode="&#xe3;" horiz-adv-x="488" 
d="M447 122l1 -64c0 -31 -27 -58 -58 -58c-23 0 -43 13 -52 32c-21 -11 -44 -19 -69 -24c-19 -3 -59 -7 -63 -7c-85 0 -144 43 -162 119c-3 11 -4 22 -4 33c0 28 9 55 26 77c23 30 71 66 179 70c14 0 29 1 44 1c10 0 24 0 38 -2c-3 16 -10 33 -20 39c-15 8 -33 12 -50 12
c-38 0 -76 -17 -97 -34c-11 -9 -24 -13 -37 -13c-17 0 -33 7 -45 21c-9 11 -13 24 -13 37c0 17 7 34 21 45c40 33 89 54 142 59c9 1 18 1 27 1c40 0 78 -9 109 -26c80 -45 83 -150 83 -161v-157zM318 170c2 4 4 9 4 12c-7 1 -17 2 -33 2c-13 0 -27 0 -40 -1
c-58 -2 -83 -14 -90 -23c-1 -1 -3 -3 -3 -7c0 -2 0 -4 1 -6c3 -12 7 -29 49 -29c18 0 33 3 38 4c2 1 3 1 4 1c37 7 60 29 70 47zM287 554c-42 0 -73 29 -95 29c-10 -17 -29 -29 -51 -29c-32 0 -58 26 -58 58c0 31 24 88 117 88c42 0 70 -29 95 -29c10 17 29 29 51 29
c32 0 58 -26 58 -58c0 -63 -51 -88 -117 -88z" />
    <glyph glyph-name="ecircumflex" unicode="&#xea;" horiz-adv-x="488" 
d="M243 700c9 0 18 -2 27 -6l116 -59c20 -11 32 -30 32 -51c0 -9 -2 -18 -6 -27c-10 -21 -31 -32 -52 -32c-9 0 -18 2 -26 6l-91 45l-90 -45c-9 -4 -17 -6 -26 -6c-21 0 -42 12 -52 32c-4 9 -6 18 -6 27c0 21 12 40 32 51l116 59c9 4 18 6 26 6zM258 0c-8 0 -14 0 -18 1
c-61 3 -114 29 -150 74c-33 42 -50 97 -50 159c0 129 92 233 204 233c56 0 108 -23 146 -66c38 -41 58 -97 58 -157c0 -32 -26 -59 -58 -59h-227c10 -32 32 -66 83 -68h6c15 0 43 0 68 18c10 6 21 9 32 9c19 0 38 -9 49 -26c7 -9 10 -20 10 -31c0 -19 -10 -39 -27 -50
c-48 -32 -98 -37 -126 -37zM174 302h145c-15 30 -42 49 -75 49c-28 0 -54 -20 -70 -49z" />
    <glyph glyph-name="egrave" unicode="&#xe8;" horiz-adv-x="488" 
d="M277 531l-117 58c-21 11 -32 31 -32 52c0 9 2 18 6 27c10 20 31 32 53 32c9 0 17 -2 25 -6l117 -59c21 -11 32 -31 32 -52c0 -9 -2 -18 -6 -26c-10 -20 -31 -32 -52 -32c-9 0 -18 2 -26 6zM258 0c-8 0 -14 0 -18 1c-61 3 -114 29 -150 74c-33 42 -50 97 -50 159
c0 129 92 233 204 233c56 0 108 -23 146 -66c38 -41 58 -97 58 -157c0 -32 -26 -59 -58 -59h-227c10 -32 32 -66 83 -68h6c15 0 43 0 68 18c10 6 21 9 32 9c19 0 38 -9 49 -26c7 -9 10 -20 10 -31c0 -19 -10 -39 -27 -50c-48 -32 -98 -37 -126 -37zM174 302h145
c-15 30 -42 49 -75 49c-28 0 -54 -20 -70 -49z" />
    <glyph glyph-name="eacute" unicode="&#xe9;" horiz-adv-x="488" 
d="M185 525c-21 0 -42 12 -52 32c-4 8 -6 17 -6 26c0 21 11 41 32 52l117 59c8 4 16 6 25 6c22 0 43 -12 53 -32c4 -9 6 -18 6 -27c0 -21 -11 -41 -32 -52l-117 -58c-8 -4 -17 -6 -26 -6zM258 0c-8 0 -14 0 -18 1c-61 3 -114 29 -150 74c-33 42 -50 97 -50 159
c0 129 92 233 204 233c56 0 108 -23 146 -66c38 -41 58 -97 58 -157c0 -32 -26 -59 -58 -59h-227c10 -32 32 -66 83 -68h6c15 0 43 0 68 18c10 6 21 9 32 9c19 0 38 -9 49 -26c7 -9 10 -20 10 -31c0 -19 -10 -39 -27 -50c-48 -32 -98 -37 -126 -37zM174 302h145
c-15 30 -42 49 -75 49c-28 0 -54 -20 -70 -49z" />
    <glyph glyph-name="adieresis" unicode="&#xe4;" horiz-adv-x="488" 
d="M447 122l1 -64c0 -31 -27 -58 -58 -58c-23 0 -43 13 -52 32c-21 -11 -44 -19 -69 -24c-19 -3 -59 -7 -63 -7c-85 0 -144 43 -162 119c-3 11 -4 22 -4 33c0 28 9 55 26 77c23 30 71 66 179 70c14 0 29 1 44 1c10 0 24 0 38 -2c-3 16 -10 33 -20 39c-15 8 -33 12 -50 12
c-38 0 -76 -17 -97 -34c-11 -9 -24 -13 -37 -13c-17 0 -33 7 -45 21c-9 11 -13 24 -13 37c0 17 7 34 21 45c40 33 89 54 142 59c9 1 18 1 27 1c40 0 78 -9 109 -26c80 -45 83 -150 83 -161v-157zM318 170c2 4 4 9 4 12c-7 1 -17 2 -33 2c-13 0 -27 0 -40 -1
c-58 -2 -83 -14 -90 -23c-1 -1 -3 -3 -3 -7c0 -2 0 -4 1 -6c3 -12 7 -29 49 -29c18 0 33 3 38 4c2 1 3 1 4 1c37 7 60 29 70 47zM221 584c0 -33 -26 -59 -58 -59c-33 0 -59 26 -59 59c0 32 26 58 59 58c32 0 58 -26 58 -58zM384 584c0 -33 -26 -59 -58 -59s-58 26 -58 59
c0 32 26 58 58 58s58 -26 58 -58z" />
    <glyph glyph-name="edieresis" unicode="&#xeb;" horiz-adv-x="488" 
d="M221 584c0 -33 -26 -59 -58 -59c-33 0 -59 26 -59 59c0 32 26 58 59 58c32 0 58 -26 58 -58zM384 584c0 -33 -26 -59 -58 -59s-58 26 -58 59c0 32 26 58 58 58s58 -26 58 -58zM258 0c-8 0 -14 0 -18 1c-61 3 -114 29 -150 74c-33 42 -50 97 -50 159c0 129 92 233 204 233
c56 0 108 -23 146 -66c38 -41 58 -97 58 -157c0 -32 -26 -59 -58 -59h-227c10 -32 32 -66 83 -68h6c15 0 43 0 68 18c10 6 21 9 32 9c19 0 38 -9 49 -26c7 -9 10 -20 10 -31c0 -19 -10 -39 -27 -50c-48 -32 -98 -37 -126 -37zM174 302h145c-15 30 -42 49 -75 49
c-28 0 -54 -20 -70 -49z" />
    <glyph glyph-name="idieresis" unicode="&#xef;" horiz-adv-x="360" 
d="M157 584c0 -33 -26 -59 -58 -59c-33 0 -59 26 -59 59c0 32 26 58 59 58c32 0 58 -26 58 -58zM320 584c0 -33 -26 -59 -58 -59s-58 26 -58 59c0 32 26 58 58 58s58 -26 58 -58zM179 0c-32 0 -58 26 -58 58v350c0 32 26 59 58 59s59 -27 59 -59v-350c0 -32 -27 -58 -59 -58
z" />
    <glyph glyph-name="udieresis" unicode="&#xfc;" horiz-adv-x="454" 
d="M355 467c32 0 59 -26 59 -59v-227c0 -8 -1 -47 -23 -88c-31 -60 -90 -93 -164 -93c-75 0 -133 33 -164 93c-22 41 -23 80 -23 88v227c0 33 26 59 59 59c32 0 58 -26 58 -59v-227c0 -2 1 -20 11 -37c7 -13 20 -27 59 -27c38 0 52 14 59 27c10 17 11 35 11 37v227
c0 33 26 59 58 59zM204 584c0 -33 -26 -59 -58 -59c-33 0 -59 26 -59 59c0 32 26 58 59 58c32 0 58 -26 58 -58zM367 584c0 -33 -26 -59 -58 -59s-58 26 -58 59c0 32 26 58 58 58s58 -26 58 -58z" />
    <glyph glyph-name="ucircumflex" unicode="&#xfb;" horiz-adv-x="454" 
d="M355 467c32 0 59 -26 59 -59v-227c0 -8 -1 -47 -23 -88c-31 -60 -90 -93 -164 -93c-75 0 -133 33 -164 93c-22 41 -23 80 -23 88v227c0 33 26 59 59 59c32 0 58 -26 58 -59v-227c0 -2 1 -20 11 -37c7 -13 20 -27 59 -27c38 0 52 14 59 27c10 17 11 35 11 37v227
c0 33 26 59 58 59zM226 700c9 0 18 -2 27 -6l116 -59c20 -11 32 -30 32 -51c0 -9 -2 -18 -6 -27c-10 -21 -31 -32 -52 -32c-9 0 -18 2 -26 6l-91 45l-90 -45c-9 -4 -17 -6 -26 -6c-21 0 -42 12 -52 32c-4 9 -6 18 -6 27c0 21 12 40 32 51l116 59c9 4 18 6 26 6z" />
    <glyph glyph-name="uacute" unicode="&#xfa;" horiz-adv-x="454" 
d="M355 467c32 0 59 -26 59 -59v-227c0 -8 -1 -47 -23 -88c-31 -60 -90 -93 -164 -93c-75 0 -133 33 -164 93c-22 41 -23 80 -23 88v227c0 33 26 59 59 59c32 0 58 -26 58 -59v-227c0 -2 1 -20 11 -37c7 -13 20 -27 59 -27c38 0 52 14 59 27c10 17 11 35 11 37v227
c0 33 26 59 58 59zM168 525c-21 0 -42 12 -52 32c-4 8 -6 17 -6 26c0 21 11 41 32 52l117 59c8 4 16 6 25 6c22 0 43 -12 53 -32c4 -9 6 -18 6 -27c0 -21 -11 -41 -32 -52l-117 -58c-8 -4 -17 -6 -26 -6z" />
    <glyph glyph-name="ugrave" unicode="&#xf9;" horiz-adv-x="454" 
d="M99 467c32 0 58 -26 58 -59v-227c0 -2 1 -20 11 -37c7 -13 20 -27 59 -27c38 0 52 14 59 27c10 17 11 35 11 37v227c0 33 26 59 58 59s59 -26 59 -59v-227c0 -8 -1 -47 -23 -88c-31 -60 -90 -93 -164 -93c-75 0 -133 33 -164 93c-22 41 -23 80 -23 88v227
c0 33 26 59 59 59zM260 531l-117 58c-21 11 -32 31 -32 52c0 9 2 18 6 27c10 20 31 32 53 32c9 0 17 -2 25 -6l117 -59c21 -11 32 -31 32 -52c0 -9 -2 -18 -6 -26c-10 -20 -31 -32 -52 -32c-9 0 -18 2 -26 6z" />
    <glyph glyph-name="ograve" unicode="&#xf2;" 
d="M307 531l-117 58c-21 11 -32 31 -32 52c0 9 2 18 6 27c10 20 31 32 53 32c9 0 17 -2 25 -6l117 -59c21 -11 32 -31 32 -52c0 -9 -2 -18 -6 -26c-10 -20 -31 -32 -52 -32c-9 0 -18 2 -26 6zM273 467c129 0 234 -105 234 -234c0 -128 -105 -233 -234 -233
c-128 0 -233 105 -233 233c0 129 105 234 233 234zM273 117c65 0 117 52 117 116c0 65 -52 117 -117 117c-64 0 -116 -52 -116 -117c0 -64 52 -116 116 -116z" />
    <glyph glyph-name="oacute" unicode="&#xf3;" 
d="M215 525c-21 0 -42 12 -52 32c-4 8 -6 17 -6 26c0 21 11 41 32 52l117 59c8 4 16 6 25 6c22 0 43 -12 53 -32c4 -9 6 -18 6 -27c0 -21 -11 -41 -32 -52l-117 -58c-8 -4 -17 -6 -26 -6zM274 467c128 0 233 -105 233 -234c0 -128 -105 -233 -233 -233
c-129 0 -234 105 -234 233c0 129 105 234 234 234zM157 233c0 -64 52 -116 117 -116c64 0 116 52 116 116c0 65 -52 117 -116 117c-65 0 -117 -52 -117 -117z" />
    <glyph glyph-name="ocircumflex" unicode="&#xf4;" 
d="M273 700c9 0 18 -2 27 -6l116 -59c20 -11 32 -30 32 -51c0 -9 -2 -18 -6 -27c-10 -21 -31 -32 -52 -32c-9 0 -18 2 -26 6l-91 45l-90 -45c-9 -4 -17 -6 -26 -6c-21 0 -42 12 -52 32c-4 9 -6 18 -6 27c0 21 12 40 32 51l116 59c9 4 18 6 26 6zM274 467
c128 0 233 -105 233 -234c0 -128 -105 -233 -233 -233c-129 0 -234 105 -234 233c0 129 105 234 234 234zM157 233c0 -64 52 -116 117 -116c64 0 116 52 116 116c0 65 -52 117 -116 117c-65 0 -117 -52 -117 -117z" />
    <glyph glyph-name="odieresis" unicode="&#xf6;" 
d="M274 467c128 0 233 -105 233 -234c0 -128 -105 -233 -233 -233c-129 0 -234 105 -234 233c0 129 105 234 234 234zM157 233c0 -64 52 -116 117 -116c64 0 116 52 116 116c0 65 -52 117 -116 117c-65 0 -117 -52 -117 -117zM251 584c0 -33 -26 -59 -58 -59
c-33 0 -59 26 -59 59c0 32 26 58 59 58c32 0 58 -26 58 -58zM414 584c0 -33 -26 -59 -58 -59s-58 26 -58 59c0 32 26 58 58 58s58 -26 58 -58z" />
    <glyph glyph-name="otilde" unicode="&#xf5;" 
d="M317 554c-42 0 -73 29 -95 29c-10 -17 -29 -29 -51 -29c-32 0 -58 26 -58 58c0 31 24 88 117 88c42 0 70 -29 95 -29c10 17 29 29 51 29c32 0 58 -26 58 -58c0 -63 -51 -88 -117 -88zM274 467c128 0 233 -105 233 -234c0 -128 -105 -233 -233 -233
c-129 0 -234 105 -234 233c0 129 105 234 234 234zM157 233c0 -64 52 -116 117 -116c64 0 116 52 116 116c0 65 -52 117 -116 117c-65 0 -117 -52 -117 -117z" />
    <glyph glyph-name="ntilde" unicode="&#xf1;" horiz-adv-x="488" 
d="M287 554c-42 0 -73 29 -95 29c-10 -17 -29 -29 -51 -29c-32 0 -58 26 -58 58c0 31 24 88 117 88c42 0 70 -29 95 -29c10 17 29 29 51 29c32 0 58 -26 58 -58c0 -63 -51 -88 -117 -88zM390 467c32 0 58 -26 58 -59v-350c0 -24 -15 -46 -38 -54c-7 -3 -14 -4 -21 -4
c-17 0 -33 8 -44 21l-188 226v-189c0 -32 -26 -58 -59 -58c-32 0 -58 26 -58 58v350c0 25 15 47 38 55c7 3 14 4 21 4c17 0 33 -8 44 -21l189 -226v188c0 33 26 59 58 59z" />
    <glyph glyph-name="iacute" unicode="&#xed;" horiz-adv-x="313" 
d="M98 525c-21 0 -42 12 -52 32c-4 8 -6 17 -6 26c0 21 11 41 32 52l117 59c8 4 16 6 25 6c22 0 43 -12 53 -32c4 -9 6 -18 6 -27c0 -21 -11 -41 -32 -52l-117 -58c-8 -4 -17 -6 -26 -6zM156 0c-32 0 -58 26 -58 58v350c0 32 26 59 58 59s59 -27 59 -59v-350
c0 -32 -27 -58 -59 -58z" />
    <glyph glyph-name="igrave" unicode="&#xec;" horiz-adv-x="313" 
d="M189 531l-117 58c-21 11 -32 31 -32 52c0 9 2 18 6 27c10 20 31 32 53 32c9 0 17 -2 25 -6l117 -59c21 -11 32 -31 32 -52c0 -9 -2 -18 -6 -26c-10 -20 -31 -32 -52 -32c-9 0 -18 2 -26 6zM97 58v350c0 32 27 59 59 59s58 -27 58 -59v-350c0 -32 -26 -58 -58 -58
s-59 26 -59 58z" />
    <glyph glyph-name="icircumflex" unicode="&#xee;" horiz-adv-x="429" 
d="M214 700c9 0 18 -2 27 -6l116 -59c20 -11 32 -30 32 -51c0 -9 -2 -18 -6 -27c-10 -21 -31 -32 -52 -32c-9 0 -18 2 -26 6l-91 45l-90 -45c-9 -4 -17 -6 -26 -6c-21 0 -42 12 -52 32c-4 9 -6 18 -6 27c0 21 12 40 32 51l116 59c9 4 18 6 26 6zM156 58v350
c0 32 27 59 59 59s58 -27 58 -59v-350c0 -32 -26 -58 -58 -58s-59 26 -59 58z" />
    <glyph glyph-name="n" unicode="n" horiz-adv-x="488" 
d="M390 467c32 0 58 -26 58 -59v-350c0 -24 -15 -46 -38 -54c-7 -3 -14 -4 -21 -4c-17 0 -33 8 -44 21l-188 226v-189c0 -32 -26 -58 -59 -58c-32 0 -58 26 -58 58v350c0 25 15 47 38 55c7 3 14 4 21 4c17 0 33 -8 44 -21l189 -226v188c0 33 26 59 58 59z" />
    <glyph glyph-name="less" unicode="&#x3c;" horiz-adv-x="430" 
d="M332 88c-14 0 -28 5 -39 15l-233 204c-13 11 -20 27 -20 44s7 33 20 44l233 204c11 10 25 14 39 14c16 0 32 -6 44 -19c9 -11 14 -25 14 -39c0 -17 -7 -32 -20 -44l-183 -160l183 -160c13 -12 20 -27 20 -44c0 -14 -5 -28 -14 -39c-12 -13 -28 -20 -44 -20z" />
    <glyph glyph-name="O" unicode="O" horiz-adv-x="751" 
d="M375 0c-185 0 -335 157 -335 350s150 350 335 350s336 -157 336 -350s-151 -350 -336 -350zM375 583c-120 0 -218 -104 -218 -233s98 -233 218 -233c121 0 219 104 219 233s-98 233 -219 233z" />
    <glyph glyph-name="C" unicode="C" horiz-adv-x="628" 
d="M501 145c29 15 64 5 80 -24c15 -28 4 -63 -24 -79c-51 -27 -108 -42 -167 -42c-193 0 -350 157 -350 350s157 350 350 350c59 0 116 -15 167 -42c28 -16 39 -51 24 -79c-16 -29 -51 -39 -80 -24c-33 19 -72 28 -111 28c-128 0 -233 -104 -233 -233s105 -233 233 -233
c39 0 78 9 111 28z" />
    <glyph glyph-name="g" unicode="g" horiz-adv-x="517" 
d="M477 234v-234c0 -57 -19 -111 -54 -154c-41 -50 -102 -79 -165 -79h-14c-66 5 -128 43 -166 102c-6 10 -9 20 -9 31c0 19 10 38 27 49c10 7 21 10 32 10c19 0 37 -10 48 -27c18 -28 46 -46 76 -48h6c28 0 55 13 75 36c18 22 28 51 28 80v27c-31 -17 -65 -27 -102 -27
c-121 0 -219 105 -219 234c0 128 98 233 219 233c39 0 76 -11 109 -31c9 18 29 31 51 31c32 0 58 -26 58 -58v-175zM259 117c56 0 102 52 102 117c0 64 -46 116 -102 116c-57 0 -102 -52 -102 -116c0 -65 45 -117 102 -117z" />
    <glyph glyph-name="K" unicode="K" horiz-adv-x="546" 
d="M260 350l231 -252c10 -11 15 -26 15 -40c0 -32 -26 -58 -58 -58c-16 0 -31 6 -43 19l-248 272v-233c0 -32 -27 -58 -59 -58s-58 26 -58 58v584c0 32 26 58 58 58s59 -26 59 -58v-233l248 272c11 12 27 19 43 19c33 0 58 -27 58 -58c0 -15 -5 -29 -15 -40z" />
    <glyph glyph-name="n.alt1.002" horiz-adv-x="488" 
d="M389 0c-32 0 -58 26 -58 58v292h-175v-292c0 -32 -26 -58 -58 -58s-58 26 -58 58v350c0 32 26 59 58 59h291c33 0 59 -27 59 -59v-350c0 -32 -26 -58 -59 -58z" />
    <glyph glyph-name="s.alt1" horiz-adv-x="430" 
d="M291 294c77 -37 96 -85 99 -119v-11c0 -38 -14 -76 -41 -105c-35 -38 -86 -59 -145 -59c-66 0 -126 33 -156 85c-5 9 -8 20 -8 30c0 20 10 39 29 50c9 5 19 8 29 8c20 0 40 -11 51 -30s36 -26 55 -26c26 0 47 7 59 21c8 8 11 17 11 27c-5 12 -48 33 -82 41
c-1 0 -3 0 -4 1c-59 17 -130 56 -130 145c0 78 72 136 168 136c32 0 67 -10 94 -27c18 -11 28 -30 28 -50c0 -11 -3 -21 -9 -31c-11 -17 -29 -27 -49 -27c-11 0 -22 3 -32 9c-9 6 -22 9 -32 9c-36 0 -51 -15 -51 -19c0 -7 0 -20 44 -33c9 -2 40 -10 72 -25z" />
    <glyph glyph-name="c.alt1" horiz-adv-x="422" 
d="M259 0c-121 0 -219 105 -219 233c0 129 98 234 219 234c31 0 61 -7 90 -21c21 -9 33 -30 33 -52c0 -9 -2 -17 -6 -25c-10 -21 -30 -34 -52 -34c-8 0 -17 2 -25 6c-13 6 -26 9 -40 9c-56 0 -102 -52 -102 -117c0 -64 46 -116 102 -116c14 0 27 3 40 9c8 4 16 5 24 5
c22 0 43 -12 53 -33c4 -8 6 -16 6 -25c0 -22 -12 -43 -33 -53c-29 -13 -59 -20 -90 -20z" />
    <glyph glyph-name="e.alt1" horiz-adv-x="488" 
d="M258 0c-8 0 -14 0 -18 1c-61 3 -114 29 -150 74c-33 42 -50 97 -50 159c0 129 92 233 204 233c56 0 108 -23 146 -66c38 -41 58 -97 58 -157c0 -32 -26 -59 -58 -59h-227c10 -32 32 -66 83 -68h6c15 0 43 0 68 18c10 6 21 9 32 9c19 0 38 -9 49 -26c7 -9 10 -20 10 -31
c0 -19 -10 -39 -27 -50c-48 -32 -98 -37 -126 -37zM174 302h145c-15 30 -42 49 -75 49c-28 0 -54 -20 -70 -49z" />
    <glyph glyph-name="f.alt1" horiz-adv-x="400" 
d="M302 467c32 0 58 -26 58 -59c0 -32 -26 -58 -58 -58h-58v-292c0 -32 -26 -58 -59 -58c-32 0 -58 26 -58 58v292h-29c-32 0 -58 26 -58 58c0 33 26 59 58 59h29v175c0 32 26 58 58 58h117c32 0 58 -26 58 -58c0 -33 -26 -59 -58 -59h-58v-116h58z" />
    <glyph glyph-name="two" unicode="2" horiz-adv-x="494" 
d="M395 0h-296c-33 0 -59 26 -59 59c0 9 2 215 210 319c78 40 86 89 86 105v10c0 49 -40 89 -89 89s-89 -40 -89 -89c0 -33 -26 -59 -59 -59s-59 26 -59 59c0 114 93 207 207 207c113 0 206 -92 207 -205v-10c0 -40 -14 -144 -151 -213c-83 -41 -119 -106 -134 -154h226
c33 0 59 -26 59 -59s-26 -59 -59 -59z" />
    <glyph glyph-name="y.alt1" horiz-adv-x="488" 
d="M390 467c32 0 58 -26 58 -59v-357c-1 -1 -1 -2 -1 -3s0 -2 -1 -6l-5 -12l-116 -231c-10 -21 -31 -32 -52 -32c-9 0 -18 2 -26 6c-21 10 -32 31 -32 52c0 9 2 18 6 26l75 149h-198c-32 0 -58 26 -58 58v350c0 33 26 59 58 59s58 -26 58 -59v-291h176v291c0 33 26 59 58 59
z" />
    <glyph glyph-name="Y.alt1" horiz-adv-x="546" 
d="M448 700c32 0 58 -26 58 -58v-292c0 -32 -26 -58 -58 -58h-117v-234c0 -32 -26 -58 -58 -58s-58 26 -58 58v234h-117c-32 0 -58 26 -58 58v292c0 32 26 58 58 58s58 -26 58 -58v-234h234v234c0 32 26 58 58 58z" />
    <glyph glyph-name="x.alt1" horiz-adv-x="459" 
d="M304 235l103 -138c8 -11 12 -24 12 -36c0 -18 -8 -35 -23 -46c-11 -8 -23 -12 -35 -12c-18 0 -35 8 -47 24l-83 111l-86 -115c-12 -15 -29 -23 -47 -23c-12 0 -24 4 -35 12c-15 11 -23 28 -23 46c0 12 4 24 12 35l106 142l-106 142c-8 10 -12 22 -12 34c0 18 8 36 23 47
c11 8 23 12 35 12c18 0 36 -8 47 -23l86 -115l83 111c11 15 29 23 47 23c12 0 24 -3 35 -11c15 -11 23 -28 23 -46c0 -12 -4 -25 -12 -36z" />
    <glyph glyph-name="O.alt1" horiz-adv-x="780" 
d="M637 597c68 -68 103 -157 103 -247s-35 -180 -103 -248c-66 -66 -154 -102 -247 -102c-94 0 -181 36 -248 102c-68 68 -102 158 -102 248s34 179 102 247c67 67 154 103 248 103c93 0 181 -36 247 -103zM555 185c45 45 68 105 68 165s-23 119 -68 165
c-44 44 -103 68 -165 68s-121 -24 -165 -68c-46 -46 -68 -105 -68 -165s22 -120 68 -165c44 -44 103 -68 165 -68s121 24 165 68zM390 437c48 0 87 -39 87 -87s-39 -88 -87 -88s-88 40 -88 88s40 87 88 87z" />
    <glyph glyph-name="o.alt3" horiz-adv-x="751" 
d="M375 700c185 0 336 -157 336 -350s-151 -350 -336 -350s-335 157 -335 350s150 350 335 350zM594 350c0 129 -98 233 -219 233c-49 0 -95 -18 -132 -48l334 -274c11 27 17 57 17 89zM157 350c0 -129 98 -233 218 -233c51 0 97 18 134 49l-335 275
c-11 -28 -17 -59 -17 -91z" />
    <glyph glyph-name="o.alt1" 
d="M273 467c129 0 234 -105 234 -234c0 -128 -105 -233 -234 -233c-128 0 -233 105 -233 233c0 129 105 234 233 234zM273 117c65 0 117 52 117 116c0 65 -52 117 -117 117c-64 0 -116 -52 -116 -117c0 -64 52 -116 116 -116z" />
    <glyph glyph-name="R" unicode="R" horiz-adv-x="532" 
d="M376 261l107 -172c6 -10 9 -20 9 -31c0 -19 -10 -38 -28 -49c-9 -6 -20 -9 -30 -9c-20 0 -39 10 -50 27l-129 206h-98v-175c0 -32 -27 -58 -59 -58s-58 26 -58 58v584c0 32 26 58 58 58h159c6 0 59 -1 114 -28c78 -39 121 -111 121 -205c0 -6 -1 -60 -28 -114
c-21 -41 -51 -72 -88 -92zM157 583v-233h100c50 0 82 17 101 53c16 30 17 62 17 64c0 50 -18 82 -56 101c-30 15 -62 15 -62 15h-100z" />
    <glyph glyph-name="R.001" horiz-adv-x="517" 
d="M419 0c-20 0 -40 11 -51 30l-112 204c-4 -1 -9 -1 -13 -1h-86v-175c0 -32 -27 -58 -59 -58s-58 26 -58 58v234c0 32 26 58 58 58h94l-145 264c-5 9 -7 18 -7 27c0 10 3 21 8 30c11 18 30 29 50 29h145c6 0 59 -1 114 -28c78 -39 120 -111 120 -205c0 -6 0 -60 -28 -114
c-18 -37 -45 -66 -78 -86l99 -181c5 -9 7 -19 7 -28c0 -20 -11 -40 -30 -51c-9 -5 -18 -7 -28 -7zM243 583h-46l118 -214c11 8 21 20 29 34c16 30 17 62 17 64c0 50 -18 82 -56 101c-31 15 -62 15 -62 15z" />
    <glyph glyph-name="u.alt1" horiz-adv-x="453" 
d="M355 467c32 0 58 -26 58 -59v-227c0 -8 -1 -47 -22 -88c-32 -60 -90 -93 -164 -93c-75 0 -133 33 -164 93c-22 41 -23 80 -23 88v227c0 33 26 59 58 59s59 -26 59 -59v-227c0 -2 1 -20 10 -37c8 -13 21 -27 60 -27c38 0 52 14 59 27c10 17 11 35 11 37v227
c0 33 26 59 58 59z" />
    <glyph glyph-name="l.alt1" horiz-adv-x="197" 
d="M98 700c33 0 59 -26 59 -58v-584c0 -32 -26 -58 -59 -58c-32 0 -58 26 -58 58v584c0 32 26 58 58 58z" />
    <glyph glyph-name="d.alt1" 
d="M40 233c0 129 105 234 233 234c43 0 83 -12 117 -32v207c0 32 26 58 58 58c33 0 59 -26 59 -58v-584c0 -32 -26 -58 -59 -58c-23 0 -44 14 -53 34c-35 -21 -77 -34 -122 -34c-128 0 -233 105 -233 233zM157 233c0 -64 52 -116 116 -116c65 0 117 52 117 116
c0 65 -52 117 -117 117c-64 0 -116 -52 -116 -117z" />
    <glyph glyph-name="b.alt1" horiz-adv-x="517" 
d="M259 467c120 0 218 -105 218 -234c0 -128 -98 -233 -218 -233c-40 0 -77 11 -109 31c-10 -18 -29 -31 -52 -31c-32 0 -58 26 -58 58v584c0 32 26 58 58 58c33 0 59 -26 59 -58v-202c30 17 65 27 102 27zM259 117c56 0 102 52 102 116c0 65 -46 117 -102 117
c-57 0 -102 -52 -102 -117c0 -64 45 -116 102 -116z" />
    <glyph glyph-name="h.alt1" horiz-adv-x="518" 
d="M441 463c22 -9 37 -31 37 -55v-350c0 -32 -26 -58 -59 -58c-32 0 -58 26 -58 58v200l-219 -239c-12 -12 -27 -19 -43 -19c-7 0 -15 1 -22 4c-22 9 -37 30 -37 54v584c0 32 26 58 59 58c32 0 58 -26 58 -58v-434l219 240c12 12 27 19 43 19c7 0 15 -1 22 -4z" />
    <glyph glyph-name="q.alt1" 
d="M507 -175c0 -32 -26 -58 -59 -58c-32 0 -58 26 -58 58v207c-34 -20 -74 -32 -117 -32c-128 0 -233 105 -233 234c0 128 105 233 233 233c45 0 87 -13 122 -34c9 20 30 34 53 34c33 0 59 -26 59 -58v-584zM390 234c0 64 -52 116 -117 116c-64 0 -116 -52 -116 -116
c0 -65 52 -117 116 -117c65 0 117 52 117 117z" />
    <glyph glyph-name="j.alt1" horiz-adv-x="314" 
d="M274 612c0 -33 -26 -59 -58 -59c-33 0 -59 26 -59 59c0 32 26 58 59 58c32 0 58 -26 58 -58zM98 -175c-32 0 -58 26 -58 58c0 33 26 59 58 59c33 0 44 13 50 26c8 15 9 32 9 32v408c0 32 26 59 58 59c33 0 59 -27 59 -59v-408c0 -7 -1 -45 -21 -84
c-29 -59 -84 -91 -155 -91z" />
    <glyph glyph-name="three" unicode="3" 
d="M413 420c57 -43 94 -110 94 -187c0 -128 -105 -233 -234 -233c-128 0 -233 105 -233 233c0 33 26 59 58 59c33 0 59 -26 59 -59c0 -64 52 -116 116 -116c65 0 117 52 117 116c0 63 -52 117 -116 117c-33 0 -59 25 -59 58c0 85 117 33 117 117c0 32 -27 58 -59 58h-116
c-33 0 -59 26 -59 59c0 32 26 58 59 58h116c97 0 175 -79 175 -175c0 -39 -13 -76 -35 -105z" />
    <glyph glyph-name="z.alt1" horiz-adv-x="488" 
d="M390 117c32 0 58 -26 58 -59c0 -32 -26 -58 -58 -58h-292c-22 0 -43 13 -53 34c-4 8 -5 16 -5 25c0 13 4 26 13 37l212 254h-167c-32 0 -58 26 -58 58c0 33 26 59 58 59h292c23 0 43 -13 53 -34c3 -8 5 -16 5 -24c0 -14 -4 -27 -13 -38l-212 -254h167z" />
    <glyph glyph-name="v.alt1" horiz-adv-x="529" 
d="M456 461c21 -10 33 -31 33 -53c0 -9 -2 -17 -6 -25l-166 -350c-9 -20 -30 -33 -52 -33c-23 0 -43 13 -53 33l-166 350c-4 8 -6 16 -6 25c0 22 12 43 33 53c8 4 17 6 25 6c22 0 43 -13 53 -34l114 -239l113 239c10 21 31 34 53 34c8 0 17 -2 25 -6z" />
    <glyph glyph-name="S.alt1" horiz-adv-x="546" 
d="M273 0c-10 0 -21 3 -30 8c-18 11 -29 30 -29 50c0 10 3 21 9 31l122 203h-247c-21 0 -40 11 -51 29c-5 9 -7 19 -7 29s2 21 8 30l175 292c11 18 30 28 50 28c10 0 21 -3 30 -8c18 -11 29 -30 29 -50c0 -10 -3 -21 -9 -31l-122 -203h247c21 0 40 -11 51 -29
c5 -9 7 -19 7 -29s-2 -21 -8 -30l-175 -292c-11 -18 -30 -28 -50 -28z" />
    <glyph glyph-name="A.alt1" horiz-adv-x="663" 
d="M619 80c3 -7 4 -15 4 -22c0 -23 -13 -45 -36 -54c-7 -3 -14 -4 -21 -4c-23 0 -46 14 -55 37l-179 448l-147 -368h147c32 0 58 -26 58 -59c0 -32 -26 -58 -58 -58h-233c-20 0 -38 10 -49 26c-7 10 -10 21 -10 32c0 7 1 15 4 22l234 583c9 22 30 37 54 37s45 -15 54 -37z
" />
    <glyph glyph-name="at" unicode="@" horiz-adv-x="780" 
d="M390 700c193 0 350 -157 350 -350s-140 -251 -146 -253c-5 -2 -11 -4 -17 -4c-4 0 -8 1 -12 2c-52 13 -85 35 -100 67l-7 22c-24 -13 -51 -21 -80 -21c-96 0 -175 84 -175 187s79 187 175 187c32 0 61 -9 87 -25c8 15 23 25 41 25c26 0 46 -21 46 -47v-140v-140
c0 -4 0 -7 -1 -10c4 -3 10 -6 20 -10c25 16 76 61 76 160c0 142 -116 257 -257 257c-142 0 -257 -115 -257 -257s115 -257 257 -257c27 0 53 4 78 13c5 1 10 2 14 2c20 0 38 -13 45 -33c2 -5 2 -9 2 -14c0 -19 -12 -38 -32 -44c-35 -11 -71 -17 -107 -17
c-193 0 -350 157 -350 350s157 350 350 350zM379 257c45 0 82 41 82 93c0 51 -37 93 -82 93s-82 -42 -82 -93s37 -93 82 -93z" />
    <glyph glyph-name="E.alt1.002" 
d="M448 0h-350c-22 0 -42 12 -52 32c-4 8 -6 17 -6 26c0 12 4 24 11 34l185 258l-185 258c-7 10 -11 22 -11 34c0 9 2 18 6 26c10 20 30 32 52 32h350c33 0 59 -26 59 -58c0 -33 -26 -59 -59 -59h-236l144 -199c7 -10 10 -22 10 -34s-3 -25 -10 -34l-144 -199h236
c33 0 59 -26 59 -59c0 -32 -26 -58 -59 -58z" />
    <glyph glyph-name="D.alt1" horiz-adv-x="605" 
d="M268 0h-170c-32 0 -58 26 -58 58v584c0 32 26 58 58 58h170c4 0 297 1 297 -350s-293 -350 -297 -350zM157 583v-466h111c3 0 48 1 93 30c58 37 87 106 87 203c0 99 -30 168 -91 205c-44 27 -88 28 -89 28h-111z" />
    <glyph glyph-name="F.alt1" 
d="M98 700h350c32 0 59 -26 59 -58c0 -33 -27 -59 -59 -59h-291v-175h233c32 0 58 -26 58 -58s-26 -58 -58 -58h-233v-234c0 -32 -27 -58 -59 -58s-58 26 -58 58v584c0 32 26 58 58 58z" />
    <glyph glyph-name="G.alt1" horiz-adv-x="722" 
d="M448 379h175c32 0 59 -26 59 -58v-263c0 -32 -27 -58 -59 -58c-28 0 -52 20 -57 47c-53 -30 -113 -47 -176 -47c-190 0 -350 158 -350 350c0 193 160 350 350 350c93 0 181 -36 247 -103c11 -11 17 -27 17 -41c0 -31 -27 -58 -58 -58c-16 0 -29 5 -41 17
c-45 45 -106 68 -165 68c-122 0 -233 -101 -233 -233s111 -233 233 -233c60 0 119 22 165 68c3 3 6 6 10 8v69h-117c-32 0 -58 27 -58 59s26 58 58 58z" />
    <glyph glyph-name="H.alt1" horiz-adv-x="576" 
d="M477 700c33 0 59 -26 59 -58v-584c0 -32 -26 -58 -59 -58c-32 0 -58 26 -58 58v234h-262v-234c0 -32 -27 -58 -59 -58s-58 26 -58 58v584c0 32 26 58 58 58s59 -26 59 -58v-234h262v234c0 32 26 58 58 58z" />
    <glyph glyph-name="K.alt1" horiz-adv-x="606" 
d="M548 100c23 -23 23 -60 0 -83c-11 -11 -26 -17 -41 -17s-30 6 -41 17l-187 187h-122v-146c0 -32 -26 -58 -58 -58s-59 26 -59 58v584c0 32 27 58 59 58s58 -26 58 -58v-296l307 335c22 24 59 25 82 4c24 -22 26 -59 4 -83l-258 -281h11c15 0 30 -6 41 -17z" />
    <glyph glyph-name="L.alt1" horiz-adv-x="546" 
d="M448 0h-350c-32 0 -58 26 -58 58v584c0 32 26 58 58 58s58 -26 58 -58v-525h292c32 0 58 -26 58 -59c0 -32 -26 -58 -58 -58z" />
    <glyph glyph-name="X.alt1" horiz-adv-x="605" 
d="M559 669c4 -9 6 -18 6 -27c0 -12 -3 -24 -10 -34l-181 -258l181 -258c7 -10 10 -22 10 -34c0 -18 -8 -36 -24 -47c-11 -7 -22 -11 -34 -11c-18 0 -36 9 -48 25l-156 223l-156 -223c-12 -16 -30 -25 -48 -25c-12 0 -24 4 -34 11c-16 11 -25 29 -25 47c0 12 4 24 11 34
l181 258l-181 258c-7 10 -10 22 -10 34c0 9 2 18 6 27c10 19 30 31 52 31h408c22 0 42 -12 52 -31zM303 452l92 131h-184z" />
    <glyph glyph-name="t.alt3" 
d="M345 583l129 -64c21 -10 33 -30 33 -52c0 -5 -1 -9 -2 -14c-6 -26 -30 -45 -57 -45h-116v-350c0 -32 -26 -58 -59 -58c-32 0 -58 26 -58 58v350h-117c-32 0 -58 26 -58 59c0 32 26 58 58 58h103l-129 64c-20 12 -32 31 -32 52c0 5 1 9 2 14c6 26 29 45 56 45h350
c33 0 59 -26 59 -58c0 -33 -26 -59 -59 -59h-103z" />
    <glyph glyph-name="U.alt1" horiz-adv-x="575" 
d="M288 0c-100 0 -178 48 -219 136c-28 61 -29 120 -29 127v379c0 32 26 58 58 58s58 -26 58 -58v-379c0 -15 12 -146 132 -146c114 0 131 123 131 146v379c0 32 26 58 58 58s58 -26 58 -58v-379c0 -7 0 -66 -28 -127c-41 -88 -119 -136 -219 -136z" />
    <glyph glyph-name="Z" unicode="Z" 
d="M448 0h-350c-31 0 -58 26 -58 59c0 10 2 20 8 29l297 495h-247c-32 0 -58 26 -58 58c0 33 26 59 58 59h350c30 0 58 -25 58 -58c0 -11 -2 -21 -8 -30l-297 -495h247c32 0 59 -26 59 -59c0 -32 -27 -58 -59 -58z" />
    <glyph glyph-name="Z.alt1.002" 
d="M99 0c-32 0 -59 26 -59 58c0 33 27 59 59 59h247l-297 495c-6 9 -8 19 -8 30c0 33 28 58 58 58h350c32 0 58 -26 58 -59c0 -32 -26 -58 -58 -58h-247l297 -495c6 -9 8 -19 8 -29c0 -33 -27 -59 -58 -59h-350z" />
    <glyph glyph-name="W.alt1" horiz-adv-x="945" 
d="M869 695c23 -9 36 -31 36 -54c0 -7 -1 -15 -4 -22l-244 -583c-9 -22 -30 -36 -53 -36c-24 0 -45 14 -54 36l-77 185l-78 -185c-9 -22 -30 -36 -53 -36c-24 0 -45 14 -54 36l-244 583c-3 7 -4 15 -4 22c0 30 24 59 59 59c23 0 44 -14 53 -36l190 -454l67 163l-102 246
c-3 7 -5 15 -5 23c0 30 24 58 59 58c28 0 44 -14 53 -36l59 -140l58 140c9 22 30 36 53 36c35 0 59 -29 59 -59c0 -7 -1 -15 -4 -22l-103 -246l68 -163l189 454c9 22 30 36 53 36c8 0 16 -2 23 -5z" />
    <glyph glyph-name="I.alt1" horiz-adv-x="196" 
d="M98 0c-32 0 -58 26 -58 58v584c0 32 26 58 58 58s58 -26 58 -58v-584c0 -32 -26 -58 -58 -58z" />
    <glyph glyph-name="E.alt1" 
d="M448 0h-350c-32 0 -58 26 -58 58v584c0 15 6 30 17 41s26 17 41 17h350c33 0 59 -26 59 -58c0 -33 -27 -59 -59 -59h-291v-466h291c33 0 59 -26 59 -59c0 -32 -26 -58 -59 -58zM361 350c0 -32 -26 -58 -59 -58c-32 0 -58 26 -58 58s26 58 58 58c33 0 59 -26 59 -58z" />
    <glyph glyph-name="b.002" 
d="M409 437c54 0 98 -43 98 -97v-243c0 -53 -44 -97 -98 -97h-272c-53 0 -97 44 -97 97v506c0 53 46 97 103 97h144c57 0 103 -44 103 -97v-166h19zM157 583v-146h116v146h-116zM390 117v204h-233v-204h233z" />
    <glyph glyph-name="b.007" horiz-adv-x="460" 
d="M361 467c32 0 59 -26 59 -59v-350c0 -32 -27 -58 -59 -58h-262c-33 0 -59 26 -59 58v350c0 33 26 59 59 59c32 0 58 -26 58 -59v-291h146v291c0 33 26 59 58 59z" />
    <glyph glyph-name="b.009" horiz-adv-x="663" 
d="M623 58c0 -32 -26 -58 -58 -58s-59 26 -59 58v292h-116v-292c0 -32 -26 -58 -58 -58c-33 0 -59 26 -59 58v292h-116v-292c0 -32 -27 -58 -59 -58s-58 26 -58 58v350c0 32 26 59 58 59h467c32 0 58 -27 58 -59v-350z" />
    <glyph glyph-name="b.005" horiz-adv-x="488" 
d="M390 0h-292c-32 0 -58 26 -58 58c0 33 26 59 58 59h233v175h-233c-32 0 -58 26 -58 58v292c0 32 26 58 58 58h292c32 0 58 -26 58 -59c0 -32 -26 -58 -58 -58h-234v-175h234c32 0 58 -26 58 -58v-292c0 -32 -26 -58 -58 -58z" />
    <glyph glyph-name="b.006" 
d="M448 408c33 0 59 -26 59 -58v-292c0 -32 -26 -58 -59 -58c-32 0 -58 26 -58 58v234h-233v-234c0 -32 -26 -58 -59 -58c-32 0 -58 26 -58 58v584c0 32 26 58 58 58c33 0 59 -26 59 -58v-234h116v146c0 32 26 58 59 58c32 0 58 -26 58 -58v-146h58z" />
    <glyph glyph-name="b.020" horiz-adv-x="780" 
d="M740 642v-584c0 -32 -26 -58 -58 -58h-584c-32 0 -58 26 -58 58v584c0 32 26 58 58 58h584c32 0 58 -26 58 -58z" />
    <glyph glyph-name="b.003" horiz-adv-x="546" 
d="M448 0h-350c-32 0 -58 26 -58 58v584c0 32 26 58 58 58h350c32 0 58 -26 58 -59c0 -32 -26 -58 -58 -58h-292v-466h292c32 0 58 -26 58 -59c0 -32 -26 -58 -58 -58z" />
    <glyph glyph-name="b" unicode="b" horiz-adv-x="517" 
d="M259 467c120 0 218 -105 218 -234c0 -128 -98 -233 -218 -233c-40 0 -77 11 -109 31c-10 -18 -29 -31 -52 -31c-32 0 -58 26 -58 58v584c0 32 26 58 58 58c33 0 59 -26 59 -58v-202c30 17 65 27 102 27zM259 117c56 0 102 52 102 116c0 65 -46 117 -102 117
c-57 0 -102 -52 -102 -117c0 -64 45 -116 102 -116z" />
    <glyph glyph-name="m" unicode="m" horiz-adv-x="623" 
d="M418 467c121 0 165 -108 165 -181v-228c0 -32 -27 -58 -59 -58s-58 26 -58 58v228c0 6 -2 24 -10 40c-8 18 -18 24 -38 24s-31 -6 -39 -24c-7 -16 -9 -34 -9 -40v-228c0 -32 -27 -58 -59 -58s-58 26 -58 58v228c0 6 -2 24 -9 40c-9 17 -19 24 -39 24s-31 -7 -39 -24
c-7 -16 -9 -34 -9 -40v-228c0 -32 -26 -58 -59 -58c-32 0 -58 26 -58 58v350c0 32 26 59 58 59c15 0 28 -6 38 -14c20 9 42 14 69 14c46 0 81 -16 106 -39c26 23 61 39 107 39z" />
    <glyph glyph-name="j" unicode="j" horiz-adv-x="314" 
d="M274 612c0 -33 -26 -59 -58 -59c-33 0 -59 26 -59 59c0 32 26 58 59 58c32 0 58 -26 58 -58zM98 -175c-32 0 -58 26 -58 58c0 33 26 59 58 59c33 0 44 13 50 26c8 15 9 32 9 32v408c0 32 26 59 58 59c33 0 59 -27 59 -59v-408c0 -7 -1 -45 -21 -84
c-29 -59 -84 -91 -155 -91z" />
    <glyph glyph-name="fi.001" horiz-adv-x="634" 
d="M536 467c32 0 58 -26 58 -59c0 -32 -26 -58 -58 -58h-59v-292c0 -32 -26 -58 -58 -58s-58 26 -58 58v292h-88v-292c0 -32 -26 -58 -58 -58s-58 26 -58 58v292h-59c-32 0 -58 26 -58 58c0 33 26 59 58 59h59v175c0 32 26 58 58 58s58 -26 58 -58v-175h88v175
c0 32 26 58 58 58s58 -26 58 -58v-175h59z" />
    <glyph glyph-name="fi" unicode="&#xfb01;" horiz-adv-x="546" 
d="M448 467c32 0 55 -26 58 -59v-350c0 -32 -26 -58 -58 -58s-58 26 -58 58v292h-146v-292c0 -32 -26 -58 -59 -58c-32 0 -58 26 -58 58v292h-29c-32 0 -58 26 -58 58c0 33 26 59 58 59h29v58c0 7 1 45 21 84c29 59 84 91 154 91c32 0 58 -26 58 -58c0 -33 -26 -59 -58 -59
s-43 -13 -50 -26c-7 -15 -8 -32 -8 -32v-58h204zM448 525c-32 0 -58 26 -58 58c0 33 26 59 58 59s58 -26 58 -59c0 -32 -26 -58 -58 -58z" />
    <glyph glyph-name="O.alt3" horiz-adv-x="751" 
d="M375 700c185 0 336 -157 336 -350s-151 -350 -336 -350s-335 157 -335 350s150 350 335 350zM594 350c0 129 -98 233 -219 233c-49 0 -95 -18 -132 -48l334 -274c11 27 17 57 17 89zM157 350c0 -129 98 -233 218 -233c51 0 97 18 134 49l-335 275
c-11 -28 -17 -59 -17 -91z" />
    <glyph glyph-name="b.015" horiz-adv-x="1129" 
d="M739 700c94 0 182 -36 248 -103c66 -66 102 -154 102 -247c0 -94 -36 -181 -102 -248c-66 -66 -154 -102 -248 -102c-62 0 -122 16 -175 47c-52 -31 -112 -47 -175 -47c-93 0 -181 36 -247 102c-68 68 -102 158 -102 248s34 179 102 247c66 67 154 103 247 103
c63 0 123 -16 175 -47c53 31 113 47 175 47zM564 196c39 44 58 99 58 154s-19 110 -58 154c-39 -44 -58 -99 -58 -154s19 -110 58 -154zM224 185c45 -44 103 -68 165 -68c27 0 54 4 78 13c-52 64 -77 142 -77 220s25 156 77 220c-24 9 -51 13 -78 13
c-62 0 -120 -24 -165 -68c-46 -46 -68 -105 -68 -165s22 -120 68 -165zM904 185c45 44 69 103 69 165s-24 121 -69 165c-44 44 -102 68 -165 68c-26 0 -53 -4 -77 -13c51 -64 77 -142 77 -220s-26 -156 -77 -220c24 -9 51 -13 77 -13c63 0 121 24 165 68z" />
    <glyph glyph-name="T.alt1" 
d="M345 583l129 -64c21 -10 33 -30 33 -52c0 -5 -1 -9 -2 -14c-6 -26 -30 -45 -57 -45h-116v-350c0 -32 -26 -58 -59 -58c-32 0 -58 26 -58 58v350h-117c-32 0 -58 26 -58 59c0 32 26 58 58 58h103l-129 64c-20 12 -32 31 -32 52c0 5 1 9 2 14c6 26 29 45 56 45h350
c33 0 59 -26 59 -58c0 -33 -26 -59 -59 -59h-103z" />
    <glyph glyph-name="n.alt1" horiz-adv-x="488" 
d="M390 467c32 0 58 -26 58 -59v-350c0 -32 -26 -58 -58 -58s-58 26 -58 58v125l-175 116v-241c0 -32 -27 -58 -59 -58s-58 26 -58 58v350c0 22 12 42 31 52c9 5 19 7 28 7c11 0 22 -3 32 -10l201 -134v85c0 33 26 59 58 59z" />
    <glyph glyph-name="grave" unicode="`" horiz-adv-x="313" 
d="M189 531l-117 58c-21 11 -32 31 -32 52c0 9 2 18 6 27c10 20 31 32 53 32c9 0 17 -2 25 -6l117 -59c21 -11 32 -31 32 -52c0 -9 -2 -18 -6 -26c-10 -20 -31 -32 -52 -32c-9 0 -18 2 -26 6z" />
    <glyph glyph-name="acute" unicode="&#xb4;" horiz-adv-x="313" 
d="M98 525c-21 0 -42 12 -52 32c-4 8 -6 17 -6 26c0 21 11 41 32 52l117 59c8 4 16 6 25 6c22 0 43 -12 53 -32c4 -9 6 -18 6 -27c0 -21 -11 -41 -32 -52l-117 -58c-8 -4 -17 -6 -26 -6z" />
    <glyph glyph-name="dieresis" unicode="&#xa8;" horiz-adv-x="360" 
d="M157 584c0 -33 -26 -59 -58 -59c-33 0 -59 26 -59 59c0 32 26 58 59 58c32 0 58 -26 58 -58zM320 584c0 -33 -26 -59 -58 -59s-58 26 -58 59c0 32 26 58 58 58s58 -26 58 -58z" />
    <glyph glyph-name="mu" unicode="&#xb5;" horiz-adv-x="454" 
d="M355 466c33 0 59 -26 59 -58v-227c0 -8 -1 -48 -23 -89c-31 -59 -90 -92 -164 -92c-25 0 -49 4 -70 11v-70c0 -32 -26 -58 -58 -58c-33 0 -59 26 -59 58v467c0 32 26 58 59 58c32 0 58 -26 58 -58v-227c0 -2 1 -20 11 -37c7 -13 21 -28 59 -28c40 0 53 16 61 30
c8 17 9 34 9 35v227c0 32 26 58 58 58z" />
    <glyph glyph-name="b.004" horiz-adv-x="457" 
d="M98 235c-32 0 -58 26 -58 58v116c0 32 27 58 59 58h260c32 0 58 -26 58 -58s-26 -58 -58 -58h-203v-58c0 -32 -26 -58 -58 -58zM359 0h-260c-32 0 -58 26 -58 58s26 58 58 58h202v58c0 32 26 58 58 58s58 -26 58 -58v-116c0 -32 -26 -58 -58 -58z" />
    <glyph glyph-name="b.035" horiz-adv-x="721" 
d="M623 0c-32 0 -59 26 -59 58v525h-145v-525c0 -32 -26 -58 -59 -58c-32 0 -58 26 -58 58v525h-146v-525c0 -32 -26 -58 -58 -58s-58 26 -58 58v584c0 32 26 58 58 58h525c32 0 58 -26 58 -58v-584c0 -32 -26 -58 -58 -58z" />
    <glyph glyph-name="b.013" 
d="M502 664c9 -22 4 -47 -12 -64l-158 -157v-385c0 -32 -26 -58 -59 -58c-32 0 -58 26 -58 58v409c0 15 6 30 17 41l75 75h-209c-32 0 -58 26 -58 59c0 32 26 58 58 58h350c24 0 45 -14 54 -36z" />
    <glyph glyph-name="b.011" horiz-adv-x="459" 
d="M361 467c32 0 58 -27 58 -59v-350c0 -32 -26 -58 -58 -58c-33 0 -59 26 -59 58v292h-146v-292c0 -32 -26 -58 -58 -58s-58 26 -58 58v584c0 32 26 58 58 58s58 -26 58 -58v-175h205z" />
    <glyph glyph-name="b.025" horiz-adv-x="955" 
d="M901 96c9 -11 14 -25 14 -38c0 -17 -7 -33 -21 -44c-11 -10 -24 -14 -37 -14c-17 0 -34 7 -45 21l-118 142l-42 -41v-64c0 -32 -26 -58 -58 -58h-204c-23 0 -43 13 -52 32c-31 -20 -70 -32 -112 -32c-103 0 -186 72 -186 160c0 89 83 161 186 161c39 0 76 -11 106 -29v58
h-175c-33 0 -59 26 -59 58c0 33 26 59 59 59h233c32 0 58 -26 58 -59v-291h88v29v496c0 32 26 58 58 58s58 -26 58 -58v-355l163 163c11 11 26 16 41 16s30 -5 42 -16c11 -12 17 -27 17 -42s-6 -30 -17 -41l-122 -121zM226 117c33 0 69 18 69 43s-36 44 -69 44
s-69 -19 -69 -44s36 -43 69 -43z" />
    <glyph glyph-name="b.016" horiz-adv-x="453" 
d="M355 467c32 0 58 -26 58 -58v-496c0 -32 -26 -59 -58 -59h-146v-29c0 -32 -26 -58 -59 -58c-32 0 -58 26 -58 58v88c0 32 26 58 58 58h146v41c-21 -8 -44 -12 -70 -12c-74 0 -132 33 -164 93c-21 41 -22 81 -22 88v228c0 32 26 58 58 58s58 -26 58 -58v-227
c0 -2 1 -21 11 -37c7 -13 21 -28 59 -28c40 0 54 16 61 30c8 16 9 34 9 34v228c0 32 26 58 59 58z" />
    <glyph glyph-name="b.017" horiz-adv-x="809" 
d="M711 467c32 0 58 -26 58 -59v-350c0 -32 -26 -58 -58 -58c-33 0 -59 26 -59 58v292h-145v-292c0 -32 -27 -58 -59 -58s-58 26 -58 58v292h-29h-117v-292c0 -32 -26 -58 -58 -58c-33 0 -59 26 -59 58v292h-29c-32 0 -58 26 -58 58c0 33 26 59 58 59h29v58c0 7 1 45 21 84
c29 59 84 91 154 91c33 0 59 -26 59 -58c0 -33 -26 -59 -59 -59c-32 0 -43 -13 -50 -26c-7 -15 -8 -32 -8 -32v-58h117h29v58c0 7 1 45 21 84c29 59 84 91 154 91c32 0 58 -26 58 -58c0 -33 -26 -59 -58 -59c-33 0 -44 -13 -50 -26c-8 -15 -8 -32 -8 -32v-58h204zM711 525
c-33 0 -59 26 -59 58c0 33 26 59 59 59c32 0 58 -26 58 -59c0 -32 -26 -58 -58 -58z" />
    <glyph glyph-name="b.018" horiz-adv-x="984" 
d="M711 467c128 0 233 -105 233 -234c0 -128 -105 -233 -233 -233c-70 0 -133 31 -176 79l-13 -39c-8 -24 -30 -40 -55 -40s-47 16 -55 39l-68 194l-68 -194c-9 -23 -31 -39 -55 -39c-25 0 -47 16 -55 39l-123 350c-2 6 -3 13 -3 20c0 24 15 46 39 54c6 2 14 3 20 3
c24 0 45 -14 54 -38l68 -193l67 193c9 24 31 39 56 39c24 0 47 -15 55 -39l67 -190l14 43l4 9c26 101 117 177 227 177zM711 117c64 0 116 52 116 116c0 65 -52 117 -116 117c-65 0 -117 -52 -117 -117c0 -64 52 -116 117 -116z" />
    <glyph glyph-name="ampersand.001" horiz-adv-x="640" 
d="M521 176l67 -83c8 -10 11 -23 11 -35c0 -30 -21 -58 -56 -58c-17 0 -33 7 -44 21l-56 70l-32 -34c-37 -39 -97 -57 -148 -57c-123 0 -223 100 -223 223c0 92 56 172 136 206c-14 26 -22 56 -22 87c0 101 83 184 184 184c102 0 184 -83 184 -184c0 -32 -25 -57 -57 -57
c-84 0 -31 127 -127 127c-38 0 -70 -32 -70 -70c0 -25 5 -31 15 -43l53 -66l112 -140l53 57c10 11 26 17 43 17c13 0 27 -4 38 -14c12 -12 18 -27 18 -42c0 -14 -5 -27 -15 -38zM330 137l40 44l-120 150c-54 -6 -96 -52 -96 -108c0 -60 49 -109 109 -109c25 0 48 8 67 23z
" />
    <glyph glyph-name="b.014" horiz-adv-x="459" 
d="M99 0c-33 0 -59 26 -59 58v350c0 33 26 59 59 59h262c32 0 58 -26 58 -59v-175c0 -32 -26 -58 -58 -58h-204v-58h175c32 0 58 -26 58 -59c0 -32 -26 -58 -58 -58h-233zM303 292v58h-146v-58h146z" />
    <glyph glyph-name="b.012" horiz-adv-x="459" 
d="M361 467c32 0 58 -26 58 -59v-350c0 -32 -26 -58 -58 -58h-262c-33 0 -59 26 -59 58v175c0 33 26 59 59 59h204v58h-175c-32 0 -59 26 -59 58c0 33 27 59 59 59h233zM157 175v-58h146v58h-146z" />
    <glyph glyph-name="b.019" horiz-adv-x="517" 
d="M419 0c-18 0 -35 8 -47 23l-175 234c-7 10 -11 22 -11 34c0 9 2 19 6 27c10 20 30 32 52 32c0 0 32 1 62 16c37 19 55 51 55 101c0 49 -17 80 -53 99c-30 16 -62 17 -64 17h-87v-525c0 -32 -27 -58 -59 -58s-58 26 -58 58v584c0 32 26 58 58 58h146c6 0 59 -1 114 -28
c77 -39 119 -112 119 -205c0 -94 -42 -167 -119 -206l-14 -6l122 -162c8 -10 11 -22 11 -34c0 -18 -8 -36 -23 -47c-10 -8 -23 -12 -35 -12z" />
    <glyph glyph-name="ae" unicode="&#xe6;" horiz-adv-x="780" 
d="M740 243c0 -32 -26 -58 -58 -58h-225c13 -35 39 -66 81 -68c5 0 43 1 74 36c12 13 27 19 43 19c14 0 28 -5 39 -15c13 -12 19 -28 19 -44c0 -14 -5 -28 -15 -39c-40 -44 -99 -74 -163 -74c-60 0 -113 30 -150 77c-33 -46 -92 -77 -159 -77c-103 0 -186 72 -186 160
c0 89 83 161 186 161c39 0 76 -11 106 -29v58h-175c-33 0 -59 26 -59 58c0 33 26 59 59 59h233c21 0 39 -11 49 -28c29 18 62 28 97 28c56 0 108 -24 146 -66c37 -41 58 -97 58 -158zM226 117c33 0 69 18 69 43s-36 44 -69 44s-69 -19 -69 -44s36 -43 69 -43zM465 301h145
c-15 30 -42 49 -74 49c-29 0 -55 -19 -71 -49z" />
    <glyph glyph-name="b.021" horiz-adv-x="838" 
d="M565 467c128 0 233 -105 233 -233c0 -129 -105 -234 -233 -234c-19 0 -113 12 -123 33l-117 -234c-10 -20 -31 -32 -52 -32c-9 0 -18 2 -26 6c-21 11 -32 31 -32 52c0 9 2 18 6 26l74 149h-197c-32 0 -58 26 -58 59v350c0 32 26 58 58 58s58 -26 58 -58v-292h175v117
c0 128 105 233 234 233zM565 117c64 0 116 52 116 117c0 64 -52 116 -116 116c-63 0 -113 -49 -117 -116c0 -65 52 -117 117 -117z" />
    <glyph glyph-name="b.022" horiz-adv-x="692" 
d="M594 467c32 0 58 -27 58 -59v-350c0 -32 -26 -58 -58 -58h-204c-23 0 -43 13 -52 32c-32 -20 -70 -32 -112 -32c-103 0 -186 72 -186 160c0 89 83 161 186 161c39 0 75 -11 105 -29v58h-175c-32 0 -58 26 -58 58s26 59 58 59h234c32 0 58 -27 58 -59v-291h88v291
c0 32 26 59 58 59zM226 117c32 0 69 18 69 43s-37 44 -69 44c-33 0 -70 -19 -70 -44s37 -43 70 -43zM594 642c32 0 58 -27 58 -59s-26 -58 -58 -58s-58 26 -58 58s26 59 58 59z" />
    <glyph glyph-name="b.023" horiz-adv-x="750" 
d="M652 467c32 0 58 -27 58 -59v-350c0 -32 -26 -58 -58 -58s-58 26 -58 58v292h-119c20 -34 31 -74 31 -117c0 -128 -104 -233 -233 -233s-233 105 -233 233c0 129 104 234 233 234h379zM390 233c0 65 -53 117 -117 117s-117 -52 -117 -117c0 -64 53 -116 117 -116
s117 52 117 116zM652 642c32 0 58 -27 58 -59s-26 -58 -58 -58s-58 26 -58 58s26 59 58 59z" />
    <glyph glyph-name="b.027" 
d="M274 0c-23 0 -43 12 -53 32l-175 350c-4 8 -6 17 -6 26c0 22 12 42 32 52c9 4 17 6 26 6c21 0 38 -8 53 -32l123 -245l122 245c10 20 32 32 53 32c9 0 17 -2 26 -6c20 -10 32 -30 32 -52c0 -9 -2 -18 -6 -26l-175 -350c-10 -20 -30 -32 -52 -32zM332 408
c0 -32 -26 -58 -58 -58c-33 0 -59 26 -59 58c0 33 26 59 59 59c32 0 58 -26 58 -59z" />
    <glyph glyph-name="copyright" unicode="&#xa9;" horiz-adv-x="780" 
d="M461 426c-22 22 -49 32 -77 32c-27 0 -55 -10 -76 -31s-32 -48 -32 -77s11 -56 31 -76c22 -22 49 -32 77 -32s55 10 77 32c5 5 12 7 19 7s13 -2 19 -7c5 -6 7 -13 7 -20s-2 -14 -7 -19c-32 -31 -73 -47 -115 -47c-41 0 -83 16 -114 47s-48 72 -48 115s17 84 48 115
s72 47 114 47c41 0 83 -16 115 -47c5 -6 7 -13 7 -20s-2 -14 -7 -19c-6 -5 -12 -8 -19 -8s-14 3 -19 8zM638 597c66 -66 102 -154 102 -247c0 -94 -36 -181 -102 -248c-66 -66 -154 -102 -248 -102c-93 0 -181 36 -247 102c-69 69 -103 158 -103 248c0 89 34 179 102 247
c67 67 155 103 248 103c94 0 182 -36 248 -103zM555 185c44 44 69 103 69 165s-25 121 -69 165s-102 68 -165 68c-62 0 -121 -24 -165 -68c-46 -46 -68 -105 -68 -165s22 -120 68 -165c44 -44 103 -68 165 -68c63 0 121 24 165 68z" />
    <glyph glyph-name="registered" unicode="&#xae;" horiz-adv-x="780" 
d="M491 404c0 -43 -19 -77 -55 -95l-6 -3l56 -75c4 -5 5 -11 5 -16c0 -8 -4 -17 -11 -22c-4 -3 -10 -5 -16 -5c-8 0 -16 4 -21 11l-81 108c-4 5 -5 11 -5 17c0 4 0 7 2 11c5 9 14 15 24 15c0 0 15 0 29 7c17 9 25 24 25 47s-7 37 -24 46c-14 7 -29 8 -30 8h-40v-243
c0 -15 -12 -27 -27 -27s-27 12 -27 27v270c0 15 12 27 27 27h67c3 0 28 0 53 -13c36 -18 55 -52 55 -95zM638 597c66 -66 102 -154 102 -247c0 -94 -36 -181 -102 -247c-67 -67 -154 -103 -248 -103c-93 0 -181 36 -247 102c-69 69 -103 158 -103 248c0 89 34 179 102 247
c67 67 155 103 248 103c94 0 181 -36 248 -103zM555 185c44 44 68 103 68 165s-24 121 -68 165s-103 68 -165 68s-121 -24 -165 -68c-46 -46 -68 -105 -68 -165s22 -120 68 -165c44 -44 103 -68 165 -68s121 24 165 68z" />
    <glyph glyph-name="florin" unicode="&#x192;" horiz-adv-x="428" 
d="M330 469c32 0 58 -26 58 -58s-26 -58 -58 -58h-58v-319c0 -7 -1 -44 -21 -83c-29 -58 -83 -90 -153 -90c-32 0 -58 26 -58 58s26 58 58 58c31 0 42 12 49 23c7 14 9 30 9 35v318h-29c-32 0 -58 26 -58 58s26 58 58 58h29v57c0 7 1 45 21 84c29 58 83 90 153 90
c32 0 58 -26 58 -58s-26 -58 -58 -58c-31 0 -42 -12 -49 -23c-7 -14 -9 -30 -9 -35v-57h58z" />
    <glyph glyph-name="guillemotright" unicode="&#xbb;" horiz-adv-x="602" 
d="M545 391c11 -12 17 -26 17 -41s-6 -30 -17 -41l-175 -175c-11 -11 -26 -17 -41 -17c-14 0 -29 6 -40 17c-12 11 -17 26 -17 41s5 29 17 41l134 134l-134 134c-12 11 -17 26 -17 41s5 29 17 41c11 11 25 17 40 17s30 -6 41 -17zM314 391c11 -12 17 -27 17 -42
s-6 -29 -17 -40l-176 -175c-11 -11 -26 -17 -40 -17c-15 0 -30 6 -41 17c-12 11 -17 26 -17 41s5 29 17 41l134 134l-134 134c-12 11 -17 26 -17 41s5 29 17 41c11 11 26 17 40 17c15 0 29 -6 41 -17z" />
    <glyph glyph-name="guillemotleft" unicode="&#xab;" horiz-adv-x="602" 
d="M57 391l175 175c11 11 26 17 41 17s29 -6 40 -17c12 -12 17 -26 17 -41s-5 -30 -17 -41l-134 -134l134 -134c12 -12 17 -26 17 -41s-5 -30 -17 -41c-11 -11 -26 -17 -40 -17c-15 0 -30 6 -41 17l-175 175c-11 11 -17 26 -17 41s6 29 17 41zM288 391l176 175
c12 11 26 17 41 17c14 0 29 -6 40 -17c12 -12 17 -26 17 -41s-5 -30 -17 -41l-134 -134l134 -134c12 -12 17 -26 17 -41s-5 -30 -17 -41c-11 -11 -26 -17 -41 -17c-14 0 -29 6 -40 17l-176 175c-11 11 -17 25 -17 40s6 30 17 42z" />
    <glyph glyph-name="dotlessi" unicode="&#x131;" horiz-adv-x="282" 
d="M185 463c32 0 57 -26 57 -58v-347c0 -32 -25 -58 -57 -58s-58 26 -58 58v289h-29c-32 0 -58 26 -58 58s26 58 58 58h87z" />
    <glyph glyph-name="b.024" horiz-adv-x="430" 
d="M332 467c32 0 58 -26 58 -58v-467c0 -7 -1 -45 -21 -84c-29 -59 -84 -91 -154 -91c-32 0 -58 26 -58 58c0 33 26 59 58 59s43 13 50 26c8 15 8 32 8 32v408h-116v-291c0 -33 -26 -59 -59 -59c-32 0 -58 26 -58 59v350c0 32 26 58 58 58h234zM98 642c33 0 59 -27 59 -59
s-26 -58 -59 -58c-32 0 -58 26 -58 58s26 59 58 59zM332 642c32 0 58 -27 58 -59s-26 -58 -58 -58c-33 0 -59 26 -59 58s26 59 59 59z" />
    <glyph glyph-name="b.029" horiz-adv-x="488" 
d="M390 700c32 0 58 -26 58 -58c0 -33 -26 -59 -58 -59h-234v-291h175c33 0 59 -26 59 -59c0 -32 -26 -58 -59 -58h-175v-117c0 -32 -26 -58 -58 -58s-58 26 -58 58v584c0 32 26 58 58 58h292z" />
    <glyph glyph-name="b.036" horiz-adv-x="868" 
d="M804 361c23 -47 24 -93 24 -99v-204c0 -32 -26 -58 -58 -58c-33 0 -59 26 -59 58v204c0 2 -1 27 -13 50c-9 16 -26 38 -74 38h-59v-292c0 -32 -26 -58 -58 -58s-58 26 -58 58v292h-223c-32 0 -48 -11 -51 -16c0 -5 3 -15 43 -26c32 -7 163 -41 172 -140v-11
c0 -35 -13 -70 -39 -98c-34 -38 -87 -59 -147 -59c-67 0 -125 30 -156 81c-5 9 -8 19 -8 29c0 20 10 40 28 51c10 5 21 8 31 8c20 0 38 -10 49 -28c9 -15 31 -24 56 -24c27 0 49 7 61 21c6 6 9 12 9 19c-8 11 -48 30 -81 37c-2 0 -3 0 -4 1c-41 11 -72 27 -94 49
c-24 24 -37 56 -37 91c0 75 72 132 168 132h223v175c0 32 26 58 58 58s58 -26 58 -58v-175h59c82 0 146 -38 180 -106z" />
    <glyph glyph-name="b.030" horiz-adv-x="488" 
d="M448 408c0 -123 -54 -188 -104 -221l87 -87c11 -12 17 -27 17 -42s-6 -30 -17 -41s-26 -17 -41 -17s-30 6 -41 17l-129 129h-63v-88c0 -32 -27 -58 -59 -58s-58 26 -58 58v584c0 32 26 58 58 58h117c6 0 63 -1 120 -39c52 -35 113 -106 113 -253zM157 583v-321h57
c3 1 34 2 62 20c37 23 56 65 56 126c0 74 -20 126 -58 153c-28 20 -57 22 -60 22h-57z" />
    <glyph glyph-name="b.031" horiz-adv-x="488" 
d="M390 583h-234v-291h175c33 0 59 -26 59 -59c0 -32 -26 -58 -59 -58h-175v-58h234c32 0 58 -26 58 -59c0 -32 -26 -58 -58 -58h-292c-32 0 -58 26 -58 58v584c0 32 26 58 58 58h292c32 0 58 -26 58 -58c0 -33 -26 -59 -58 -59z" />
    <glyph glyph-name="b.034" horiz-adv-x="546" 
d="M448 700c32 0 58 -26 58 -58v-584c0 -32 -26 -58 -58 -58s-58 26 -58 58v292l-234 175v-467c0 -32 -26 -58 -58 -58s-58 26 -58 58v584c0 22 12 42 32 52s43 8 61 -6l257 -192v146c0 32 26 58 58 58z" />
    <glyph glyph-name="b.028" horiz-adv-x="488" 
d="M335 661c51 -35 113 -106 113 -253c0 -133 -63 -198 -116 -229c-56 -32 -111 -33 -117 -33h-59v-88c0 -32 -26 -58 -58 -58s-58 26 -58 58v584c0 32 26 58 58 58h117c6 0 63 -1 120 -39zM276 282c37 23 55 65 55 126c0 74 -19 126 -57 153c-28 20 -57 22 -60 22h-58v-321
h58c3 1 33 2 62 20z" />
    <glyph glyph-name="b.032" horiz-adv-x="546" 
d="M399 432c69 -40 107 -110 107 -199c0 -93 -42 -166 -119 -205c-55 -27 -108 -28 -114 -28h-175c-32 0 -58 26 -58 58v584c0 32 26 58 58 58h152c7 0 44 -1 83 -21c55 -30 86 -84 86 -154c0 -38 -8 -69 -20 -93zM250 583h-94v-116h115c22 0 31 22 31 58
c0 32 -12 43 -22 49c-11 7 -26 9 -30 9zM156 117h117c66 0 117 46 117 116c0 49 -17 81 -53 100c-30 16 -63 17 -64 17h-117v-233z" />
    <glyph glyph-name="b.033" horiz-adv-x="488" 
d="M335 661c51 -34 113 -106 113 -253v-116c0 -147 -62 -219 -113 -253c-57 -38 -114 -39 -120 -39h-117c-32 0 -58 26 -58 58v584c0 32 26 58 58 58h117c6 0 63 -1 120 -39zM331 292v116c0 74 -19 126 -57 153c-28 20 -57 22 -60 22h-58v-466h58c3 0 32 2 60 22
c38 27 57 79 57 153z" />
    <glyph glyph-name="b.026" horiz-adv-x="546" 
d="M448 0c-22 0 -42 12 -52 32l-123 246l-123 -246c-11 -21 -31 -32 -52 -32c-9 0 -18 2 -26 6c-20 11 -32 31 -32 52c0 9 2 18 6 26l175 350c10 20 30 33 52 33s42 -13 52 -33l175 -350c4 -8 6 -17 6 -26c0 -21 -11 -41 -32 -52c-9 -4 -18 -6 -26 -6zM214 58
c0 33 26 59 59 59c32 0 58 -26 58 -59c0 -32 -26 -58 -58 -58c-33 0 -59 26 -59 58z" />
    <glyph glyph-name="b.037" horiz-adv-x="838" 
d="M740 467c32 0 58 -26 58 -59c0 -32 -26 -58 -58 -58h-59v-292c0 -32 -26 -58 -58 -58s-58 26 -58 58v292h-59v-292c0 -32 -26 -58 -58 -58c-24 0 -44 14 -53 34c-36 -21 -77 -34 -122 -34c-129 0 -233 105 -233 233c0 129 104 234 233 234c43 0 82 -12 117 -32v207
c0 32 26 58 58 58s58 -26 58 -58v-175h59v175c0 32 26 58 58 58s58 -26 58 -58v-175h59zM273 117c64 0 117 52 117 116c0 65 -53 117 -117 117s-117 -52 -117 -117c0 -64 53 -116 117 -116z" />
    <glyph glyph-name="b.038" horiz-adv-x="751" 
d="M653 467c32 0 58 -26 58 -59c0 -32 -26 -58 -58 -58h-59v-292c0 -32 -26 -58 -58 -58s-58 26 -58 58v292h-93l-117 -117l134 -133c23 -23 23 -60 0 -83c-11 -11 -26 -17 -41 -17s-30 6 -41 17l-163 163v-122c0 -32 -26 -58 -59 -58c-32 0 -58 26 -58 58v584
c0 32 26 58 58 58c33 0 59 -26 59 -58v-355l163 163c11 11 25 17 41 17h117v175c0 32 26 58 58 58s58 -26 58 -58v-175h59z" />
    <glyph glyph-name="b.039" horiz-adv-x="868" 
d="M803 361c24 -47 25 -93 25 -99v-204c0 -32 -26 -58 -58 -58c-33 0 -59 26 -59 58v204c0 2 -1 27 -13 50c-9 16 -26 38 -74 38h-59v-292c0 -32 -26 -58 -58 -58s-58 26 -58 58v292h-189c-57 0 -103 -52 -103 -117c0 -64 46 -116 103 -116c13 0 26 3 39 9
c29 13 64 1 78 -28s1 -64 -28 -78c-28 -13 -58 -20 -89 -20c-121 0 -220 105 -220 233c0 129 99 234 220 234h189v175c0 32 26 58 58 58s58 -26 58 -58v-175h59c82 0 146 -38 179 -106z" />
    <glyph glyph-name="b.044" horiz-adv-x="896" 
d="M798 117c32 0 58 -26 58 -59c0 -32 -26 -58 -58 -58h-292c-20 0 -38 11 -49 27l-301 430v-399c0 -32 -26 -58 -58 -58s-58 26 -58 58v584c0 25 16 48 40 55c25 8 51 -1 66 -22l302 -432v399c0 32 26 58 58 58h292c32 0 58 -26 58 -58c0 -33 -26 -59 -58 -59h-233v-175
h175c32 0 58 -26 58 -58s-26 -58 -58 -58h-175v-175h233z" />
    <glyph glyph-name="N" unicode="N" horiz-adv-x="605" 
d="M507 0c-19 0 -37 9 -48 25l-302 432v-399c0 -32 -27 -58 -59 -58s-58 26 -58 58v584c0 30 24 58 59 58c18 0 36 -9 47 -25l302 -432v399c0 32 26 58 59 58c32 0 58 -26 58 -58v-584c0 -31 -26 -58 -58 -58z" />
    <glyph glyph-name="U" unicode="U" horiz-adv-x="575" 
d="M288 0c-100 0 -178 48 -219 136c-28 61 -29 120 -29 127v379c0 32 26 58 58 58s58 -26 58 -58v-379c0 -15 12 -146 132 -146c114 0 131 123 131 146v379c0 32 26 58 58 58s58 -26 58 -58v-379c0 -7 0 -66 -28 -127c-41 -88 -119 -136 -219 -136z" />
    <glyph glyph-name="b.041" horiz-adv-x="518" 
d="M419 117c33 0 59 -26 59 -59c0 -32 -26 -58 -59 -58c-102 0 -152 47 -177 86c-10 16 -16 31 -20 45c-12 -1 -24 -2 -34 -2c-11 0 -21 1 -31 3v-74c0 -32 -26 -58 -58 -58c-33 0 -59 26 -59 58v584c0 32 26 58 59 58c32 0 58 -26 58 -58v-252l37 27c45 33 90 49 133 49
c63 0 117 -36 140 -94c8 -18 11 -37 11 -55c0 -20 -4 -40 -14 -59c-21 -43 -64 -76 -128 -98c1 -5 4 -10 7 -15c13 -19 39 -28 76 -28zM175 255l5 -9c1 0 4 -1 8 -1c23 0 62 11 89 19c64 18 79 40 82 46c1 1 2 3 2 7c0 3 0 6 -2 11c-4 10 -13 22 -32 22
c-18 0 -41 -10 -65 -27c-15 -12 -28 -21 -40 -30c-19 -13 -38 -27 -48 -35c1 -1 1 -2 1 -3z" />
    <glyph glyph-name="b.042" horiz-adv-x="1014" 
d="M915 700c32 0 59 -26 59 -58v-584c0 -25 -17 -48 -41 -55c-6 -2 -12 -3 -18 -3c-18 0 -36 9 -48 25l-302 432v-399c0 -25 -16 -48 -41 -55c-6 -2 -12 -3 -18 -3c-18 0 -36 9 -47 25l-302 432v-399c0 -32 -26 -58 -58 -58c-33 0 -59 26 -59 58v584c0 25 17 48 41 55
c6 2 12 3 18 3c19 0 36 -9 47 -25l303 -432v399c0 25 16 48 40 55c6 2 12 3 18 3c19 0 37 -9 48 -25l302 -432v399c0 32 26 58 58 58z" />
    <glyph glyph-name="b.092" horiz-adv-x="1049" 
d="M390 700c93 0 181 -36 248 -103c47 -47 78 -106 92 -167l173 245c11 16 28 25 47 25c6 0 12 -1 18 -3c24 -7 41 -30 41 -55v-584c0 -32 -26 -58 -59 -58c-32 0 -58 26 -58 58v399l-209 -299c-13 -19 -28 -38 -46 -55c-66 -66 -154 -103 -247 -103c-94 0 -182 37 -248 103
s-102 154 -102 247c0 94 36 181 102 247c66 67 154 103 248 103zM225 185c44 -44 102 -68 165 -68c62 0 121 24 165 68c8 8 15 16 21 25l9 13c25 38 38 83 38 128c0 60 -23 119 -68 164c-44 44 -103 68 -165 68c-63 0 -121 -24 -165 -68s-69 -103 -69 -165s25 -121 69 -165z
" />
    <glyph glyph-name="b.048" horiz-adv-x="460" 
d="M291 117h70c32 0 59 -26 59 -59c0 -32 -27 -58 -59 -58h-262c-26 0 -49 17 -56 41c-2 6 -3 12 -3 18c0 19 10 37 26 48l103 68h-70c-26 0 -49 17 -56 41c-2 6 -3 12 -3 18c0 19 10 37 26 48l103 68h-70c-33 0 -59 26 -59 58c0 33 26 59 59 59h262c26 0 49 -17 56 -42
c2 -5 2 -10 2 -16c0 -19 -9 -38 -25 -49l-103 -68h70c26 0 49 -17 56 -42c2 -5 2 -10 2 -16c0 -19 -9 -38 -25 -49z" />
    <glyph glyph-name="greater" unicode="&#x3e;" horiz-adv-x="430" 
d="M98 88c-16 0 -32 7 -44 20c-9 11 -14 25 -14 39c0 17 7 32 20 44l183 160l-183 160c-13 12 -20 27 -20 44c0 14 5 28 14 39c12 13 28 19 44 19c14 0 28 -4 39 -14l233 -204c13 -11 20 -27 20 -44s-7 -33 -20 -44l-233 -204c-11 -10 -25 -15 -39 -15z" />
    <glyph glyph-name="greater.alt1" horiz-adv-x="694" 
d="M460 568l177 -177c11 -12 17 -26 17 -41s-6 -30 -17 -41l-177 -177c-11 -11 -26 -17 -41 -17s-30 6 -41 17c-12 11 -17 26 -17 41s5 30 17 42l79 79h-69l-161 -162c-11 -11 -26 -17 -41 -17s-30 6 -42 17c-11 12 -17 27 -17 42s6 30 17 41l80 79h-126
c-32 0 -58 26 -58 58s26 59 58 59h121l-75 74c-11 11 -17 26 -17 41s6 30 17 42c11 11 26 16 41 16s30 -5 42 -16l157 -157h69l-75 74c-12 11 -17 26 -17 41s5 30 17 42c11 11 26 16 41 16s30 -5 41 -16z" />
    <glyph glyph-name="b.043" horiz-adv-x="896" 
d="M798 117c32 0 58 -26 58 -59c0 -32 -26 -58 -58 -58h-292c-20 0 -38 11 -49 27l-301 430v-399c0 -32 -26 -58 -58 -58s-58 26 -58 58v584c0 25 16 48 40 55c25 8 51 -1 66 -22l302 -432v399c0 32 26 58 58 58h292c32 0 58 -26 58 -58c0 -33 -26 -59 -58 -59h-233v-175
h175c32 0 58 -26 58 -58s-26 -58 -58 -58h-175v-175h233z" />
    <glyph glyph-name="b.045" horiz-adv-x="606" 
d="M562 78c11 -31 -5 -64 -36 -75c-6 -2 -13 -3 -19 -3c-24 0 -47 15 -55 39l-50 143l-272 -173c-27 -17 -63 -9 -80 18c-18 27 -10 63 17 81l152 96h-62c-19 0 -37 10 -48 25c-11 16 -13 36 -6 54l146 380c8 22 30 37 55 37c24 0 46 -16 54 -39zM242 321h111l-53 151z" />
    <glyph glyph-name="b.094" horiz-adv-x="518" 
d="M71 518l321 175c9 5 18 7 27 7c10 0 21 -3 30 -8c18 -11 29 -30 29 -50v-584c0 -32 -26 -58 -59 -58c-32 0 -58 26 -58 58v183l-292 175c-18 11 -29 31 -29 52c1 21 12 40 31 50zM216 464l145 -87v166z" />
    <glyph glyph-name="b.049" horiz-adv-x="458" 
d="M412 434c4 -8 6 -17 6 -26c0 -12 -4 -25 -11 -35l-105 -140l105 -140c8 -10 11 -22 11 -34c0 -18 -8 -36 -23 -47c-10 -8 -23 -12 -35 -12c-17 0 -35 8 -46 23l-85 113l-85 -113c-11 -15 -29 -23 -47 -23c-12 0 -24 4 -34 12c-15 11 -23 29 -23 47c0 12 3 24 11 34
l105 140l-105 140c-7 10 -11 23 -11 35c0 9 2 18 6 26c9 20 30 33 52 33h262c22 0 42 -13 52 -33zM229 331l15 19h-30z" />
    <glyph glyph-name="b.054" horiz-adv-x="517" 
d="M419 467c32 0 58 -26 58 -59v-350c0 -32 -26 -58 -58 -58s-58 26 -58 58v289l-214 -321c-12 -16 -30 -26 -49 -26c-6 0 -11 1 -17 3c-24 7 -41 30 -41 55v584c0 32 26 58 58 58s58 -26 58 -58v-391l127 190c11 16 29 26 48 26h88z" />
    <glyph glyph-name="b.047" horiz-adv-x="518" 
d="M383 13l-113 90l-139 -93c-10 -7 -21 -10 -32 -10c-9 0 -19 2 -28 7c-19 10 -31 30 -31 51v584c0 32 26 58 58 58s58 -26 58 -58v-475l85 57c10 6 21 9 32 9c13 0 26 -4 37 -12l146 -117c14 -11 22 -29 22 -46c0 -13 -4 -25 -13 -36c-12 -15 -30 -22 -47 -22
c-13 0 -25 4 -35 13z" />
    <glyph glyph-name="b.095" horiz-adv-x="460" 
d="M52 93l193 257h-146c-32 0 -59 26 -59 58s27 59 59 59h259c7 0 15 -1 22 -3c18 -6 32 -21 37 -38c0 -1 1 -4 1 -6c1 -1 1 -4 1 -5s1 -5 1 -7v-350c0 -32 -26 -58 -59 -58c-32 0 -58 26 -58 58v175l-158 -210c-11 -15 -29 -23 -46 -23c-12 0 -25 4 -35 12
c-15 11 -23 29 -23 47c0 12 3 24 11 34z" />
    <glyph glyph-name="b.051" horiz-adv-x="343" 
d="M245 467c32 0 58 -26 58 -59c0 -32 -26 -58 -58 -58h-71l69 -278c8 -31 -11 -62 -42 -70c-5 -1 -10 -2 -15 -2c-26 0 -49 18 -56 44l-88 350c-4 18 0 36 11 50s28 23 46 23h146z" />
    <glyph glyph-name="b.052" horiz-adv-x="546" 
d="M489 683c11 -12 17 -27 17 -42s-6 -30 -17 -41l-58 -58c-11 -11 -26 -17 -41 -17c-9 0 -18 2 -26 6l-33 16v-489c0 -32 -26 -58 -58 -58s-58 26 -58 58v489l-33 -16c-8 -4 -17 -6 -26 -6c-15 0 -30 6 -41 17l-58 58c-12 11 -17 26 -17 41s5 30 17 42c11 11 26 17 41 17
s29 -6 41 -17l29 -29l79 40c1 0 1 1 3 1c1 1 4 2 5 2c1 1 5 1 5 2c2 0 3 0 6 1h12c1 0 2 -1 5 -1c1 0 3 -1 6 -1c1 -1 4 -2 5 -2s3 -1 5 -2l79 -40l29 29c11 11 26 17 41 17s29 -6 41 -17z" />
    <glyph glyph-name="b.057" horiz-adv-x="624" 
d="M567 275c11 -12 17 -27 17 -42s-6 -30 -17 -41l-53 -53l32 -49c6 -10 9 -20 9 -31c0 -19 -10 -38 -27 -50c-9 -6 -20 -9 -31 -9c-19 0 -38 9 -49 27l-22 32c-40 -37 -94 -59 -153 -59c-69 0 -131 26 -175 72c-38 41 -58 95 -58 151v15c7 95 93 149 156 176l-127 196
c-7 10 -10 21 -10 32c0 9 2 19 7 27c10 19 30 31 52 31h126c56 0 107 -18 145 -49c41 -34 64 -81 64 -132c0 -67 -28 -120 -84 -158l80 -122l36 36c11 11 26 16 41 16s29 -5 41 -16zM336 519c0 37 -39 64 -92 64c-1 0 -2 0 -4 1c-2 -1 -4 -1 -6 -1h-9l81 -124
c27 19 30 40 30 60zM273 117c37 0 69 16 88 44l-100 153c-43 -16 -102 -48 -104 -85v-7c0 -26 10 -51 27 -70c22 -23 52 -35 89 -35z" />
    <glyph glyph-name="b.093" horiz-adv-x="546" 
d="M98 700h350c24 0 45 -14 54 -36c3 -7 4 -15 4 -22c0 -15 -6 -31 -17 -42l-158 -157v-385c0 -32 -26 -58 -58 -58s-58 26 -58 58v409c0 15 6 30 17 41l75 75h-209c-32 0 -58 26 -58 59c0 32 26 58 58 58z" />
    <glyph glyph-name="b.055" horiz-adv-x="520" 
d="M98 350c-32 0 -58 26 -58 58c0 33 26 59 58 59h321c32 0 58 -26 58 -59v-146c0 -32 -26 -58 -58 -58s-58 26 -58 58v88h-263zM422 117c32 0 58 -26 58 -59c0 -32 -26 -58 -58 -58h-321c-32 0 -58 26 -58 58v146c0 32 26 58 58 58s59 -26 59 -58v-87h262z" />
    <glyph glyph-name="b.060" horiz-adv-x="546" 
d="M320 677l173 -232c8 -10 13 -23 13 -37c0 -32 -25 -55 -58 -58h-117v-292c0 -32 -26 -58 -58 -58s-58 26 -58 58v292h-117c-22 0 -42 12 -52 32c-4 8 -6 18 -6 27c0 12 4 24 11 34l175 234c11 14 29 23 47 23s36 -9 47 -23zM215 467h116l-58 77z" />
    <glyph glyph-name="b.056" horiz-adv-x="780" 
d="M390 700c193 0 350 -157 350 -350s-157 -350 -350 -350s-350 157 -350 350s157 350 350 350zM390 117c129 0 233 104 233 233s-104 233 -233 233s-233 -104 -233 -233s104 -233 233 -233zM425 468c11 11 26 17 41 17s30 -6 42 -17c11 -12 17 -27 17 -42s-6 -30 -17 -41
l-154 -153c-11 -11 -26 -17 -41 -17s-30 6 -41 17s-17 26 -17 41s6 29 17 41z" />
    <glyph glyph-name="b.058" horiz-adv-x="896" 
d="M628 0h-5c-22 0 -42 12 -52 32l-123 246l-123 -246c-10 -20 -30 -32 -52 -32h-5c-24 2 -44 19 -51 42l-175 583c-2 6 -2 11 -2 17c0 25 16 48 41 56c5 2 11 2 16 2c26 0 50 -16 57 -42l133 -442l109 218c10 20 30 33 52 33s42 -13 52 -33l109 -218l133 442
c8 26 31 42 57 42c5 0 11 0 16 -2c25 -8 41 -31 41 -56c0 -6 0 -11 -2 -17l-175 -583c-7 -23 -27 -40 -51 -42z" />
    <glyph glyph-name="b.061" horiz-adv-x="517" 
d="M453 455c16 -11 24 -29 24 -48c0 -6 0 -11 -2 -17c-8 -24 -31 -40 -56 -40h-262v-292c0 -32 -27 -58 -59 -58s-58 26 -58 58v350c0 33 26 59 58 59h142l-176 127c-16 11 -24 29 -24 47c0 6 1 13 3 19c8 24 30 40 55 40h321c32 0 58 -26 58 -58c0 -33 -26 -59 -58 -59
h-141z" />
    <glyph glyph-name="b.062" horiz-adv-x="728" 
d="M629 0c-32 0 -58 26 -58 58v525h-58v-525c0 -32 -26 -58 -58 -58h-182c-32 0 -58 26 -58 58v525h-58v-521c0 -33 -26 -59 -59 -59c-32 0 -58 26 -58 59v580c0 32 26 58 58 58h175c32 0 59 -26 59 -58v-525h64v525c0 32 26 58 59 58h175c32 0 58 -26 58 -58v-584
c0 -32 -26 -58 -59 -58z" />
    <glyph glyph-name="bullet" unicode="&#x2022;" horiz-adv-x="255" 
d="M215 350c0 -48 -39 -88 -87 -88s-88 40 -88 88s40 87 88 87s87 -39 87 -87z" />
    <glyph glyph-name="greaterequal" unicode="&#x2265;" horiz-adv-x="488" 
d="M358 309l-146 -146c-11 -11 -26 -17 -41 -17s-30 6 -41 17s-17 26 -17 41s6 30 17 42l104 104l-104 105c-11 12 -17 26 -17 41s6 30 17 41c12 11 26 17 41 17s30 -6 41 -17l146 -146c12 -11 17 -26 17 -41s-5 -30 -17 -41zM98 117h292c32 0 58 -26 58 -59
c0 -32 -26 -58 -58 -58h-292c-32 0 -58 26 -58 58c0 33 26 59 58 59z" />
    <glyph glyph-name="lessequal" unicode="&#x2264;" horiz-adv-x="488" 
d="M276 163l-146 146c-12 11 -17 26 -17 41s5 30 17 41l146 146c11 11 26 17 41 17s29 -6 41 -17c11 -11 17 -26 17 -41s-6 -29 -17 -41l-104 -105l104 -104c11 -12 17 -27 17 -42s-6 -30 -17 -41s-26 -17 -41 -17s-30 6 -41 17zM390 117c32 0 58 -26 58 -59
c0 -32 -26 -58 -58 -58h-292c-32 0 -58 26 -58 58c0 33 26 59 58 59h292z" />
    <glyph glyph-name="section" unicode="&#xa7;" horiz-adv-x="361" 
d="M264 246c31 -21 57 -53 57 -106c0 -77 -63 -140 -140 -140c-67 0 -125 47 -138 112c-1 3 -1 6 -1 9c0 19 14 36 33 39c3 1 5 1 8 1c18 0 36 -14 39 -32c6 -28 30 -48 59 -48c33 0 59 27 59 59c0 21 -5 40 -72 62l-5 2c-41 14 -123 45 -123 137c0 46 22 87 57 113
c-30 21 -57 53 -57 105c0 78 63 141 141 141c66 0 124 -47 137 -112c1 -3 1 -6 1 -9c0 -19 -13 -36 -32 -39c-3 -1 -6 -1 -9 -1c-19 0 -36 14 -39 32c-6 28 -30 48 -58 48c-33 0 -60 -27 -60 -60c0 -20 6 -39 72 -61l6 -2c40 -14 122 -45 122 -137c0 -46 -22 -87 -57 -113z
M181 401c-26 0 -59 -23 -59 -54c6 -28 30 -48 59 -48s58 24 58 54c-6 28 -30 48 -58 48z" />
    <glyph glyph-name="guilsinglright" unicode="&#x203a;" horiz-adv-x="386" 
d="M99 102c-15 0 -30 6 -42 17c-11 12 -17 27 -17 42s6 30 17 41l149 148l-149 148c-11 11 -17 26 -17 41s6 30 17 42c11 11 26 17 41 17s31 -5 42 -17l189 -190c11 -12 17 -26 17 -41s-6 -30 -17 -41l-189 -190c-12 -12 -27 -17 -41 -17z" />
    <glyph glyph-name="guilsinglleft" unicode="&#x2039;" horiz-adv-x="386" 
d="M287 102c-14 0 -29 5 -41 17l-189 190c-11 11 -17 26 -17 41s6 29 17 41l189 190c11 12 27 17 42 17s30 -6 41 -17c11 -12 17 -27 17 -42s-6 -30 -17 -41l-149 -148l149 -148c11 -11 17 -26 17 -41s-6 -30 -17 -42c-12 -11 -27 -17 -42 -17z" />
    <glyph glyph-name="fraction" unicode="&#x2044;" horiz-adv-x="313" 
d="M226 699c28 -5 47 -30 47 -58c0 -4 0 -7 -1 -11l-117 -583c-5 -28 -29 -47 -57 -47c-3 0 -7 0 -11 1c-28 5 -47 30 -47 58c0 4 0 7 1 11l117 583c5 28 30 47 57 47c4 0 7 0 11 -1z" />
    <glyph glyph-name="b.063" horiz-adv-x="553" 
d="M455 0h-182c-32 0 -58 26 -58 58v525h-59v-521c0 -33 -26 -59 -58 -59s-58 26 -58 59v580c0 32 26 58 58 58h175c32 0 58 -26 58 -58v-525h65v525c0 32 26 58 58 58c33 0 59 -26 59 -58v-584c0 -32 -26 -58 -58 -58z" />
    <glyph glyph-name="b.064" horiz-adv-x="546" 
d="M448 0h-350c-32 0 -58 26 -58 58v175c0 32 26 59 58 59h58v58c0 32 27 58 59 58h58v59c0 32 26 58 58 58h59v58h-292c-32 0 -58 26 -58 59c0 32 26 58 58 58h350c32 0 58 -26 58 -58v-175c0 -33 -26 -59 -58 -59h-58v-58c0 -32 -26 -58 -59 -58h-58v-59
c0 -32 -26 -58 -58 -58h-59v-58h292c32 0 58 -26 58 -59c0 -32 -26 -58 -58 -58z" />
    <glyph glyph-name="b.065" horiz-adv-x="313" 
d="M215 0h-117c-32 0 -58 26 -58 58c0 33 26 59 58 59h58v77h-58c-32 0 -58 27 -58 59v194c0 32 26 59 58 59h58v77h-58c-32 0 -58 26 -58 58c0 33 26 59 58 59h117c32 0 58 -26 58 -58v-195c0 -32 -26 -58 -58 -58h-59v-78h59c32 0 58 -26 58 -58v-195
c0 -32 -26 -58 -58 -58z" />
    <glyph glyph-name="b.066" horiz-adv-x="661" 
d="M570 0h-7c-29 0 -53 21 -58 50l-18 133c-1 10 -4 18 -6 27c-5 12 -13 22 -24 31c-42 34 -121 47 -199 50c-21 -70 -38 -150 -45 -238c-3 -31 -29 -53 -59 -53h-4c-30 3 -53 28 -53 58v5c6 81 21 156 39 224l-29 -3c-3 0 -6 -1 -9 -1c-28 0 -52 21 -57 50c0 3 -1 6 -1 9
c0 28 22 52 50 57c2 0 35 5 83 7c61 165 135 264 139 271c11 14 29 23 47 23s36 -9 47 -23c22 -22 127 -187 188 -436c4 -12 7 -26 8 -39c9 -44 15 -90 19 -139v-5c0 -29 -22 -54 -51 -58zM299 406c49 -4 92 -11 129 -23c-23 61 -48 111 -69 149c-18 -33 -39 -76 -60 -126z
" />
    <glyph glyph-name="b.077" 
d="M273 0c-128 0 -233 105 -233 233c0 33 26 59 58 59s59 -26 59 -59c0 -64 52 -116 116 -116c65 0 117 52 117 116c0 65 -52 117 -117 117h-116c-33 0 -59 26 -59 58v234c0 32 26 58 59 58h116c97 0 175 -79 175 -175c0 -38 -12 -75 -35 -105c57 -43 94 -110 94 -187
c0 -128 -105 -233 -234 -233zM215 583v-116h64c29 3 53 28 53 58c0 32 -27 58 -59 58h-58z" />
    <glyph glyph-name="b.068" horiz-adv-x="780" 
d="M215 350c96 0 175 -79 175 -175c0 -97 -79 -175 -175 -175c-97 0 -175 78 -175 175c0 96 78 175 175 175zM215 117c32 0 58 26 58 58s-26 58 -58 58s-58 -26 -58 -58s26 -58 58 -58zM390 525c0 -97 -79 -175 -175 -175c-97 0 -175 78 -175 175c0 96 78 175 175 175
c96 0 175 -79 175 -175zM215 467c32 0 58 26 58 58s-26 58 -58 58s-58 -26 -58 -58s26 -58 58 -58zM565 350c96 0 175 -79 175 -175c0 -97 -79 -175 -175 -175c-97 0 -175 78 -175 175c0 96 78 175 175 175zM565 117c32 0 58 26 58 58s-26 58 -58 58s-58 -26 -58 -58
s26 -58 58 -58zM565 350c-97 0 -175 78 -175 175c0 96 78 175 175 175c96 0 175 -79 175 -175c0 -97 -79 -175 -175 -175zM565 583c-32 0 -58 -26 -58 -58s26 -58 58 -58s58 26 58 58s-26 58 -58 58z" />
    <glyph glyph-name="b.069" horiz-adv-x="926" 
d="M98 0c-32 0 -58 26 -58 58v584c0 22 13 43 33 52c8 4 16 6 25 6c13 0 26 -5 37 -13l634 -507v462c0 32 26 58 58 58c33 0 59 -26 59 -58v-584c0 -22 -13 -42 -33 -52c-8 -4 -16 -6 -25 -6c-13 0 -26 5 -37 13l-634 507v-462c0 -32 -26 -58 -59 -58z" />
    <glyph glyph-name="onehalf" unicode="&#xbd;" horiz-adv-x="673" 
d="M515 691c17 -11 26 -30 26 -49c0 -11 -3 -22 -9 -32l-380 -583c-11 -18 -29 -27 -48 -27c-11 0 -22 3 -32 9c-17 11 -27 30 -27 49c0 11 3 22 10 32l379 583c11 17 30 27 50 27c11 0 21 -3 31 -9zM543 146c-23 -14 -40 -35 -53 -54h109c19 0 34 -15 34 -34
c0 -18 -15 -34 -34 -34h-164c-11 0 -22 6 -28 15c-5 6 -7 13 -7 20c0 4 1 7 2 11c2 3 31 86 104 134c46 29 59 42 59 66c0 25 -21 46 -48 46s-48 -21 -48 -46c0 -19 -16 -34 -34 -34c-19 0 -34 15 -34 34c0 63 52 114 116 114s116 -51 116 -114c0 -65 -46 -95 -90 -124z
M72 608c-17 1 -32 16 -32 34s16 34 34 34h32c19 0 35 -16 35 -34v-292c0 -19 -16 -34 -35 -34c-18 0 -34 15 -34 34v258z" />
    <glyph glyph-name="onequarter" unicode="&#xbc;" horiz-adv-x="642" 
d="M514 691c17 -11 27 -30 27 -49c0 -11 -3 -22 -10 -32l-379 -583c-11 -18 -30 -27 -49 -27c-11 0 -22 3 -32 9c-17 11 -26 30 -26 49c0 11 3 22 9 32l380 583c11 17 30 27 49 27c11 0 21 -3 31 -9zM72 608c-18 1 -32 16 -32 34s15 34 34 34h32c19 0 34 -16 34 -34v-292
c0 -19 -15 -34 -34 -34s-34 15 -34 34v258zM602 327v-262c0 -19 -15 -34 -34 -34s-34 15 -34 34v113h-112c-18 0 -34 15 -34 34v115c0 19 16 34 34 34c19 0 35 -15 35 -34v-81h77v81c0 19 15 34 34 34s34 -15 34 -34z" />
    <glyph glyph-name="onesuperior" unicode="&#xb9;" horiz-adv-x="181" 
d="M107 316c-19 0 -34 15 -34 34v258c-18 1 -33 16 -33 34s16 34 34 34h33c18 0 34 -16 34 -34v-292c0 -19 -16 -34 -34 -34z" />
    <glyph glyph-name="threequarters" unicode="&#xbe;" horiz-adv-x="704" 
d="M573 691c17 -11 26 -30 26 -49c0 -11 -3 -22 -9 -32l-379 -583c-12 -18 -30 -27 -49 -27c-11 0 -22 3 -32 9c-17 11 -27 30 -27 49c0 11 3 22 10 32l379 583c11 17 31 27 50 27c11 0 21 -3 31 -9zM283 432c0 -62 -54 -113 -121 -113s-122 51 -122 113c0 19 15 34 34 34
s34 -15 34 -34c0 -25 24 -45 54 -45c29 0 53 20 53 45s-24 46 -53 46c-19 0 -34 15 -34 34c0 18 15 34 34 34c20 0 37 14 37 31s-17 31 -37 31c-21 0 -38 -14 -38 -31c0 -19 -15 -34 -34 -34s-34 15 -34 34c0 54 47 99 106 99c58 0 105 -45 105 -99c0 -24 -8 -45 -23 -62
c24 -21 39 -50 39 -83zM664 321v-263c0 -19 -15 -34 -34 -34s-34 15 -34 34v114h-112c-19 0 -34 15 -34 34v115c0 18 15 34 34 34s34 -16 34 -34v-81h78v81c0 18 15 34 34 34s34 -16 34 -34z" />
    <glyph glyph-name="threesuperior" unicode="&#xb3;" horiz-adv-x="323" 
d="M244 512c24 -20 39 -50 39 -83c0 -62 -55 -113 -122 -113s-121 51 -121 113c0 19 15 34 34 34c18 0 34 -15 34 -34c0 -25 24 -45 53 -45c30 0 54 20 54 45c0 26 -24 46 -54 46c-19 0 -34 15 -34 34s15 34 34 34c21 0 38 14 38 31s-17 31 -38 31s-37 -14 -37 -31
c0 -19 -16 -34 -34 -34c-19 0 -34 15 -34 34c0 55 47 99 105 99s106 -44 106 -99c0 -23 -9 -45 -23 -62z" />
    <glyph glyph-name="twosuperior" unicode="&#xb2;" horiz-adv-x="313" 
d="M239 316h-165c-11 0 -21 5 -28 14c-4 6 -6 13 -6 20c0 4 1 7 2 11s31 87 103 134c47 30 60 42 60 66c0 26 -22 47 -48 47c-27 0 -49 -21 -49 -47c0 -18 -15 -34 -34 -34s-34 16 -34 34c0 63 52 115 117 115c64 0 116 -52 116 -115c0 -64 -46 -94 -90 -123
c-23 -15 -41 -35 -53 -54h109c19 0 34 -15 34 -34s-15 -34 -34 -34z" />
    <glyph glyph-name="brokenbar" unicode="&#xa6;" horiz-adv-x="196" 
d="M98 -58c-32 0 -58 26 -58 58v262c0 33 26 59 58 59s58 -26 58 -59v-262c0 -32 -26 -58 -58 -58zM98 379c-32 0 -58 26 -58 58v255c0 32 26 58 58 58s58 -26 58 -58v-255c0 -32 -26 -58 -58 -58z" />
    <glyph glyph-name="minus" unicode="&#x2212;" horiz-adv-x="529" 
d="M430 411c33 0 59 -26 59 -58s-26 -58 -59 -58h-331c-32 0 -59 26 -59 58s27 58 59 58h331z" />
    <glyph glyph-name="multiply" unicode="&#xd7;" horiz-adv-x="402" 
d="M283 350l62 -62c11 -12 17 -26 17 -41s-6 -30 -17 -41c-11 -12 -26 -17 -41 -17s-29 6 -41 17l-62 61l-62 -61c-11 -11 -26 -17 -41 -17s-30 5 -41 17c-12 11 -17 26 -17 41s5 29 17 41l61 62l-61 62c-11 11 -17 26 -17 41s5 30 17 41c11 11 26 17 41 17s29 -6 41 -17
l62 -62l62 62c11 11 26 17 41 17s30 -6 41 -17s17 -26 17 -41s-6 -30 -17 -41z" />
    <glyph glyph-name="sterling" unicode="&#xa3;" horiz-adv-x="544" 
d="M481 166c15 -11 23 -29 23 -47c0 -11 -3 -27 -12 -36c-10 -12 -56 -67 -121 -80c-9 -2 -19 -3 -30 -3c-32 0 -72 10 -110 49c-9 8 -15 9 -21 9c-25 0 -58 -25 -71 -38c-11 -12 -26 -17 -41 -17s-30 5 -41 16c-12 12 -17 27 -17 42s5 30 16 41c6 5 46 45 100 64v128h-29
c-32 0 -58 25 -58 58c0 32 26 58 58 58h29v116c0 7 1 45 21 84c29 58 83 90 153 90h58c32 0 58 -26 58 -58s-26 -58 -58 -58h-58c-32 0 -43 -13 -50 -26c-7 -15 -8 -32 -8 -32v-116h87c32 0 58 -26 58 -58c0 -33 -26 -58 -58 -58h-87v-133c15 -7 29 -17 41 -30
c12 -12 22 -15 28 -15c2 0 6 1 7 1c23 4 47 31 52 37c11 15 28 23 46 23c12 0 24 -3 35 -11z" />
    <glyph glyph-name="b.070" horiz-adv-x="489" 
d="M390 0c-93 0 -181 36 -247 102c-66 67 -103 154 -103 248c0 193 157 350 350 350c33 0 59 -26 59 -58c0 -33 -26 -59 -59 -59c-128 0 -233 -104 -233 -233c0 -62 24 -121 68 -165s103 -68 165 -68c33 0 59 -26 59 -59c0 -32 -26 -58 -59 -58z" />
    <glyph glyph-name="b.071" 
d="M448 0h-350c-32 0 -58 26 -58 58c0 33 26 59 58 59h350c33 0 59 -26 59 -59c0 -32 -26 -58 -59 -58zM448 583h-350c-32 0 -58 26 -58 58c0 33 26 59 58 59h350c33 0 59 -26 59 -59c0 -32 -26 -58 -59 -58z" />
    <glyph glyph-name="b.072" horiz-adv-x="489" 
d="M99 0c-33 0 -59 26 -59 58c0 33 26 59 59 59c128 0 233 104 233 233c0 62 -24 121 -68 165c-45 44 -103 68 -165 68c-33 0 -59 26 -59 59c0 32 26 58 59 58c93 0 181 -37 247 -103s103 -154 103 -247c0 -193 -157 -350 -350 -350z" />
    <glyph glyph-name="b.088" horiz-adv-x="372" 
d="M273 350h-175c-32 0 -58 26 -58 58c0 33 26 59 58 59h175c32 0 59 -26 59 -59c0 -32 -27 -58 -59 -58zM273 0h-175c-32 0 -58 26 -58 58c0 33 26 59 58 59h175c32 0 59 -26 59 -59c0 -32 -27 -58 -59 -58z" />
    <glyph glyph-name="b.074" horiz-adv-x="926" 
d="M536 0h-438c-32 0 -58 26 -58 58v584c0 32 26 58 58 58h438c193 0 350 -157 350 -350s-157 -350 -350 -350zM157 583v-466h379c128 0 233 104 233 233s-105 233 -233 233h-379z" />
    <glyph glyph-name="b.075" horiz-adv-x="1655" 
d="M1265 0h-875c-193 0 -350 157 -350 350s157 350 350 350h875c193 0 350 -157 350 -350s-157 -350 -350 -350zM1265 583h-875c-129 0 -233 -104 -233 -233s104 -233 233 -233h875c129 0 233 104 233 233s-104 233 -233 233z" />
    <glyph glyph-name="b.059" horiz-adv-x="546" 
d="M448 583h-350c-32 0 -58 26 -58 58c0 33 26 59 58 59h350c32 0 58 -26 58 -59c0 -32 -26 -58 -58 -58zM448 292h-350c-32 0 -58 26 -58 58s26 58 58 58h350c32 0 58 -26 58 -58s-26 -58 -58 -58z" />
    <glyph glyph-name="b.067" horiz-adv-x="197" 
d="M98 117c32 0 59 -26 59 -59c0 -32 -27 -58 -59 -58s-58 26 -58 58c0 33 26 59 58 59zM98 -63c32 0 59 -26 59 -59c0 -32 -27 -58 -59 -58s-58 26 -58 58c0 33 26 59 58 59z" />
    <glyph glyph-name="b.078" horiz-adv-x="0" 
d="M559 0c-2 0 -5 0 -8 1l-86 12c-18 3 -35 14 -43 31c-4 8 -6 16 -6 25c0 10 2 20 7 29l52 95l-141 -40c-5 -1 -10 -2 -15 -2c-19 0 -37 9 -48 24c-7 10 -11 21 -11 33s4 24 11 34l71 102l-128 -53c-7 -3 -15 -5 -23 -5c-16 0 -31 7 -42 19c-10 11 -15 25 -15 39
c0 10 2 19 7 28l53 97l-81 -22c-5 -1 -10 -2 -15 -2c-16 0 -31 7 -43 19c-10 11 -15 25 -15 39c0 6 1 13 3 19l49 139c9 25 31 39 55 39c6 0 13 -1 19 -3c24 -9 38 -30 38 -54c0 -6 -1 -14 -3 -20l-12 -35l106 28c5 1 10 2 15 2c17 0 34 -8 46 -22c8 -10 12 -22 12 -35
c0 -9 -2 -19 -7 -28l-39 -72l158 67c7 3 15 5 22 5c17 0 34 -8 45 -22c9 -11 13 -24 13 -37c0 -11 -3 -22 -10 -32l-92 -133l118 33c6 2 11 3 17 3c17 0 33 -8 44 -22c9 -11 13 -24 13 -37c0 -9 -2 -19 -7 -27l-79 -144h4c29 -5 49 -30 49 -58v-7c-5 -29 -29 -50 -58 -50z
" />
    <glyph glyph-name="b.079" horiz-adv-x="546" 
d="M273 0c-32 0 -58 26 -58 58v350h-117c-32 0 -58 26 -58 59v175c0 32 26 58 58 58h175c32 0 58 -26 58 -58v-117h59v117c0 32 26 58 58 58s58 -26 58 -58v-175c0 -33 -26 -59 -58 -59h-117v-350c0 -32 -26 -58 -58 -58zM156 583v-58h59v58h-59z" />
    <glyph glyph-name="b.080" horiz-adv-x="604" 
d="M244 58c0 33 26 59 58 59s58 -26 58 -59c0 -32 -26 -58 -58 -58s-58 26 -58 58zM506 0c-24 0 -47 15 -55 39l-149 426l-149 -426c-9 -24 -32 -39 -56 -39c-6 0 -12 1 -18 3c-24 9 -39 31 -39 55c0 7 1 13 3 20l204 583c8 23 30 39 55 39s47 -16 55 -39l204 -583
c2 -7 3 -13 3 -20c0 -24 -15 -46 -39 -55c-6 -2 -12 -3 -19 -3z" />
    <glyph glyph-name="b.082" horiz-adv-x="867" 
d="M594 467c129 0 233 -105 233 -234c0 -128 -104 -233 -233 -233s-233 105 -233 233c0 43 11 83 31 117h-90v-292c0 -32 -26 -58 -58 -58s-58 26 -58 58v292h-88c-32 0 -58 26 -58 58c0 33 26 59 58 59h88v58c0 7 1 45 20 84c30 59 84 91 155 91c32 0 58 -26 58 -58
c0 -33 -26 -59 -58 -59c-33 0 -44 -13 -50 -26c-8 -15 -9 -32 -9 -32v-58h292v0zM594 117c64 0 117 52 117 116c0 65 -53 117 -117 117s-117 -52 -117 -117c0 -64 53 -116 117 -116z" />
    <glyph glyph-name="ampersand" unicode="&#x26;" horiz-adv-x="630" 
d="M507 170l60 -75c9 -11 13 -23 13 -36c0 -17 -8 -35 -22 -46c-11 -9 -24 -13 -37 -13c-17 0 -34 7 -45 22l-48 60c-23 -27 -25 -28 -27 -30c-40 -34 -90 -52 -141 -52c-121 0 -220 100 -220 224c0 86 48 160 118 198c-16 28 -25 60 -25 93c0 102 82 185 184 185
s185 -83 185 -185v-14c-6 -76 -60 -140 -131 -162l62 -77l56 63c11 13 27 19 43 19c14 0 28 -5 39 -15c13 -11 19 -27 19 -43c0 -14 -4 -28 -14 -39zM317 583c-37 0 -68 -30 -68 -68c0 -15 5 -30 15 -42l21 -26h31c38 0 69 31 69 68v9c-5 34 -33 59 -68 59zM322 139l32 35
l-122 153c-44 -13 -75 -54 -75 -103c0 -59 46 -107 103 -107c23 0 44 7 62 22z" />
    <glyph glyph-name="b.076" horiz-adv-x="558" 
d="M159 228c-15 0 -29 5 -41 17c-104 104 -104 273 0 377s273 104 377 0c23 -23 23 -60 0 -83c-22 -22 -59 -22 -82 0c-59 59 -154 59 -212 0c-59 -58 -59 -153 0 -212c22 -23 22 -59 0 -82c-12 -12 -27 -17 -42 -17zM251 0c-68 0 -136 26 -188 78c-23 23 -23 60 0 83
c23 22 59 22 82 0c59 -59 154 -59 212 0c59 58 59 153 0 212c-22 23 -22 59 0 82c23 23 60 23 83 0c104 -104 104 -273 0 -377c-52 -52 -120 -78 -189 -78z" />
    <glyph glyph-name="b.083" horiz-adv-x="868" 
d="M769 467c32 0 59 -26 59 -59c0 -32 -27 -58 -59 -58h-87v-292c0 -32 -26 -58 -59 -58c-32 0 -58 26 -58 58v292h-90c20 -34 32 -74 32 -117c0 -128 -105 -233 -234 -233c-128 0 -233 105 -233 233c0 129 105 234 233 234v0h292v175c0 32 26 58 58 58c33 0 59 -26 59 -58
v-175h87zM390 233c0 65 -52 117 -117 117c-64 0 -116 -52 -116 -117c0 -64 52 -116 116 -116c65 0 117 52 117 116z" />
    <glyph glyph-name="b.084" horiz-adv-x="867" 
d="M594 467c129 0 233 -105 233 -234c0 -128 -104 -233 -233 -233s-233 105 -233 233c0 43 11 83 31 117h-90v-292c0 -32 -26 -58 -58 -58s-58 26 -58 58v292h-88c-32 0 -58 26 -58 58c0 33 26 59 58 59h88v175c0 32 26 58 58 58s58 -26 58 -58v-175h292v0zM594 117
c64 0 117 52 117 116c0 65 -53 117 -117 117s-117 -52 -117 -117c0 -64 53 -116 117 -116z" />
    <glyph glyph-name="b.086" horiz-adv-x="722" 
d="M624 467c32 0 58 -26 58 -59c0 -32 -26 -58 -58 -58h-59v-292c0 -32 -26 -58 -58 -58s-58 26 -58 58v292h-223c-32 0 -48 -11 -51 -16c0 -5 3 -15 43 -26c32 -7 163 -41 172 -140v-11c0 -35 -13 -70 -39 -98c-35 -38 -87 -59 -147 -59c-67 0 -125 30 -156 81
c-5 9 -8 20 -8 30c0 20 10 39 28 50c10 5 20 8 30 8c20 0 39 -10 50 -28c9 -15 31 -24 56 -24c27 0 49 7 61 21c6 6 9 12 9 19c-8 11 -49 30 -81 37c-2 0 -3 0 -4 1c-41 11 -72 27 -94 49c-24 24 -37 56 -37 91c0 75 72 132 168 132h223v175c0 32 26 58 58 58s58 -26 58 -58
v-175h59z" />
    <glyph glyph-name="b.081" horiz-adv-x="867" 
d="M769 467c32 0 58 -26 58 -59c0 -32 -26 -58 -58 -58h-88v-292c0 -32 -26 -58 -58 -58s-58 26 -58 58v292h-90c20 -34 31 -74 31 -117c0 -128 -104 -233 -233 -233s-233 105 -233 233c0 129 104 234 233 234h292v58c0 7 1 45 20 84c30 59 84 91 155 91c32 0 58 -26 58 -58
c0 -33 -26 -59 -58 -59c-33 0 -44 -13 -50 -26c-8 -15 -9 -32 -9 -32v-58h88zM390 233c0 65 -53 117 -117 117s-117 -52 -117 -117c0 -64 53 -116 117 -116s117 52 117 116z" />
    <glyph glyph-name="b.085" horiz-adv-x="774" 
d="M676 467c32 0 58 -26 58 -59c0 -32 -26 -58 -58 -58h-88v-292c0 -32 -26 -58 -58 -58s-58 26 -58 58v292h-59v-169c0 -8 -1 -47 -22 -88c-32 -60 -90 -93 -164 -93c-75 0 -133 33 -164 93c-22 41 -23 80 -23 88v227c0 33 26 59 58 59c33 0 59 -26 59 -59v-227
c0 -2 1 -20 10 -37c8 -13 21 -27 60 -27c40 0 53 16 60 30c9 16 10 34 10 34v227c0 33 26 59 58 59h117v175c0 32 26 58 58 58s58 -26 58 -58v-175h88z" />
    <glyph glyph-name="seven" unicode="7" horiz-adv-x="488" 
d="M98 0c-9 0 -18 2 -26 6c-21 11 -32 31 -32 52c0 9 2 18 6 26l249 499h-197c-32 0 -58 26 -58 59c0 32 26 58 58 58h292c20 0 39 -10 49 -28c6 -9 9 -20 9 -31c0 -9 -2 -17 -6 -25l-292 -584c-10 -20 -31 -32 -52 -32z" />
    <glyph glyph-name="Z.004" horiz-adv-x="1246" 
d="M856 0h-758c-21 0 -40 11 -51 30c-5 9 -7 18 -7 28s2 21 8 30l297 495h-247c-32 0 -58 26 -58 59c0 32 26 58 58 58h350c21 0 40 -11 51 -30c5 -9 7 -18 7 -28s-2 -21 -8 -30l-297 -495h655c65 0 122 25 165 68c44 44 69 103 69 165s-25 121 -69 165s-102 68 -165 68
c-128 0 -233 -104 -233 -233c0 -29 5 -58 16 -85c3 -7 4 -14 4 -21c0 -23 -14 -45 -37 -54c-7 -3 -14 -4 -21 -4c-23 0 -46 14 -55 37c-16 41 -24 83 -24 127c0 193 157 350 350 350c94 0 182 -36 248 -103c66 -66 102 -154 102 -247c0 -94 -36 -181 -102 -248
c-66 -66 -154 -102 -248 -102z" />
    <glyph glyph-name="paragraph" unicode="&#xb6;" horiz-adv-x="486" 
d="M388 698c32 0 58 -26 58 -58v-582c0 -32 -26 -58 -58 -58c-33 0 -59 26 -59 58v235h-27v-233c0 -32 -26 -59 -58 -59s-58 27 -58 59v241c-84 25 -146 103 -146 195c0 113 93 202 204 202h144zM329 409v174h-85v-174h85z" />
    <glyph glyph-name="Z.006" horiz-adv-x="546" 
d="M448 700c32 0 58 -26 58 -58v-584c0 -32 -26 -58 -58 -58s-58 26 -58 58v95l-234 93v-188c0 -32 -26 -58 -58 -58s-58 26 -58 58v584c0 32 26 58 58 58s58 -26 58 -58v-95l234 -93v188c0 32 26 58 58 58zM156 372l234 -93v49l-234 93v-49z" />
    <glyph glyph-name="Z.003" horiz-adv-x="1246" 
d="M390 700h758c21 0 40 -11 51 -30c5 -9 7 -18 7 -28s-2 -21 -8 -30l-297 -495h247c32 0 58 -26 58 -59c0 -32 -26 -58 -58 -58h-350c-21 0 -40 11 -51 30c-5 9 -7 18 -7 28s2 21 8 30l297 495h-655c-65 0 -122 -25 -165 -68c-44 -44 -69 -103 -69 -165s25 -121 69 -165
s102 -68 165 -68c128 0 233 104 233 233c0 29 -5 58 -16 85c-3 7 -4 14 -4 21c0 23 14 45 37 54c7 3 14 4 21 4c23 0 46 -14 55 -37c16 -41 24 -83 24 -127c0 -193 -157 -350 -350 -350c-94 0 -182 36 -248 103c-66 66 -102 154 -102 247c0 94 36 181 102 248
c66 66 154 102 248 102z" />
    <glyph glyph-name="Z.001" 
d="M448 0h-350c-31 0 -58 26 -58 59c0 10 2 20 8 29l297 495h-247c-32 0 -58 26 -58 58c0 33 26 59 58 59h350c30 0 58 -25 58 -58c0 -11 -2 -21 -8 -30l-297 -495h247c32 0 59 -26 59 -59c0 -32 -27 -58 -59 -58z" />
    <glyph glyph-name="Z.005" horiz-adv-x="488" 
d="M447 122l1 -64c0 -31 -26 -58 -58 -58c-23 0 -43 13 -52 32c-21 -11 -44 -19 -69 -24c-8 -1 -32 -7 -63 -7c-85 0 -144 43 -162 119c-3 11 -4 22 -4 33c0 28 9 55 26 77c23 30 71 66 179 70c15 0 29 1 44 1c11 0 24 0 38 -2c-3 16 -10 33 -20 39c-15 8 -33 12 -50 12
c-38 0 -76 -17 -97 -34c-11 -9 -24 -13 -37 -13c-17 0 -33 7 -45 21c-9 11 -13 24 -13 37c0 17 7 34 21 45c40 33 89 54 143 59c9 1 17 1 26 1c40 0 78 -9 109 -26c80 -45 83 -150 83 -161v-157zM318 170l5 12c-7 1 -18 2 -34 2c-13 0 -27 0 -51 -1c-46 -2 -72 -14 -79 -23
c-1 -2 -3 -4 -3 -8c0 -1 1 -3 1 -5c3 -12 7 -29 49 -29c18 0 33 3 38 4c2 1 3 1 4 1c37 7 60 29 70 47z" />
    <glyph glyph-name="ij" unicode="&#x133;" horiz-adv-x="430" 
d="M332 467c32 0 58 -26 58 -58v-467c0 -7 -1 -45 -21 -84c-29 -59 -84 -91 -154 -91c-32 0 -58 26 -58 58c0 33 26 59 58 59s43 13 50 26c8 15 8 32 8 32v408h-116v-291c0 -33 -26 -59 -59 -59c-32 0 -58 26 -58 59v350c0 32 26 58 58 58h234zM98 642c33 0 59 -27 59 -59
s-26 -58 -59 -58c-32 0 -58 26 -58 58s26 59 58 59zM332 642c32 0 58 -27 58 -59s-26 -58 -58 -58c-33 0 -59 26 -59 58s26 59 59 59z" />
    <glyph glyph-name="Xi" unicode="&#x39e;" horiz-adv-x="546" 
d="M98 583c-32 0 -58 26 -58 59c0 32 26 58 58 58h350c32 0 58 -26 58 -58c0 -33 -26 -59 -58 -59h-350zM448 117c32 0 58 -26 58 -59c0 -32 -26 -58 -58 -58h-350c-32 0 -58 26 -58 58c0 33 26 59 58 59h350zM393 408c32 0 58 -26 58 -58s-26 -58 -58 -58h-237
c-32 0 -58 26 -58 58s26 58 58 58h237z" />
    <glyph glyph-name="uni0417" unicode="&#x417;" horiz-adv-x="430" 
d="M186 700c112 0 204 -92 204 -204c0 -57 -24 -109 -62 -146c38 -37 62 -89 62 -146c0 -112 -92 -204 -204 -204h-88c-32 0 -58 26 -58 58c0 33 26 59 58 59h88c48 0 87 39 87 87c0 47 -37 88 -84 88h-32c-33 0 -59 26 -59 58s26 58 59 58h29c48 0 87 40 87 88
s-39 87 -87 87h-88c-32 0 -58 26 -58 59c0 32 26 58 58 58h88z" />
    <glyph glyph-name="uni0437" unicode="&#x437;" horiz-adv-x="488" 
d="M244 0c-113 0 -204 92 -204 204c0 32 26 58 58 58s58 -26 58 -58c0 -48 40 -87 88 -87s87 39 87 87s-39 88 -87 88c-32 0 -58 26 -58 58s26 58 58 58c48 0 87 40 87 88s-39 87 -87 87s-88 -39 -88 -87c0 -32 -26 -59 -58 -59s-58 27 -58 59c0 112 91 204 204 204
s204 -92 204 -204c0 -57 -23 -109 -61 -146c38 -37 61 -89 61 -146c0 -112 -91 -204 -204 -204z" />
    <glyph glyph-name="Pi" unicode="&#x3a0;" horiz-adv-x="488" 
d="M390 700c32 0 58 -26 58 -58v-584c0 -32 -26 -58 -58 -58s-58 26 -58 58v525h-175v-525c0 -32 -27 -58 -59 -58s-58 26 -58 58v584c0 32 26 58 58 58h292z" />
    <glyph glyph-name="Iota" unicode="&#x399;" horiz-adv-x="314" 
d="M215 117c33 0 59 -26 59 -59c0 -32 -26 -58 -59 -58h-116c-33 0 -59 26 -59 58c0 33 26 59 59 59v466c-33 0 -59 26 -59 59c0 32 26 58 59 58h116c33 0 59 -26 59 -58c0 -33 -26 -59 -59 -59v-466z" />
    <glyph glyph-name="afii10042" unicode="&#x428;" horiz-adv-x="605" 
d="M507 700c32 0 58 -26 58 -58v-584c0 -32 -26 -58 -58 -58h-204h-204c-32 0 -59 26 -59 58v584c0 32 27 58 59 58s58 -26 58 -58v-525h88v525c0 32 26 58 58 58s58 -26 58 -58v-525h88v525c0 32 26 58 58 58z" />
    <glyph glyph-name="afii10145" unicode="&#x40f;" horiz-adv-x="488" 
d="M390 700c32 0 58 -26 58 -58v-584c0 -32 -26 -58 -58 -58h-88v-112c0 -33 -26 -59 -58 -59s-58 26 -58 59v112h-88c-32 0 -58 26 -58 58v584c0 32 26 58 58 58s58 -26 58 -58v-525h175v525c0 32 27 58 59 58z" />
    <glyph glyph-name="afii10022" unicode="&#x415;" horiz-adv-x="488" 
d="M390 292h-234v-175h234c32 0 58 -26 58 -59c0 -32 -26 -58 -58 -58h-292c-32 0 -58 26 -58 58v584c0 32 26 58 58 58h292c32 0 58 -26 58 -58c0 -33 -26 -59 -58 -59h-234v-175h234c32 0 58 -26 58 -58s-26 -58 -58 -58z" />
    <glyph glyph-name="Epsilon" unicode="&#x395;" horiz-adv-x="488" 
d="M390 292h-234v-175h234c32 0 58 -26 58 -59c0 -32 -26 -58 -58 -58h-292c-32 0 -58 26 -58 58v584c0 32 26 58 58 58h292c32 0 58 -26 58 -58c0 -33 -26 -59 -58 -59h-234v-175h234c32 0 58 -26 58 -58s-26 -58 -58 -58z" />
    <glyph glyph-name="afii10024" horiz-adv-x="662" 
d="M586 696c23 -9 36 -31 36 -54c0 -7 -1 -15 -4 -22l-108 -270l108 -270c3 -7 4 -15 4 -22c0 -23 -13 -45 -36 -54c-7 -3 -14 -4 -22 -4c-23 0 -45 14 -54 37l-102 255h-19v-234c0 -32 -26 -58 -58 -58s-58 26 -58 58v234h-19l-102 -255c-9 -23 -32 -37 -55 -37
c-7 0 -14 1 -21 4c-23 9 -36 31 -36 54c0 7 1 15 4 22l108 270l-108 270c-3 7 -4 15 -4 22c0 23 13 45 36 54c7 3 14 4 21 4c23 0 46 -14 55 -37l102 -255h19v234c0 32 26 58 58 58s58 -26 58 -58v-234h19l102 255c9 23 32 37 55 37c7 0 14 -1 21 -4z" />
    <glyph glyph-name="afii10072" horiz-adv-x="538" 
d="M492 84c4 -8 6 -16 6 -25c0 -22 -12 -43 -33 -53c-8 -4 -17 -6 -25 -6c-22 0 -43 12 -53 33l-59 122v-97c0 -32 -26 -58 -58 -58s-58 26 -58 58v94l-58 -119c-10 -21 -31 -33 -53 -33c-9 0 -17 2 -25 6c-21 10 -33 31 -33 53c0 9 2 17 6 25l71 146l-74 153
c-4 8 -6 16 -6 25c0 22 12 43 33 53c8 4 16 6 25 6c22 0 43 -12 53 -33l61 -126v100c0 33 26 59 58 59s58 -26 58 -59v-90l56 116c10 21 31 33 53 33c9 0 17 -2 25 -6c21 -10 33 -31 33 -53c0 -9 -2 -17 -6 -25l-71 -146z" />
    <glyph glyph-name="foursuperior" unicode="&#x2074;" horiz-adv-x="303" 
d="M203 343c-16 0 -29 13 -29 30v44h-104c-17 0 -30 14 -30 31c0 5 1 10 4 14l134 224c5 8 15 14 26 14c17 0 29 -14 29 -30v-193c17 0 30 -14 30 -30s-13 -30 -30 -30v-44c0 -17 -13 -30 -30 -30zM174 563l-52 -86h52v86z" />
    <glyph glyph-name="fivesuperior" unicode="&#x2075;" horiz-adv-x="318" 
d="M159 581c66 0 119 -53 119 -119c0 -65 -53 -119 -119 -119c-65 0 -119 54 -119 119c0 17 13 30 30 30s30 -13 30 -30c0 -33 26 -59 59 -59s60 26 60 59c0 32 -25 57 -56 59l-56 -13c-3 -1 -5 -1 -8 -1c-19 0 -29 15 -29 33l15 133c2 16 14 27 30 27h89
c16 0 29 -13 29 -30c0 -16 -13 -30 -29 -30h-63l-7 -64l18 4c2 1 5 1 7 1z" />
    <glyph glyph-name="sixsuperior" unicode="&#x2076;" horiz-adv-x="318" 
d="M159 343c-66 0 -119 54 -119 119c0 19 3 37 12 52l90 170c6 10 16 16 27 16c17 0 30 -15 30 -30c0 -5 -1 -9 -4 -14l-40 -75h4c66 0 119 -53 119 -119c0 -65 -53 -119 -119 -119v0zM159 521c-33 0 -59 -26 -59 -59s26 -59 59 -59s59 26 59 59s-26 59 -59 59z" />
    <glyph glyph-name="sevensuperior" unicode="&#x2077;" horiz-adv-x="288" 
d="M69 343c-4 0 -9 1 -13 3c-11 6 -16 16 -16 27c0 4 1 9 3 13l127 254h-101c-16 0 -29 14 -29 30c0 17 13 30 29 30h149c10 0 20 -5 25 -14c3 -5 5 -10 5 -16c0 -5 -1 -9 -3 -13l-149 -298c-5 -10 -16 -16 -27 -16z" />
    <glyph glyph-name="eightsuperior" unicode="&#x2078;" horiz-adv-x="318" 
d="M230 557c29 -22 48 -56 48 -95c0 -65 -54 -119 -120 -119c-65 0 -118 54 -118 119c0 39 19 73 47 95c-11 15 -18 34 -18 54c0 49 41 89 89 89c50 0 90 -40 90 -89c0 -20 -7 -39 -18 -54zM129 611c0 -17 13 -30 29 -30c17 0 31 13 31 30c0 16 -14 29 -31 29
c-16 0 -29 -13 -29 -29zM158 403c34 0 60 26 60 59s-26 59 -60 59c-32 0 -59 -26 -59 -59s27 -59 59 -59z" />
    <glyph glyph-name="ninesuperior" unicode="&#x2079;" horiz-adv-x="318" 
d="M158 700c66 0 120 -54 120 -119c0 -19 -5 -36 -12 -52l-91 -170c-6 -10 -16 -16 -26 -16c-18 0 -30 14 -30 30c0 5 1 9 3 14l40 75h-4c-65 0 -118 53 -118 119c0 65 53 119 118 119zM158 521c34 0 60 27 60 60s-26 59 -60 59c-32 0 -59 -26 -59 -59s27 -60 59 -60z" />
    <glyph glyph-name="zerosuperior" unicode="&#x2070;" horiz-adv-x="318" 
d="M244 657c22 -27 34 -64 34 -106v-59c0 -87 -51 -149 -119 -149c-70 0 -119 63 -119 149v59c0 86 52 149 119 149c32 0 63 -16 85 -43zM218 492v59c0 43 -20 89 -59 89s-60 -46 -60 -89v-59c0 -51 23 -89 60 -89c35 0 59 37 59 89z" />
    <glyph glyph-name="afii61352" unicode="&#x2116;" horiz-adv-x="1192" 
d="M904 175c-136 0 -248 118 -248 262c0 145 112 263 248 263c137 0 248 -118 248 -263c0 -144 -111 -262 -248 -262zM904 583c-72 0 -131 -65 -131 -146c0 -80 59 -145 131 -145c73 0 132 65 132 145c0 81 -59 146 -132 146zM963 58c0 -32 -26 -58 -59 -58
c-32 0 -58 26 -58 58c0 33 26 59 58 59c33 0 59 -26 59 -59zM507 0c-19 0 -37 9 -48 25l-302 432v-399c0 -32 -27 -58 -59 -58s-58 26 -58 58v584c0 25 16 47 41 55c6 2 11 2 17 2c18 0 37 -8 48 -24l302 -432v399c0 32 26 58 59 58c32 0 58 -26 58 -58v-584
c0 -31 -26 -58 -58 -58z" />
    <glyph glyph-name="omacron" unicode="&#x14d;" horiz-adv-x="576" 
d="M288 525c137 0 248 -118 248 -263c0 -144 -111 -262 -248 -262s-248 118 -248 262c0 145 111 263 248 263zM288 117c72 0 131 65 131 145c0 81 -59 146 -131 146c-73 0 -131 -65 -131 -146c0 -80 58 -145 131 -145zM448 583h-321c-32 0 -58 26 -58 59c0 32 26 58 58 58
h321c32 0 59 -26 59 -58c0 -33 -27 -59 -59 -59z" />
    <glyph glyph-name="afii10074" horiz-adv-x="488" 
d="M98 467c32 0 58 -26 58 -59v-188l189 226c11 13 27 21 44 21c7 0 14 -1 21 -4c23 -8 38 -30 38 -55v-350c0 -32 -26 -58 -58 -58c-33 0 -59 26 -59 58v189l-188 -226c-11 -13 -27 -21 -44 -21c-7 0 -14 1 -21 4c-23 8 -38 30 -38 54v350c0 33 26 59 58 59z" />
    <glyph glyph-name="afii10026" horiz-adv-x="605" 
d="M98 0c-32 0 -58 27 -58 58v584c0 32 26 58 58 58c33 0 59 -26 59 -58v-399l302 432c11 16 29 25 47 25c35 0 59 -28 59 -58v-584c0 -32 -26 -58 -58 -58s-59 26 -59 58v399l-302 -432c-11 -16 -29 -25 -48 -25z" />
    <glyph glyph-name="afii10025" horiz-adv-x="488" 
d="M244 0c-113 0 -204 92 -204 204c0 32 26 58 58 58s58 -26 58 -58c0 -48 40 -87 88 -87s87 39 87 87s-39 88 -87 88c-32 0 -58 26 -58 58s26 58 58 58c48 0 87 40 87 88s-39 87 -87 87s-88 -39 -88 -87c0 -32 -26 -59 -58 -59s-58 27 -58 59c0 112 91 204 204 204
s204 -92 204 -204c0 -57 -23 -109 -61 -146c38 -37 61 -89 61 -146c0 -112 -91 -204 -204 -204z" />
    <glyph glyph-name="afii10033" unicode="&#x41f;" horiz-adv-x="635" 
d="M536 0c-32 0 -58 26 -58 58v525h-321v-525c0 -32 -26 -58 -59 -58c-32 0 -58 26 -58 58v584c0 32 26 58 59 58h437c32 0 59 -26 59 -58v-584c0 -32 -26 -58 -59 -58z" />
    <glyph glyph-name="zeroinferior" unicode="&#x2080;" horiz-adv-x="318" 
d="M244 314c22 -27 34 -64 34 -106v-59c0 -87 -51 -149 -119 -149c-70 0 -119 63 -119 149v59c0 86 52 149 119 149c32 0 63 -16 85 -43zM218 149v59c0 43 -20 89 -59 89s-60 -46 -60 -89v-59c0 -51 23 -89 60 -89c35 0 59 37 59 89z" />
    <glyph glyph-name="oneinferior" unicode="&#x2081;" horiz-adv-x="181" 
d="M107 0c-19 0 -34 15 -34 34v258c-18 1 -33 16 -33 34s16 34 34 34h33c18 0 34 -16 34 -34v-292c0 -19 -16 -34 -34 -34z" />
    <glyph glyph-name="twoinferior" unicode="&#x2082;" horiz-adv-x="313" 
d="M239 0h-165c-11 0 -21 5 -28 14c-4 6 -6 13 -6 20c0 4 1 7 2 11s31 87 103 134c47 30 60 42 60 66c0 26 -22 47 -48 47c-27 0 -49 -21 -49 -47c0 -18 -15 -34 -34 -34s-34 16 -34 34c0 63 52 115 117 115c64 0 116 -52 116 -115c0 -64 -46 -94 -90 -123
c-23 -15 -41 -35 -53 -54h109c19 0 34 -15 34 -34s-15 -34 -34 -34z" />
    <glyph glyph-name="threeinferior" unicode="&#x2083;" horiz-adv-x="323" 
d="M244 196c24 -20 39 -50 39 -83c0 -62 -55 -113 -122 -113s-121 51 -121 113c0 19 15 34 34 34c18 0 34 -15 34 -34c0 -25 24 -45 53 -45c30 0 54 20 54 45c0 26 -24 46 -54 46c-19 0 -34 15 -34 34s15 34 34 34c21 0 38 14 38 31s-17 31 -38 31s-37 -14 -37 -31
c0 -19 -16 -34 -34 -34c-19 0 -34 15 -34 34c0 55 47 99 105 99s106 -44 106 -99c0 -23 -9 -45 -23 -62z" />
    <glyph glyph-name="fourinferior" unicode="&#x2084;" horiz-adv-x="303" 
d="M203 0c-16 0 -29 13 -29 30v44h-104c-17 0 -30 14 -30 31c0 5 1 10 4 14l134 224c5 8 15 14 26 14c17 0 29 -14 29 -30v-193c17 0 30 -14 30 -30s-13 -30 -30 -30v-44c0 -17 -13 -30 -30 -30zM174 220l-52 -86h52v86z" />
    <glyph glyph-name="fiveinferior" unicode="&#x2085;" horiz-adv-x="318" 
d="M159 238c66 0 119 -53 119 -119c0 -65 -53 -119 -119 -119c-65 0 -119 54 -119 119c0 17 13 30 30 30s30 -13 30 -30c0 -33 26 -59 59 -59s60 26 60 59c0 32 -25 57 -56 59l-56 -13c-3 -1 -5 -1 -8 -1c-19 0 -29 15 -29 33l15 133c2 16 14 27 30 27h89
c16 0 29 -13 29 -30c0 -16 -13 -30 -29 -30h-63l-7 -64l18 4c2 1 5 1 7 1z" />
    <glyph glyph-name="sixinferior" unicode="&#x2086;" horiz-adv-x="318" 
d="M159 0c-66 0 -119 54 -119 119c0 19 3 37 12 52l90 170c6 10 16 16 27 16c17 0 30 -15 30 -30c0 -5 -1 -9 -4 -14l-40 -75h4c66 0 119 -53 119 -119c0 -65 -53 -119 -119 -119zM159 178c-33 0 -59 -26 -59 -59s26 -59 59 -59s59 26 59 59s-26 59 -59 59z" />
    <glyph glyph-name="seveninferior" unicode="&#x2087;" horiz-adv-x="288" 
d="M69 0c-4 0 -9 1 -13 3c-11 6 -16 16 -16 27c0 4 1 9 3 13l127 254h-101c-16 0 -29 14 -29 30c0 17 13 30 29 30h149c10 0 20 -5 25 -14c3 -5 5 -10 5 -16c0 -5 -1 -9 -3 -13l-149 -298c-5 -10 -16 -16 -27 -16z" />
    <glyph glyph-name="eightinferior" unicode="&#x2088;" horiz-adv-x="318" 
d="M230 214c29 -22 48 -56 48 -95c0 -65 -54 -119 -120 -119c-65 0 -118 54 -118 119c0 39 19 73 47 95c-11 15 -18 34 -18 54c0 49 41 89 89 89c50 0 90 -40 90 -89c0 -20 -7 -39 -18 -54zM129 268c0 -17 13 -30 29 -30c17 0 31 13 31 30c0 16 -14 29 -31 29
c-16 0 -29 -13 -29 -29zM158 60c34 0 60 26 60 59s-26 59 -60 59c-32 0 -59 -26 -59 -59s27 -59 59 -59z" />
    <glyph glyph-name="nineinferior" unicode="&#x2089;" horiz-adv-x="318" 
d="M158 357c66 0 120 -54 120 -119c0 -19 -5 -36 -12 -52l-91 -170c-6 -10 -16 -16 -26 -16c-18 0 -30 14 -30 30c0 5 1 9 3 14l40 75h-4c-65 0 -118 53 -118 119c0 65 53 119 118 119zM158 178c34 0 60 27 60 60s-26 59 -60 59c-32 0 -59 -26 -59 -59s27 -60 59 -60z" />
    <glyph glyph-name="Wdieresis" unicode="&#x1e84;" horiz-adv-x="945" 
d="M869 695c23 -9 36 -31 36 -54c0 -7 -1 -15 -4 -22l-244 -583c-9 -22 -30 -36 -53 -36c-24 0 -45 14 -54 36l-77 185l-78 -185c-9 -22 -30 -36 -53 -36c-24 0 -45 14 -54 36l-244 583c-3 7 -4 15 -4 22c0 30 24 59 59 59c23 0 44 -14 53 -36l190 -454l67 163l-102 246
c-3 7 -5 15 -5 23c0 30 24 58 59 58c28 0 44 -14 53 -36l59 -140l58 140c9 22 30 36 53 36c35 0 59 -29 59 -59c0 -7 -1 -15 -4 -22l-103 -246l68 -163l189 454c9 22 30 36 53 36c8 0 16 -2 23 -5zM449 842c0 -33 -26 -59 -58 -59s-59 26 -59 59c0 32 27 58 59 58
s58 -26 58 -58zM612 842c0 -33 -26 -59 -58 -59s-58 26 -58 59c0 32 26 58 58 58s58 -26 58 -58z" />
    <glyph glyph-name="wacute" unicode="&#x1e83;" horiz-adv-x="688" 
d="M609 463c24 -8 39 -31 39 -55c0 -6 -1 -13 -3 -19l-123 -350c-8 -23 -30 -39 -55 -39s-47 16 -55 39l-68 194l-68 -194c-8 -23 -30 -39 -55 -39s-47 16 -55 39l-123 350c-2 6 -3 13 -3 19c0 25 15 47 39 55c6 2 13 3 20 3c24 0 46 -14 54 -38l68 -193l67 193
c8 25 30 38 54 39h4c24 -1 45 -16 53 -39l68 -193l68 193c8 24 30 38 54 38c7 0 13 -1 20 -3zM285 540c-21 0 -42 12 -52 32c-4 8 -6 17 -6 26c0 21 11 41 32 52l117 59c8 4 16 6 25 6c22 0 43 -12 53 -32c4 -8 6 -17 6 -26c0 -22 -12 -43 -32 -53l-117 -58
c-8 -4 -17 -6 -26 -6z" />
    <glyph glyph-name="wdieresis" unicode="&#x1e85;" horiz-adv-x="688" 
d="M609 463c24 -8 39 -31 39 -55c0 -6 -1 -13 -3 -19l-123 -350c-8 -23 -30 -39 -55 -39s-47 16 -55 39l-68 194l-68 -194c-8 -23 -30 -39 -55 -39s-47 16 -55 39l-123 350c-2 6 -3 13 -3 19c0 25 15 47 39 55c6 2 13 3 20 3c24 0 46 -14 54 -38l68 -193l67 193
c8 25 30 38 54 39h4c24 -1 45 -16 53 -39l68 -193l68 193c8 24 30 38 54 38c7 0 13 -1 20 -3zM319 583c0 -33 -26 -59 -58 -59c-33 0 -59 26 -59 59c0 32 26 58 59 58c32 0 58 -26 58 -58zM482 583c0 -33 -26 -59 -58 -59s-58 26 -58 59c0 32 26 58 58 58s58 -26 58 -58z
" />
    <glyph glyph-name="Theta" unicode="&#x398;" horiz-adv-x="780" 
d="M637 597c68 -68 103 -157 103 -247s-35 -180 -103 -248c-66 -66 -154 -102 -247 -102c-94 0 -181 36 -248 102c-68 68 -102 158 -102 248s34 179 102 247c67 67 154 103 248 103c93 0 181 -36 247 -103zM555 185c45 45 68 105 68 165s-23 119 -68 165
c-44 44 -103 68 -165 68s-121 -24 -165 -68c-46 -46 -68 -105 -68 -165s22 -120 68 -165c44 -44 103 -68 165 -68s121 24 165 68zM390 437c48 0 87 -39 87 -87s-39 -88 -87 -88s-88 40 -88 88s40 87 88 87z" />
    <glyph glyph-name="theta" unicode="&#x3b8;" horiz-adv-x="780" 
d="M390 700c193 0 350 -157 350 -350s-157 -350 -350 -350s-350 157 -350 350s157 350 350 350zM390 583c-110 0 -202 -76 -227 -178h454c-25 102 -117 178 -227 178zM390 117c107 0 198 72 225 171h-450c27 -99 118 -171 225 -171z" />
    <glyph glyph-name="afii10041" unicode="&#x427;" horiz-adv-x="459" 
d="M361 700c32 0 58 -26 58 -58v-584c0 -32 -26 -58 -58 -58s-58 26 -58 58v175h-59c-82 0 -145 38 -179 106c-24 47 -25 93 -25 99v204c0 32 26 58 59 58c32 0 58 -26 58 -58v-204c0 -2 1 -27 13 -50c9 -16 26 -38 74 -38h59v292c0 32 26 58 58 58z" />
    <glyph glyph-name="afii10029" unicode="&#x41b;" horiz-adv-x="576" 
d="M477 700c33 0 59 -26 59 -58v-584c0 -32 -26 -58 -59 -58c-32 0 -58 26 -58 58v525h-175v-437c0 -59 -39 -146 -146 -146c-32 0 -58 26 -58 58c0 33 26 59 58 59c18 0 22 6 24 10c4 7 5 16 5 20v495c0 32 27 58 59 58h291z" />
    <glyph glyph-name="afii10077" unicode="&#x43b;" horiz-adv-x="576" 
d="M477 467c33 0 59 -26 59 -59v-350c0 -32 -26 -58 -59 -58c-32 0 -58 26 -58 58v292h-175v-204c0 -59 -39 -146 -146 -146c-32 0 -58 26 -58 58c0 33 26 59 58 59c18 0 22 6 24 10c4 7 5 16 5 20v261c0 33 27 59 59 59h291z" />
    <glyph glyph-name="afii10079" unicode="&#x43d;" horiz-adv-x="488" 
d="M390 467c32 0 58 -27 58 -59v-350c0 -32 -26 -58 -58 -58s-58 26 -58 58v117h-175v-117c0 -32 -26 -58 -58 -58c-33 0 -59 26 -59 58v350c0 32 26 59 59 59c32 0 58 -27 58 -59v-116h175v116c0 32 26 59 58 59z" />
    <glyph glyph-name="phi" unicode="&#x3c6;" 
d="M332 576c101 -26 175 -117 175 -226c0 -108 -74 -200 -175 -226v-66c0 -32 -26 -58 -58 -58c-33 0 -59 26 -59 58v66c-100 26 -175 118 -175 226c0 109 75 200 175 226v66c0 32 26 58 59 58c32 0 58 -26 58 -58v-66zM157 350c0 -43 23 -81 58 -101v202
c-35 -20 -58 -58 -58 -101zM332 249c35 20 58 58 58 101s-23 81 -58 101v-202z" />
    <glyph glyph-name="upsilon" unicode="&#x3c5;" horiz-adv-x="522" 
d="M366 455c6 -4 116 -89 116 -213c0 -17 -2 -34 -6 -52c-9 -35 -28 -84 -71 -125c-46 -43 -106 -65 -179 -65c-74 0 -132 33 -163 93c-22 41 -23 80 -23 88v227c0 33 26 59 58 59s58 -26 58 -59v-227c1 -2 2 -20 11 -37c8 -13 21 -27 59 -27c74 0 120 34 136 101
c2 8 3 16 3 24c0 60 -62 120 -69 120c-15 11 -23 29 -23 47c0 12 4 24 12 34c11 15 29 23 47 23c12 0 24 -3 34 -11z" />
    <glyph glyph-name="afii10049" horiz-adv-x="532" 
d="M49 89l107 172c-37 20 -67 51 -88 92c-27 54 -28 108 -28 114c0 94 43 166 121 205c55 27 108 28 114 28h159c32 0 58 -26 58 -58v-584c0 -32 -26 -58 -58 -58s-59 26 -59 58v175h-98l-129 -206c-11 -17 -30 -27 -50 -27c-10 0 -21 3 -30 9c-18 11 -28 30 -28 49
c0 11 3 21 9 31zM375 350v233h-100s-32 0 -62 -15c-38 -19 -56 -51 -56 -101c0 -2 1 -34 17 -64c19 -36 51 -53 101 -53h100z" />
    <glyph glyph-name="afii10090" unicode="&#x448;" horiz-adv-x="605" 
d="M507 467c32 0 58 -27 58 -59v-350c0 -32 -26 -58 -58 -58h-409c-32 0 -58 26 -58 58v350c0 32 26 59 58 59s59 -27 59 -59v-291h87v291c0 32 26 59 58 59c33 0 59 -27 59 -59v-291h87v291c0 32 26 59 59 59z" />
    <glyph glyph-name="chi" unicode="&#x3c7;" horiz-adv-x="634" 
d="M551 115c26 -7 43 -30 43 -56c0 -5 -1 -10 -2 -15c-7 -27 -30 -44 -56 -44c-5 0 -10 1 -15 2c-118 31 -166 115 -225 241l-117 -213c-11 -19 -31 -30 -51 -30c-10 0 -20 2 -29 7c-19 11 -30 31 -30 52c0 10 2 19 7 28l158 286c-45 85 -103 154 -172 223
c-14 11 -22 29 -22 46c0 13 4 25 13 36c11 14 28 22 45 22c13 0 26 -4 37 -13c4 -3 85 -68 164 -195l98 178c11 19 31 30 51 30c9 0 19 -2 28 -7c20 -11 31 -31 31 -51c0 -10 -3 -19 -8 -28l-134 -245l19 -40c69 -148 94 -195 167 -214z" />
    <glyph glyph-name="Gamma" unicode="&#x393;" horiz-adv-x="427" 
d="M329 700c32 0 58 -26 58 -59c0 -32 -26 -58 -58 -58h-172v-525c0 -32 -26 -58 -59 -58c-32 0 -58 26 -58 58v584c0 32 26 58 59 58h230z" />
    <glyph glyph-name="afii10018" unicode="&#x411;" horiz-adv-x="479" 
d="M320 439c77 -39 119 -112 119 -206c0 -93 -42 -166 -119 -205c-55 -27 -108 -28 -114 -28h-107c-33 0 -59 26 -59 58v584c0 32 26 58 59 58h230c32 0 58 -26 58 -59c0 -32 -26 -58 -58 -58h-172v-116h49c6 0 59 -1 114 -28zM270 134c36 19 53 51 53 99
c0 49 -17 81 -53 100c-30 16 -62 17 -64 17h-49v-233h49c2 0 34 1 64 17z" />
    <glyph glyph-name="Lambda" unicode="&#x39b;" horiz-adv-x="606" 
d="M562 78c11 -31 -5 -64 -35 -75c-7 -2 -13 -3 -20 -3c-24 0 -46 15 -55 39l-149 426l-149 -426c-11 -30 -44 -46 -74 -36c-31 11 -47 44 -36 75l204 583c8 23 30 39 55 39s47 -16 55 -39z" />
    <glyph glyph-name="afii10196" unicode="&#x475;" horiz-adv-x="488" 
d="M198 0c-55 0 -75 60 -87 95c-10 31 -21 74 -33 127c-21 89 -36 176 -37 179c-1 4 -1 7 -1 11c0 28 20 52 48 57c4 1 7 1 11 1c28 0 52 -20 57 -48c11 -63 25 -131 39 -189c57 130 150 217 156 222c11 10 25 15 39 15c16 0 31 -6 43 -19c10 -11 15 -25 15 -39
c0 -16 -6 -32 -19 -43l-3 -3c-19 -19 -130 -133 -154 -277c-3 -19 -6 -33 -12 -45c-11 -25 -33 -42 -62 -44z" />
    <glyph glyph-name="b.073" horiz-adv-x="546" 
d="M448 0h-350c-32 0 -58 26 -58 58c0 33 26 59 58 59h350c32 0 58 -26 58 -59c0 -32 -26 -58 -58 -58zM448 583h-350c-32 0 -58 26 -58 58c0 33 26 59 58 59h350c32 0 58 -26 58 -59c0 -32 -26 -58 -58 -58zM448 292h-350c-32 0 -58 26 -58 58s26 58 58 58h350
c32 0 58 -26 58 -58s-26 -58 -58 -58z" />
    <glyph glyph-name="b.087" horiz-adv-x="372" 
d="M273 0c-128 0 -233 105 -233 233c0 129 105 234 233 234c33 0 59 -26 59 -59c0 -32 -26 -58 -59 -58c-64 0 -116 -52 -116 -117c0 -64 52 -116 116 -116c33 0 59 -26 59 -59c0 -32 -26 -58 -59 -58z" />
    <glyph glyph-name="b.091" horiz-adv-x="1568" 
d="M211 584h11c13 -2 25 -8 34 -17l117 -117c11 -12 17 -26 17 -41s-6 -30 -17 -41c-12 -12 -26 -17 -41 -17s-30 5 -41 17l-17 17v-151h1195c32 0 59 -26 59 -59c0 -32 -27 -58 -59 -58h-1254c-32 0 -58 26 -58 59v209l-17 -17c-12 -12 -27 -17 -42 -17s-30 5 -41 17
c-12 11 -17 26 -17 41s5 29 17 41l120 120c10 8 22 13 34 14z" />
    <glyph glyph-name="b.089" horiz-adv-x="372" 
d="M99 0c-33 0 -59 26 -59 58c0 33 26 59 59 59c64 0 116 52 116 116c0 65 -52 117 -116 117c-33 0 -59 26 -59 58c0 33 26 59 59 59c128 0 233 -105 233 -234c0 -128 -105 -233 -233 -233z" />
    <glyph glyph-name="b.090" horiz-adv-x="1567" 
d="M1353 116c-3 0 -5 1 -7 1c-13 1 -25 7 -35 17l-116 116c-12 11 -17 26 -17 41s5 30 17 42c11 11 26 16 41 16s29 -5 41 -16l17 -17v151h-1196c-32 0 -58 26 -58 58c0 33 26 59 58 59h1255c32 0 58 -27 58 -59v-209l17 17c11 11 26 16 41 16s30 -5 42 -16
c11 -11 16 -26 16 -41s-5 -30 -17 -42l-116 -116c-1 -2 -2 -3 -4 -4c-9 -8 -21 -12 -33 -13c-2 -1 -3 -1 -4 -1z" />
    <glyph glyph-name="acircumflex" unicode="&#xe2;" horiz-adv-x="488" 
d="M447 122l1 -64c0 -31 -27 -58 -58 -58c-23 0 -43 13 -52 32c-21 -11 -44 -19 -69 -24c-19 -3 -59 -7 -63 -7c-85 0 -144 43 -162 119c-3 11 -4 22 -4 33c0 28 9 55 26 77c23 30 71 66 179 70c14 0 29 1 44 1c10 0 24 0 38 -2c-3 16 -10 33 -20 39c-15 8 -33 12 -50 12
c-38 0 -76 -17 -97 -34c-11 -9 -24 -13 -37 -13c-17 0 -33 7 -45 21c-9 11 -13 24 -13 37c0 17 7 34 21 45c40 33 89 54 142 59c9 1 18 1 27 1c40 0 78 -9 109 -26c80 -45 83 -150 83 -161v-157zM318 170c2 4 4 9 4 12c-7 1 -17 2 -33 2c-13 0 -27 0 -40 -1
c-58 -2 -83 -14 -90 -23c-1 -1 -3 -3 -3 -7c0 -2 0 -4 1 -6c3 -12 7 -29 49 -29c18 0 33 3 38 4c2 1 3 1 4 1c37 7 60 29 70 47zM243 700c9 0 18 -2 27 -6l116 -59c20 -11 32 -30 32 -51c0 -9 -2 -18 -6 -27c-10 -21 -31 -32 -52 -32c-9 0 -18 2 -26 6l-91 45l-90 -45
c-9 -4 -17 -6 -26 -6c-21 0 -42 12 -52 32c-4 9 -6 18 -6 27c0 21 12 40 32 51l116 59c9 4 18 6 26 6z" />
    <glyph glyph-name="talt.101" 
d="M448 700c32 0 59 -26 59 -58v-117c0 -19 -10 -36 -25 -47c-10 -8 -22 -11 -34 -11c-6 0 -12 1 -18 3l-98 32v-444c0 -32 -27 -58 -59 -58s-58 26 -58 58v483l-135 45c-31 10 -47 43 -37 74s43 47 74 37l273 -91v36c0 32 26 58 58 58z" />
    <glyph glyph-name="talt.106" horiz-adv-x="459" 
d="M418 205v-8c1 -3 1 -5 1 -7c0 -105 -85 -190 -190 -190c-104 0 -189 85 -189 190c0 32 26 58 58 58s58 -26 58 -58c0 -41 33 -73 73 -73c38 0 70 29 73 66l-248 289c-9 11 -14 24 -14 38c0 105 85 190 189 190c33 0 59 -26 59 -58c0 -33 -26 -59 -59 -59s-62 -23 -70 -54
l246 -287c9 -11 13 -24 13 -37z" />
    <glyph glyph-name="talt.100" 
d="M449 700c32 0 58 -26 58 -58v-88c0 -32 -26 -58 -58 -58c-33 0 -59 26 -59 58v29h-58v-172h117c32 0 58 -26 58 -58v-87c0 -33 -26 -59 -58 -59c-33 0 -59 26 -59 59v29h-58v-237c0 -32 -26 -58 -58 -58c-33 0 -59 26 -59 58v237h-58v-29c0 -33 -26 -59 -58 -59
c-33 0 -59 26 -59 59v87c0 32 26 58 59 58h116v172h-58v-29c0 -32 -26 -58 -58 -58c-33 0 -59 26 -59 58v88c0 32 26 58 59 58h350z" />
    <glyph glyph-name="talt.107" horiz-adv-x="896" 
d="M83 698c5 1 10 2 15 2c20 0 40 -10 50 -28l242 -403v373c0 26 17 49 43 56c5 1 10 2 15 2c20 0 40 -10 50 -28l350 -584c6 -9 8 -20 8 -30s-2 -19 -7 -28c-11 -19 -30 -30 -51 -30h-700c-32 0 -58 26 -58 58v584c0 26 17 49 43 56zM506 431v-314h189zM156 431v-314h189z
" />
    <glyph glyph-name="talt.104" horiz-adv-x="430" 
d="M331 700c32 0 59 -26 59 -58c0 -33 -27 -59 -59 -59h-58v-525c0 -32 -26 -58 -58 -58c-33 0 -59 26 -59 58v525h-58c-32 0 -58 26 -58 59c0 32 26 58 58 58h233z" />
    <glyph glyph-name="talt.109" horiz-adv-x="429" 
d="M214 0c-82 0 -152 46 -170 113c-1 5 -2 10 -2 15c0 26 17 49 43 56c5 2 11 2 16 2c25 0 49 -17 56 -43c3 -11 25 -26 57 -26c37 0 59 18 59 29c0 10 -66 28 -79 32c-50 13 -154 43 -154 143c0 41 21 81 57 108c32 24 74 37 117 37c83 0 153 -46 171 -113
c1 -5 2 -10 2 -15c0 -26 -17 -49 -43 -56c-5 -2 -11 -2 -16 -2c-25 0 -49 17 -56 43c-3 11 -25 27 -58 27c-36 0 -58 -19 -58 -29s67 -28 79 -32c51 -13 154 -43 154 -143c0 -42 -21 -81 -57 -109c-32 -24 -74 -37 -118 -37z" />
    <glyph glyph-name="talt.105" horiz-adv-x="488" 
d="M329 310l113 -226c4 -8 6 -17 6 -26c0 -21 -12 -41 -32 -52c-8 -4 -17 -6 -26 -6c-21 0 -42 11 -52 32l-146 292c-4 9 -7 18 -7 27c0 10 3 21 9 30c11 17 29 27 50 27c3 0 27 2 49 14c17 9 39 26 39 74c0 38 -13 61 -41 75c-23 12 -47 12 -47 12h-87v-525
c0 -32 -26 -58 -59 -58c-32 0 -58 26 -58 58v584c0 32 26 58 58 58h146c5 0 52 -1 99 -24c68 -34 105 -98 105 -180s-37 -146 -105 -180z" />
    <glyph glyph-name="talt.111" 
d="M465 697c31 -9 48 -41 39 -72l-175 -583c-7 -25 -30 -42 -56 -42c-25 0 -48 17 -56 42l-174 583c-10 31 8 63 39 72c30 10 63 -8 72 -39l61 -202v185c0 33 26 59 58 59c33 0 59 -26 59 -59v-185l60 202c10 31 42 49 73 39z" />
    <glyph glyph-name="talt.108" horiz-adv-x="488" 
d="M244 0c-97 0 -181 69 -200 163c-1 4 -1 8 -1 12c0 27 19 52 46 57c4 1 7 1 11 1c28 0 53 -19 58 -47c8 -40 44 -69 86 -69c48 0 87 39 87 87c0 30 -8 58 -105 90l-8 3c-59 20 -178 65 -178 199c0 112 91 204 204 204c96 0 181 -69 200 -163c1 -4 1 -7 1 -11
c0 -28 -19 -53 -47 -58c-4 -1 -7 -1 -11 -1c-27 0 -52 19 -58 46c-8 41 -44 70 -85 70c-48 0 -87 -39 -87 -87c0 -30 7 -58 105 -90l8 -3c59 -20 178 -65 178 -199c0 -113 -92 -204 -204 -204z" />
    <glyph glyph-name="talt.112" horiz-adv-x="548" 
d="M475 460c29 -14 41 -49 26 -78l-175 -350c-10 -20 -30 -32 -52 -32s-42 12 -52 32l-175 350c-14 29 -3 64 26 78c29 15 64 3 78 -26l65 -129v103c0 32 26 58 58 58s58 -26 58 -58v-103l65 129c14 29 49 41 78 26z" />
    <glyph glyph-name="talt.113" horiz-adv-x="598" 
d="M500 690c32 0 58 -25 58 -57v-575c0 -26 -16 -48 -40 -55c-6 -2 -12 -3 -18 -3c-18 0 -36 9 -47 25l-125 179v-147c0 -31 -26 -57 -58 -57s-57 26 -57 57v311l-58 82v-392c0 -32 -26 -58 -57 -58c-32 0 -58 26 -58 58v575c0 25 16 47 40 55c5 2 11 2 16 2
c19 0 37 -9 49 -24l68 -97v64c0 31 25 57 57 57s58 -26 58 -57v-229l115 -164v393c0 32 26 57 57 57z" />
    <glyph glyph-name="talt.110" horiz-adv-x="489" 
d="M441 670c16 -28 6 -64 -22 -79l-171 -95l171 -95c18 -10 30 -30 30 -51s-12 -41 -30 -51l-171 -95l171 -95c28 -15 38 -51 22 -79c-10 -19 -30 -30 -51 -30c-9 0 -19 2 -28 7l-205 114v-63c0 -32 -26 -58 -58 -58s-59 26 -59 58v583c0 33 27 59 59 59s58 -26 58 -59v-62
l205 114c28 15 64 5 79 -23zM270 350l-113 63v-126z" />
    <glyph glyph-name="Pi.001" horiz-adv-x="483" 
d="M385 575h-57v-172c31 0 57 -26 57 -58s-26 -57 -57 -57v-173h57c32 0 58 -26 58 -58c0 -31 -26 -57 -58 -57h-287c-32 0 -58 26 -58 57v576c0 31 26 57 58 57h287c32 0 58 -26 58 -57c0 -32 -26 -58 -58 -58zM213 575h-58v-172h58v172zM155 115h58v173h-58v-173z" />
    <glyph glyph-name="Pi.002" horiz-adv-x="656" 
d="M603 381c8 -11 12 -23 12 -36s-4 -26 -12 -36l-87 -108l87 -107c9 -11 13 -23 13 -36c0 -17 -8 -34 -22 -45c-11 -9 -24 -13 -36 -13c-17 0 -33 8 -45 22l-70 87l-70 -87c-11 -14 -28 -22 -45 -22c-18 0 -34 8 -45 22l-70 87l-71 -87c-11 -15 -28 -22 -44 -22
c-13 0 -26 4 -36 13c-14 11 -22 28 -22 45c0 13 4 25 13 36l86 107l-86 108c-9 10 -13 23 -13 36s4 25 13 36l86 108l-86 108c-9 11 -13 23 -13 36c0 17 8 34 22 45c10 8 23 12 35 12c17 0 33 -7 45 -21l71 -88l70 88c11 13 27 21 45 21c17 0 34 -8 45 -21l70 -88l70 88
c11 14 28 22 45 22c13 0 25 -4 36 -13c14 -11 22 -28 22 -45c0 -13 -4 -25 -13 -36l-87 -108zM328 541l-42 -52l42 -52l41 52zM171 345l42 -52l41 52l-41 52zM328 150l41 51l-41 52l-42 -52zM401 345l42 -52l41 52l-41 52z" />
    <glyph glyph-name="Pi.003" horiz-adv-x="656" 
d="M603 381c8 -11 13 -23 13 -36s-5 -26 -13 -36l-82 -103l82 -103c9 -11 13 -23 13 -36c0 -17 -8 -34 -22 -45c-11 -8 -23 -12 -36 -12c-17 0 -33 7 -45 21l-66 83l-74 -92c-11 -15 -28 -22 -45 -22c-13 0 -25 4 -36 13c-14 11 -22 28 -22 45c0 13 4 25 13 36l90 112
l-41 52l-189 -236c-12 -15 -28 -22 -45 -22c-13 0 -25 4 -36 13c-14 11 -22 28 -22 45c0 13 4 25 13 36l205 256l-205 256c-9 11 -13 23 -13 36c0 17 8 34 22 45c11 9 23 13 36 13c17 0 34 -8 45 -22l189 -236l37 47l-86 108c-9 11 -13 23 -13 36c0 17 8 34 22 45
c11 9 23 13 36 13c17 0 34 -8 45 -22l70 -88l70 88c11 14 28 22 45 22c13 0 25 -4 36 -13c14 -11 22 -28 22 -45c0 -13 -4 -25 -13 -36l-86 -108zM406 350l41 -52l37 47l-41 52z" />
    <glyph glyph-name="Pi.004" horiz-adv-x="885" 
d="M804 688c25 -7 41 -31 41 -56c0 -5 0 -11 -2 -16l-173 -575c-7 -24 -30 -41 -55 -41s-48 17 -55 41l-29 96l-34 -98c-8 -23 -30 -39 -55 -39c-24 0 -46 16 -54 39l-34 98l-29 -96c-7 -24 -30 -41 -55 -41c-26 0 -48 17 -55 41l-173 575c-2 6 -2 11 -2 17
c0 25 16 48 41 55c5 2 11 2 16 2c25 0 48 -16 55 -41l118 -391l19 64l-102 292c-2 6 -3 13 -3 19c0 24 14 46 38 54c6 2 13 3 19 3c24 0 46 -14 54 -38l50 -143l42 140c8 25 30 41 55 41c26 0 48 -16 55 -41l42 -140l50 143c9 24 30 38 54 38c6 0 14 -1 20 -3
c24 -8 38 -30 38 -54c0 -6 -1 -13 -3 -19l-102 -292l19 -64l117 391c8 25 31 41 56 41c5 0 11 0 16 -2zM442 232l33 92l-33 109l-32 -109z" />
    <glyph glyph-name="Pi.005" horiz-adv-x="540" 
d="M442 403h-115v-58h115c32 0 58 -26 58 -57c0 -32 -26 -58 -58 -58h-115v-173c0 -31 -26 -57 -57 -57c-32 0 -58 26 -58 57v173h-115c-32 0 -57 26 -57 58c0 31 25 57 57 57h115v58h-115c-32 0 -57 25 -57 57s25 58 57 58h115v57h-115c-32 0 -57 26 -57 58
c0 31 25 57 57 57h345c32 0 58 -26 58 -57c0 -32 -26 -58 -58 -58h-115v-57h115c32 0 58 -26 58 -58s-26 -57 -58 -57z" />
    <glyph glyph-name="alt.0.002" horiz-adv-x="898" 
d="M449 700c20 0 39 -10 50 -28l350 -584c6 -9 9 -20 9 -30c0 -20 -11 -39 -29 -50c-9 -5 -20 -8 -30 -8c-20 0 -39 10 -50 28l-242 403v-373c0 -26 -17 -49 -43 -56c-5 -1 -10 -2 -15 -2c-20 0 -40 10 -50 28l-242 403v-373c0 -32 -26 -58 -59 -58c-32 0 -58 26 -58 58v584
c0 26 18 49 43 56c5 1 10 2 15 2c20 0 41 -10 51 -28l241 -403v373c0 26 18 49 43 56c5 1 11 2 16 2z" />
    <glyph glyph-name="Pi.006" horiz-adv-x="605" 
d="M507 0c-32 0 -58 26 -58 58v457l-108 -93c-11 -9 -25 -14 -38 -14c-14 0 -27 5 -38 14l-108 93v-457c0 -32 -26 -58 -58 -58s-59 26 -59 58v584c0 22 14 43 34 53c8 3 16 5 24 5c14 0 28 -5 39 -14l166 -143l166 143c11 9 24 14 38 14c8 0 16 -2 24 -5
c21 -10 34 -31 34 -53v-584c0 -32 -26 -58 -58 -58z" />
    <glyph glyph-name="alt.002" horiz-adv-x="756" 
d="M583 396c47 0 89 -20 112 -55c14 -20 21 -44 21 -70c0 -10 -1 -20 -3 -30c-20 -117 -125 -193 -208 -222c-37 -13 -75 -19 -114 -19c-88 0 -175 33 -240 94c-71 67 -111 162 -111 258c0 30 4 61 12 91c35 126 141 224 270 250c22 4 44 6 66 6c108 0 213 -50 280 -138
c8 -10 12 -23 12 -35c0 -17 -8 -35 -23 -46c-10 -8 -23 -12 -35 -12c-17 0 -35 8 -46 23c-45 58 -114 92 -186 92c-15 0 -31 -2 -46 -5c-85 -17 -156 -82 -179 -166c-6 -20 -8 -41 -8 -61c0 -64 26 -127 74 -172c43 -41 102 -63 161 -63c25 0 51 5 75 13
c57 20 120 69 131 132c1 4 1 8 1 10v4c-2 2 -6 4 -12 4c-20 -1 -48 -23 -60 -47c-10 -21 -31 -33 -53 -33c-9 0 -17 2 -25 6c-24 12 -29 25 -29 41c0 12 3 25 3 39c25 51 86 108 160 111z" />
    <glyph glyph-name="alt.019" horiz-adv-x="750" 
d="M477 700c94 0 167 -43 206 -120c27 -54 27 -107 27 -113v-409c0 -32 -26 -58 -58 -58s-58 26 -58 58v408c0 2 -1 35 -17 65c-19 36 -51 52 -100 52c-68 0 -92 -14 -105 -25c-13 -12 -23 -29 -33 -50c35 -45 62 -97 81 -155c27 -83 29 -158 29 -192v-17
c-2 -59 -41 -144 -147 -144c-115 0 -175 103 -175 204c0 63 5 141 65 260l10 21c-35 31 -76 55 -124 73c-24 9 -38 30 -38 54c0 6 1 14 3 20c9 24 31 39 55 39c7 0 13 -2 20 -4c50 -18 96 -43 135 -73c36 59 94 106 224 106zM331 146v5v18c0 29 -3 88 -24 152
c-7 22 -15 42 -25 61c-35 -79 -38 -129 -38 -178c0 -3 0 -87 58 -87c17 0 19 5 24 10c4 7 5 16 5 19z" />
    <glyph glyph-name="alt.0.036" horiz-adv-x="546" 
d="M501 82c3 -8 5 -16 5 -24c0 -22 -13 -43 -34 -53c-8 -3 -16 -5 -24 -5c-22 0 -43 13 -53 34l-116 258h-123v-234c0 -32 -26 -58 -58 -58s-58 26 -58 58v584c0 32 26 58 58 58h204c5 0 52 -1 99 -24c68 -34 105 -98 105 -180s-37 -146 -105 -180l-4 -2zM349 571
c-23 12 -47 12 -47 12h-26c74 -162 75 -162 75 -161c17 9 39 26 39 74c0 38 -13 61 -41 75zM156 408h71l-71 156v-156z" />
    <glyph glyph-name="alt.0.006" horiz-adv-x="546" 
d="M374 413l119 -142c9 -11 13 -25 13 -38s-4 -26 -13 -37l-146 -175c-12 -14 -28 -21 -44 -21c-13 0 -27 5 -38 14c-14 11 -21 28 -21 45c0 13 4 26 13 37l115 137l-115 138c-9 10 -13 24 -13 37c0 11 3 22 9 31l90 144h-187v-525c0 -32 -26 -58 -58 -58s-58 26 -58 58v584
c0 32 26 58 58 58h350c21 0 41 -12 51 -30c5 -9 7 -18 7 -28c0 -11 -3 -22 -9 -31z" />
    <glyph glyph-name="SS.007" horiz-adv-x="664" 
d="M565 350c32 0 59 -26 59 -59c0 -32 -27 -58 -59 -58h-175v-58c0 -7 -1 -45 -20 -84c-30 -59 -84 -91 -155 -91c-70 0 -125 32 -154 91c-20 39 -21 77 -21 84s1 45 21 84c29 59 84 91 154 91h59v291c0 33 26 59 58 59s58 -26 58 -59v-291h175zM274 175v58h-59
c-31 0 -42 -12 -48 -24c-8 -13 -10 -28 -10 -34s2 -21 10 -34c6 -12 17 -24 48 -24c33 0 44 13 50 26c8 15 9 32 9 32z" />
    </font>
</defs>
</svg>
